<svg width="15" height="9" viewBox="0 0 15 9" fill="none" xmlns="http://www.w3.org/2000/svg">
<path d="M1.01002 2.08744e-06H13.9921C14.1917 -0.000233306 14.3869 0.0588425 14.5528 0.169732C14.7188 0.280622 14.8481 0.438325 14.9243 0.622827C15.0005 0.807328 15.0202 1.01031 14.9808 1.20601C14.9415 1.4017 14.8448 1.5813 14.7032 1.72199L8.2148 8.21559C8.02532 8.40455 7.76864 8.51066 7.50104 8.51066C7.23344 8.51066 6.97676 8.40455 6.78728 8.21559L0.297981 1.72199C0.15632 1.58124 0.0596844 1.40157 0.0203484 1.20579C-0.0189876 1.01002 0.000750895 0.806964 0.0770569 0.622428C0.153363 0.437891 0.282793 0.280196 0.448909 0.169372C0.615025 0.0585485 0.810331 -0.000404346 1.01002 2.08744e-06Z" fill="white"/>
</svg>
