<svg width="20" height="18" viewBox="0 0 20 18" fill="none" xmlns="http://www.w3.org/2000/svg">
<g clip-path="url(#clip0_130_507)">
<path d="M5.69226 5.9064L6.5711 -0.00145721H1.99971L0.0900449 5.06252C0.0303154 5.24384 -9.11736e-05 5.43373 2.05348e-07 5.62486C2.05348e-07 6.86478 1.27791 7.87496 2.85694 7.87496C4.31278 7.87496 5.51578 7.01576 5.69226 5.90567V5.9064ZM10 7.87568C11.5776 7.87568 12.8569 6.8677 12.8569 5.62559C12.8569 5.57964 12.8569 5.53369 12.8512 5.4892L12.2857 1.40991e-06H7.71431L7.14739 5.4841C7.14739 5.53005 7.14306 5.576 7.14306 5.62486C7.14306 6.86478 8.4217 7.87496 10 7.87496V7.87568ZM15.5554 9.05215V13.5013H4.44461V9.05944C3.93625 9.24457 3.40005 9.33908 2.85982 9.33879C2.64726 9.33524 2.4352 9.31672 2.22518 9.28336V16.426C2.22613 16.843 2.39 17.2426 2.68099 17.5377C2.97199 17.8327 3.36646 17.9992 3.77827 18.0007H16.2224C16.6345 17.9992 17.0292 17.8328 17.3205 17.5378C17.6118 17.2428 17.7762 16.8432 17.7777 16.426V9.28336C17.5676 9.31612 17.3556 9.33464 17.1431 9.33879C16.6013 9.33828 16.0639 9.24126 15.5554 9.05215ZM19.9107 5.06325L17.9996 1.40991e-06H13.4289L14.307 5.89692C14.4785 7.01066 15.6815 7.87496 17.1438 7.87496C18.7214 7.87496 20.0007 6.86697 20.0007 5.62486C20.0007 5.43385 19.9708 5.24405 19.9121 5.06252L19.9107 5.06325Z" fill="#2C85FB"/>
</g>
<defs>
<clipPath id="clip0_130_507">
<rect width="20" height="18" fill="white"/>
</clipPath>
</defs>
</svg>
