<svg width="34" height="34" viewBox="0 0 34 34" fill="none" xmlns="http://www.w3.org/2000/svg">
<path d="M17 0C26.3884 0 34 7.61158 34 17C34 26.3884 26.3881 34 17 34C7.61192 34 0 26.3905 0 17C0 7.60954 7.61056 0 17 0Z" fill="#53AE94"/>
<path d="M19.0981 14.7349V12.206H24.8812V8.35278H9.13374V12.206H14.9175V14.7329C10.217 14.9488 6.68268 15.8797 6.68268 16.9949C6.68268 18.1101 10.2187 19.041 14.9175 19.2583V27.3588H19.0995V19.2576C23.7915 19.041 27.3186 18.1108 27.3186 16.9966C27.3186 15.8824 23.7915 14.9522 19.0995 14.7356L19.0981 14.7349ZM19.0995 18.5715V18.5694C18.9815 18.5769 18.3753 18.6133 17.0255 18.6133C15.9463 18.6133 15.1871 18.5827 14.9195 18.5688V18.5722C10.7668 18.3882 7.66698 17.665 7.66698 16.7997C7.66698 15.9344 10.7671 15.2123 14.9195 15.028V17.8517C15.1915 17.8704 15.9694 17.9163 17.0432 17.9163C18.3328 17.9163 18.9812 17.8626 19.1002 17.8517V15.028C23.2448 15.2126 26.3374 15.9365 26.3374 16.7987C26.3374 17.661 23.2434 18.3852 19.1002 18.5698" fill="white"/>
</svg>
