<svg width="625" height="432" viewBox="0 0 625 432" fill="none" xmlns="http://www.w3.org/2000/svg">
<g clip-path="url(#clip0_167_6276)">
<path opacity="0.1" d="M353.518 58.8152C313.457 58.8689 274.896 47.4986 238.012 34.8674C201.128 22.2361 164.529 8.09172 125.212 2.09806C99.9265 -1.75463 71.1732 -1.40048 51.4076 12.5883C32.3817 26.0459 26.8722 48.3196 24.2139 68.8976C22.2148 84.3781 21.293 100.626 28.7801 114.786C33.9788 124.617 42.8754 132.719 49.1459 142.088C71.0338 174.68 57.8711 216.314 36.5995 249.663C26.6256 265.31 14.9421 280.307 7.40138 296.85C-0.139333 313.393 -3.23172 332.152 4.45905 348.48C12.0802 364.664 29.2946 376.41 47.7686 384.432C85.2845 400.755 128.964 404.253 171.469 405.6C265.559 408.589 359.832 402.493 453.852 396.397C488.645 394.144 523.594 391.874 557.669 385.344C576.588 381.722 596.07 376.345 609.484 364.562C626.511 349.602 629.995 325.176 617.604 307.619C596.826 278.172 542.036 272.618 527.137 240.755C518.921 223.214 526.006 203.098 536.441 186.19C558.822 149.911 597.345 117.416 597.994 76.8391C598.439 48.9742 578.405 21.7908 548.483 9.68002C517.12 -3.00487 474.357 0.257568 452.384 23.8995C429.788 48.2552 388.891 58.7776 353.518 58.8152Z" fill="#2C85FB"/>
<path d="M531.939 346.291C531.939 346.291 525.352 341.939 518.824 345.035C518.824 345.035 520.834 348.91 529.099 348.545L531.939 346.291Z" fill="#2C85FB"/>
<path d="M532.775 346.522C532.775 346.522 534.779 354.163 529.752 359.362C529.752 359.362 526.73 356.213 529.752 348.496L532.775 346.522Z" fill="#2C85FB"/>
<path d="M540.964 339.187C540.964 339.187 540.477 332.689 525.819 334.846C525.819 334.846 525.749 339.036 530.894 341.022C536.039 343.007 538.397 341.333 540.964 339.187Z" fill="#2C85FB"/>
<path d="M541.886 339.144C541.886 339.144 548.082 341.135 542.556 354.898C542.556 354.898 538.467 353.986 537.732 348.507C536.998 343.029 539.174 341.14 541.886 339.144Z" fill="#2C85FB"/>
<path d="M550.161 329.925C550.161 329.925 551.002 319.231 536.023 320.326C536.023 320.326 534.951 329.984 547.519 332.495L550.161 329.925Z" fill="#2C85FB"/>
<path d="M560.06 317.852C560.06 317.852 558.007 305.731 543.033 309.342C543.033 309.342 542.979 319.821 557.616 320.739L560.06 317.852Z" fill="#2C85FB"/>
<path d="M567.295 305.371C567.295 305.371 563.854 293.566 549.019 297.097C549.019 297.097 552.551 307.716 566.309 307.55L567.295 305.371Z" fill="#2C85FB"/>
<path d="M574.166 293.18C574.166 293.18 570.806 280.93 556.48 284.594C556.48 284.594 561.26 296.233 573.217 295.251L574.166 293.18Z" fill="#2C85FB"/>
<path d="M578.593 281.6C578.593 281.6 576.01 266.619 562.654 269.935C562.654 269.935 566.534 283.564 577.612 283.784L578.593 281.6Z" fill="#2C85FB"/>
<path d="M582.746 267.612C582.746 267.612 579.643 252.512 566.132 256.88C566.132 256.88 571.427 271.153 581.787 269.677L582.746 267.612Z" fill="#2C85FB"/>
<path d="M585.297 254.594C585.297 254.594 580.372 239.489 569.927 239.897C569.927 239.897 574.959 255.85 584.424 257.604L585.297 254.594Z" fill="#2C85FB"/>
<path d="M586.948 241.888C586.948 241.888 581.589 223.708 573.089 225.109C573.089 225.109 576.797 239.006 586.648 244.721L586.948 241.888Z" fill="#2C85FB"/>
<path d="M587.88 226.729C587.88 226.729 582.853 211.581 574.482 210.975C574.482 210.975 577.901 225.881 587.714 230.668L587.88 226.729Z" fill="#2C85FB"/>
<path d="M588.894 212.585C588.894 212.585 582.628 197.421 577.103 197.077C577.103 197.077 579.825 212.01 588.358 215.074L588.894 212.585Z" fill="#2C85FB"/>
<path d="M589.585 199.428C589.585 199.428 585.731 182.96 580.195 181.591C580.195 181.591 580.951 195.065 589.027 200.662L589.585 199.428Z" fill="#2C85FB"/>
<path d="M591.675 182.192C591.675 182.192 587.623 169.062 583.137 167.061C583.137 167.061 584.022 182.541 590.641 185.401L591.675 182.192Z" fill="#2C85FB"/>
<path d="M593.406 170.924L594.221 147.776C594.221 147.776 585.833 165.226 592.801 174.986L593.406 170.924Z" fill="#2C85FB"/>
<path d="M599.88 147.899C599.88 147.899 605.92 130.997 607.383 130.052C607.383 130.052 595.539 141.02 596.697 155.127L599.88 147.899Z" fill="#2C85FB"/>
<path d="M550.568 329.845C550.568 329.845 561.191 328.455 560.875 343.485C560.875 343.485 551.276 345.052 548.141 332.619L550.568 329.845Z" fill="#2C85FB"/>
<path d="M560.564 317.444C560.564 317.444 572.837 317.407 571.818 332.791C571.818 332.791 561.512 334.636 558.114 320.353L560.564 317.444Z" fill="#2C85FB"/>
<path d="M567.413 306.364C567.413 306.364 578.555 301.132 585.683 314.638C585.683 314.638 575.393 318.995 566.427 308.548L567.413 306.364Z" fill="#2C85FB"/>
<path d="M574.412 293.293C574.412 293.293 585.823 287.728 592.522 300.917C592.522 300.917 580.635 305.017 573.469 295.38L574.412 293.293Z" fill="#2C85FB"/>
<path d="M578.448 281.928C578.448 281.928 589.43 271.427 598.192 282.046C598.192 282.046 586.975 290.69 577.944 284.267L578.448 281.928Z" fill="#2C85FB"/>
<path d="M582.125 267.252C582.125 267.252 593.17 256.52 601.863 267.746C601.863 267.746 589.467 276.562 581.728 269.506L582.125 267.252Z" fill="#2C85FB"/>
<path d="M584.188 254.165C584.188 254.165 592.699 240.75 602.721 243.744C602.721 243.744 593.889 257.948 584.284 257.314L584.188 254.165Z" fill="#2C85FB"/>
<path d="M586.696 241.802C586.696 241.802 595.271 224.91 603.385 227.851C603.385 227.851 597.201 240.836 586.476 244.651L586.696 241.802Z" fill="#2C85FB"/>
<path d="M587.291 225.849C587.291 225.849 596.107 212.552 604.366 214.178C604.366 214.178 597.158 227.663 586.434 229.696L587.291 225.849Z" fill="#2C85FB"/>
<path d="M587.977 212.289C587.977 212.289 594.81 197.367 600.363 197.265C600.363 197.265 597.083 212.08 588.438 214.822L587.977 212.289Z" fill="#2C85FB"/>
<path d="M589.317 199.106C589.317 199.106 596.911 183.995 602.619 183.963C602.619 183.963 598.733 196.884 589.569 200.431L589.317 199.106Z" fill="#2C85FB"/>
<path d="M590.458 183.137C590.458 183.137 596.139 170.634 600.845 169.218C600.845 169.218 598.005 184.457 591.086 186.453L590.458 183.137Z" fill="#2C85FB"/>
<path d="M594.081 170.468L606.778 151.103C606.778 151.103 603.525 170.205 592.227 174.176L594.081 170.468Z" fill="#2C85FB"/>
<path d="M602.796 149.461C602.796 149.461 617.55 139.266 618.086 137.618C618.086 137.618 610.583 151.897 596.649 154.419L602.796 149.461Z" fill="#2C85FB"/>
<path d="M603.68 144.873C603.68 144.873 620.621 128.566 624.946 128.582C624.946 128.582 610.974 129.221 603.273 144.004L603.68 144.873Z" fill="#2C85FB"/>
<path d="M590.625 185.557L591.241 185.637C594.424 160.691 599.066 145.93 604.307 144.122L604.104 143.531C598.546 145.463 593.872 159.999 590.625 185.557Z" fill="#444053"/>
<path d="M585.94 245.214L586.873 245.29C587.071 242.961 587.221 240.578 587.323 238.201C588.213 217.553 589.59 198.59 591.402 184.376L590.866 183.706C589.049 197.952 587.28 217.484 586.391 238.164C586.289 240.525 586.139 242.896 585.94 245.214Z" fill="#444053"/>
<path d="M514.553 358.193C514.714 358.123 531.13 350.782 548.167 333.279C558.149 323.027 566.443 311.255 572.74 298.401C580.619 282.341 585.421 262.605 587.029 243.433L586.058 243.889C582.441 286.923 562.874 316.328 547.315 332.345C530.444 349.693 514.21 356.958 514.049 357.028L514.553 358.193Z" fill="#444053"/>
<path d="M557.059 45.7332H42.0822C40.8654 45.7332 39.6986 46.2171 38.8382 47.0785C37.9778 47.9399 37.4945 49.1082 37.4945 50.3264V63.7088H561.646V50.3264C561.646 49.1082 561.163 47.9399 560.303 47.0785C559.442 46.2171 558.275 45.7332 557.059 45.7332Z" fill="#3F3D56"/>
<path d="M37.4945 63.7089V364.862C37.4945 367.319 38.4691 369.674 40.2039 371.411C41.9387 373.148 44.2915 374.124 46.7449 374.124H552.396C554.849 374.124 557.202 373.148 558.937 371.411C560.672 369.674 561.646 367.319 561.646 364.862V63.7089H37.4945Z" fill="white"/>
<path opacity="0.8" d="M45.7963 56.7332C46.9803 56.7332 47.9401 55.7723 47.9401 54.5869C47.9401 53.4015 46.9803 52.4406 45.7963 52.4406C44.6123 52.4406 43.6525 53.4015 43.6525 54.5869C43.6525 55.7723 44.6123 56.7332 45.7963 56.7332Z" fill="#FA5959"/>
<path opacity="0.8" d="M51.6916 56.7332C52.8756 56.7332 53.8354 55.7723 53.8354 54.5869C53.8354 53.4015 52.8756 52.4406 51.6916 52.4406C50.5076 52.4406 49.5479 53.4015 49.5479 54.5869C49.5479 55.7723 50.5076 56.7332 51.6916 56.7332Z" fill="#FED253"/>
<path opacity="0.8" d="M57.587 56.7332C58.771 56.7332 59.7308 55.7723 59.7308 54.5869C59.7308 53.4015 58.771 52.4406 57.587 52.4406C56.403 52.4406 55.4432 53.4015 55.4432 54.5869C55.4432 55.7723 56.403 56.7332 57.587 56.7332Z" fill="#8CCF4D"/>
<path opacity="0.05" d="M507.468 113.923H86.217V299.377H507.468V113.923Z" fill="black"/>
<path d="M504.252 115.328H89.4327V296.694H504.252V115.328Z" fill="#3F3D56"/>
<path d="M202.517 162.006C194.355 162.006 186.376 164.429 179.59 168.969C172.803 173.509 167.514 179.962 164.39 187.512C161.267 195.061 160.45 203.369 162.042 211.384C163.634 219.398 167.565 226.76 173.336 232.539C179.107 238.317 186.461 242.252 194.466 243.846C202.471 245.441 210.768 244.622 218.309 241.495C225.85 238.368 232.295 233.072 236.829 226.278C241.364 219.483 243.784 211.495 243.784 203.323C243.784 197.897 242.717 192.525 240.643 187.512C238.569 182.499 235.529 177.944 231.697 174.108C227.865 170.271 223.316 167.227 218.309 165.151C213.302 163.075 207.936 162.006 202.517 162.006ZM209.918 204.316V223.88H195.33V204.316C193.311 202.786 191.823 200.66 191.076 198.238C190.329 195.815 190.361 193.219 191.167 190.816C191.973 188.413 193.513 186.324 195.568 184.844C197.624 183.364 200.092 182.568 202.624 182.568C205.156 182.568 207.624 183.364 209.679 184.844C211.735 186.324 213.275 188.413 214.081 190.816C214.887 193.219 214.918 195.815 214.172 198.238C213.425 200.66 211.937 202.786 209.918 204.316Z" fill="#2C85FB"/>
<path opacity="0.05" d="M202.517 162.006C194.355 162.006 186.376 164.429 179.59 168.969C172.803 173.509 167.514 179.962 164.39 187.512C161.267 195.061 160.45 203.369 162.042 211.384C163.634 219.398 167.565 226.76 173.336 232.539C179.107 238.317 186.461 242.252 194.466 243.846C202.471 245.441 210.768 244.622 218.309 241.495C225.85 238.368 232.295 233.072 236.829 226.278C241.364 219.483 243.784 211.495 243.784 203.323C243.784 197.897 242.717 192.525 240.643 187.512C238.569 182.499 235.529 177.944 231.697 174.108C227.865 170.271 223.316 167.227 218.309 165.151C213.302 163.075 207.936 162.006 202.517 162.006ZM209.918 204.316V223.88H195.33V204.316C193.311 202.786 191.823 200.66 191.076 198.238C190.329 195.815 190.361 193.219 191.167 190.816C191.973 188.413 193.513 186.324 195.568 184.844C197.624 183.364 200.092 182.568 202.624 182.568C205.156 182.568 207.624 183.364 209.679 184.844C211.735 186.324 213.275 188.413 214.081 190.816C214.887 193.219 214.918 195.815 214.172 198.238C213.425 200.66 211.937 202.786 209.918 204.316Z" fill="black"/>
<path d="M202.517 150.201C192.023 150.201 181.764 153.317 173.039 159.154C164.314 164.991 157.513 173.287 153.497 182.994C149.481 192.701 148.431 203.382 150.478 213.687C152.525 223.991 157.578 233.457 164.999 240.886C172.419 248.315 181.873 253.375 192.165 255.424C202.458 257.474 213.126 256.422 222.821 252.402C232.516 248.381 240.803 241.572 246.633 232.836C252.463 224.1 255.575 213.83 255.575 203.323C255.575 189.234 249.985 175.723 240.034 165.76C230.084 155.798 216.589 150.201 202.517 150.201ZM212.03 204.6V229.75H193.272V204.6C190.675 202.633 188.761 199.899 187.8 196.784C186.839 193.668 186.88 190.33 187.916 187.239C188.953 184.149 190.933 181.462 193.576 179.558C196.22 177.655 199.394 176.631 202.651 176.631C205.907 176.631 209.081 177.655 211.725 179.558C214.368 181.462 216.348 184.149 217.385 187.239C218.421 190.33 218.462 193.668 217.501 196.784C216.54 199.899 214.626 202.633 212.03 204.6Z" fill="#2C85FB"/>
<path d="M449.05 196.353H277.548V214.597H449.05V196.353Z" fill="white"/>
<path d="M449.05 229.621H412.07V247.865H449.05V229.621Z" fill="#2C85FB"/>
<path d="M294.431 205.201H291.328L294.088 202.443C294.137 202.392 294.165 202.324 294.165 202.253C294.165 202.182 294.137 202.113 294.088 202.062C294.063 202.037 294.033 202.017 294 202.003C293.968 201.99 293.933 201.983 293.897 201.983C293.862 201.983 293.827 201.99 293.794 202.003C293.762 202.017 293.732 202.037 293.707 202.062L290.947 204.826V201.713C290.947 201.642 290.919 201.574 290.869 201.524C290.818 201.473 290.75 201.445 290.679 201.445C290.608 201.446 290.541 201.475 290.491 201.525C290.441 201.575 290.413 201.643 290.411 201.713V204.826L287.656 202.046C287.631 202.021 287.602 202.001 287.569 201.987C287.537 201.974 287.501 201.967 287.466 201.967C287.431 201.967 287.396 201.974 287.363 201.987C287.33 202.001 287.301 202.021 287.276 202.046C287.226 202.097 287.199 202.165 287.199 202.237C287.199 202.308 287.226 202.376 287.276 202.427L290.036 205.185H286.928C286.857 205.186 286.789 205.215 286.74 205.265C286.69 205.315 286.661 205.383 286.66 205.453C286.66 205.525 286.688 205.593 286.738 205.643C286.788 205.693 286.856 205.722 286.928 205.722H290.036L287.276 208.485C287.226 208.536 287.199 208.604 287.199 208.676C287.199 208.747 287.226 208.815 287.276 208.866C287.327 208.914 287.395 208.941 287.466 208.941C287.537 208.941 287.605 208.914 287.656 208.866L290.411 206.103V209.209C290.411 209.281 290.439 209.349 290.49 209.399C290.54 209.449 290.608 209.478 290.679 209.478C290.75 209.478 290.818 209.449 290.869 209.399C290.919 209.349 290.947 209.281 290.947 209.209V206.103L293.707 208.866C293.759 208.914 293.827 208.941 293.897 208.941C293.968 208.941 294.036 208.914 294.088 208.866C294.137 208.815 294.165 208.747 294.165 208.676C294.165 208.604 294.137 208.536 294.088 208.485L291.328 205.722H294.431C294.502 205.722 294.57 205.693 294.62 205.643C294.67 205.593 294.699 205.525 294.699 205.453C294.695 205.385 294.665 205.321 294.615 205.274C294.565 205.227 294.499 205.201 294.431 205.201Z" fill="#2C85FB"/>
<path d="M305.685 205.201H302.582L305.342 202.443C305.392 202.392 305.42 202.324 305.42 202.253C305.42 202.182 305.392 202.113 305.342 202.062C305.318 202.037 305.288 202.017 305.255 202.003C305.223 201.99 305.188 201.983 305.152 201.983C305.117 201.983 305.082 201.99 305.049 202.003C305.016 202.017 304.987 202.037 304.962 202.062L302.202 204.826V201.713C302.202 201.642 302.174 201.574 302.123 201.524C302.073 201.473 302.005 201.445 301.934 201.445C301.863 201.446 301.796 201.475 301.746 201.525C301.696 201.575 301.667 201.643 301.666 201.713V204.826L298.911 202.046C298.886 202.021 298.857 202.001 298.824 201.987C298.791 201.974 298.756 201.967 298.721 201.967C298.685 201.967 298.65 201.974 298.618 201.987C298.585 202.001 298.556 202.021 298.531 202.046C298.481 202.097 298.454 202.165 298.454 202.237C298.454 202.308 298.481 202.376 298.531 202.427L301.291 205.185H298.182C298.112 205.186 298.044 205.215 297.994 205.265C297.944 205.315 297.916 205.383 297.914 205.453C297.914 205.525 297.943 205.593 297.993 205.643C298.043 205.693 298.111 205.722 298.182 205.722H301.291L298.531 208.485C298.481 208.536 298.454 208.604 298.454 208.676C298.454 208.747 298.481 208.815 298.531 208.866C298.582 208.914 298.65 208.941 298.721 208.941C298.792 208.941 298.86 208.914 298.911 208.866L301.666 206.103V209.209C301.666 209.281 301.694 209.349 301.744 209.399C301.795 209.449 301.863 209.478 301.934 209.478C302.005 209.478 302.073 209.449 302.123 209.399C302.174 209.349 302.202 209.281 302.202 209.209V206.103L304.962 208.866C305.014 208.914 305.082 208.941 305.152 208.941C305.223 208.941 305.291 208.914 305.342 208.866C305.392 208.815 305.42 208.747 305.42 208.676C305.42 208.604 305.392 208.536 305.342 208.485L302.582 205.722H305.685C305.757 205.722 305.825 205.693 305.875 205.643C305.925 205.593 305.953 205.525 305.953 205.453C305.949 205.385 305.919 205.321 305.869 205.274C305.82 205.227 305.754 205.201 305.685 205.201Z" fill="#2C85FB"/>
<path d="M316.94 205.201H313.837L316.597 202.443C316.647 202.392 316.674 202.324 316.674 202.253C316.674 202.182 316.647 202.113 316.597 202.062C316.572 202.037 316.543 202.017 316.51 202.003C316.477 201.99 316.442 201.983 316.407 201.983C316.372 201.983 316.337 201.99 316.304 202.003C316.271 202.017 316.242 202.037 316.217 202.062L313.457 204.826V201.713C313.457 201.642 313.428 201.574 313.378 201.524C313.328 201.473 313.26 201.445 313.189 201.445C313.118 201.446 313.051 201.475 313.001 201.525C312.951 201.575 312.922 201.643 312.921 201.713V204.826L310.166 202.046C310.141 202.021 310.111 202.001 310.079 201.987C310.046 201.974 310.011 201.967 309.976 201.967C309.94 201.967 309.905 201.974 309.873 201.987C309.84 202.001 309.81 202.021 309.786 202.046C309.736 202.097 309.708 202.165 309.708 202.237C309.708 202.308 309.736 202.376 309.786 202.427L312.546 205.185H309.437C309.367 205.186 309.299 205.215 309.249 205.265C309.199 205.315 309.171 205.383 309.169 205.453C309.169 205.525 309.197 205.593 309.248 205.643C309.298 205.693 309.366 205.722 309.437 205.722H312.546L309.786 208.485C309.736 208.536 309.708 208.604 309.708 208.676C309.708 208.747 309.736 208.815 309.786 208.866C309.837 208.914 309.905 208.941 309.976 208.941C310.046 208.941 310.114 208.914 310.166 208.866L312.921 206.103V209.209C312.921 209.281 312.949 209.349 312.999 209.399C313.05 209.449 313.118 209.478 313.189 209.478C313.26 209.478 313.328 209.449 313.378 209.399C313.428 209.349 313.457 209.281 313.457 209.209V206.103L316.217 208.866C316.268 208.914 316.336 208.941 316.407 208.941C316.478 208.941 316.546 208.914 316.597 208.866C316.647 208.815 316.674 208.747 316.674 208.676C316.674 208.604 316.647 208.536 316.597 208.485L313.837 205.722H316.94C317.011 205.722 317.08 205.693 317.13 205.643C317.18 205.593 317.208 205.525 317.208 205.453C317.204 205.385 317.174 205.321 317.124 205.274C317.075 205.227 317.009 205.201 316.94 205.201Z" fill="#2C85FB"/>
<path d="M328.195 205.201H325.092L327.852 202.443C327.902 202.392 327.929 202.324 327.929 202.253C327.929 202.182 327.902 202.113 327.852 202.062C327.827 202.037 327.798 202.017 327.765 202.003C327.732 201.99 327.697 201.983 327.662 201.983C327.626 201.983 327.591 201.99 327.559 202.003C327.526 202.017 327.496 202.037 327.472 202.062L324.711 204.826V201.713C324.711 201.642 324.683 201.574 324.633 201.524C324.583 201.473 324.515 201.445 324.444 201.445C324.373 201.446 324.305 201.475 324.256 201.525C324.206 201.575 324.177 201.643 324.176 201.713V204.826L321.421 202.046C321.396 202.021 321.366 202.001 321.334 201.987C321.301 201.974 321.266 201.967 321.231 201.967C321.195 201.967 321.16 201.974 321.127 201.987C321.095 202.001 321.065 202.021 321.04 202.046C320.991 202.097 320.963 202.165 320.963 202.237C320.963 202.308 320.991 202.376 321.04 202.427L323.8 205.185H320.692C320.621 205.186 320.554 205.215 320.504 205.265C320.454 205.315 320.425 205.383 320.424 205.453C320.424 205.525 320.452 205.593 320.502 205.643C320.553 205.693 320.621 205.722 320.692 205.722H323.8L321.04 208.485C320.991 208.536 320.963 208.604 320.963 208.676C320.963 208.747 320.991 208.815 321.04 208.866C321.092 208.914 321.16 208.941 321.231 208.941C321.301 208.941 321.369 208.914 321.421 208.866L324.176 206.103V209.209C324.176 209.281 324.204 209.349 324.254 209.399C324.304 209.449 324.372 209.478 324.444 209.478C324.515 209.478 324.583 209.449 324.633 209.399C324.683 209.349 324.711 209.281 324.711 209.209V206.103L327.472 208.866C327.523 208.914 327.591 208.941 327.662 208.941C327.732 208.941 327.8 208.914 327.852 208.866C327.902 208.815 327.929 208.747 327.929 208.676C327.929 208.604 327.902 208.536 327.852 208.485L325.092 205.722H328.195C328.266 205.722 328.334 205.693 328.385 205.643C328.435 205.593 328.463 205.525 328.463 205.453C328.459 205.385 328.429 205.321 328.379 205.274C328.329 205.227 328.263 205.201 328.195 205.201Z" fill="#2C85FB"/>
<path d="M339.45 205.201H336.347L339.107 202.443C339.156 202.392 339.184 202.324 339.184 202.253C339.184 202.182 339.156 202.113 339.107 202.062C339.082 202.037 339.052 202.017 339.02 202.003C338.987 201.99 338.952 201.983 338.917 201.983C338.881 201.983 338.846 201.99 338.814 202.003C338.781 202.017 338.751 202.037 338.726 202.062L335.966 204.826V201.713C335.966 201.642 335.938 201.574 335.888 201.524C335.837 201.473 335.769 201.445 335.698 201.445C335.628 201.446 335.56 201.475 335.51 201.525C335.46 201.575 335.432 201.643 335.43 201.713V204.826L332.676 202.046C332.651 202.021 332.621 202.001 332.588 201.987C332.556 201.974 332.521 201.967 332.485 201.967C332.45 201.967 332.415 201.974 332.382 201.987C332.35 202.001 332.32 202.021 332.295 202.046C332.246 202.097 332.218 202.165 332.218 202.237C332.218 202.308 332.246 202.376 332.295 202.427L335.055 205.185H331.947C331.876 205.186 331.809 205.215 331.759 205.265C331.709 205.315 331.68 205.383 331.679 205.453C331.679 205.525 331.707 205.593 331.757 205.643C331.807 205.693 331.876 205.722 331.947 205.722H335.055L332.295 208.485C332.246 208.536 332.218 208.604 332.218 208.676C332.218 208.747 332.246 208.815 332.295 208.866C332.347 208.914 332.415 208.941 332.485 208.941C332.556 208.941 332.624 208.914 332.676 208.866L335.43 206.103V209.209C335.43 209.281 335.459 209.349 335.509 209.399C335.559 209.449 335.627 209.478 335.698 209.478C335.769 209.478 335.837 209.449 335.888 209.399C335.938 209.349 335.966 209.281 335.966 209.209V206.103L338.726 208.866C338.778 208.914 338.846 208.941 338.917 208.941C338.987 208.941 339.055 208.914 339.107 208.866C339.156 208.815 339.184 208.747 339.184 208.676C339.184 208.604 339.156 208.536 339.107 208.485L336.347 205.722H339.45C339.521 205.722 339.589 205.693 339.639 205.643C339.69 205.593 339.718 205.525 339.718 205.453C339.714 205.385 339.684 205.321 339.634 205.274C339.584 205.227 339.518 205.201 339.45 205.201Z" fill="#2C85FB"/>
<path d="M350.705 205.201H347.602L350.362 202.443C350.411 202.392 350.439 202.324 350.439 202.253C350.439 202.182 350.411 202.113 350.362 202.062C350.337 202.037 350.307 202.017 350.274 202.003C350.242 201.99 350.207 201.983 350.171 201.983C350.136 201.983 350.101 201.99 350.068 202.003C350.036 202.017 350.006 202.037 349.981 202.062L347.221 204.826V201.713C347.221 201.642 347.193 201.574 347.142 201.524C347.092 201.473 347.024 201.445 346.953 201.445C346.882 201.446 346.815 201.475 346.765 201.525C346.715 201.575 346.686 201.643 346.685 201.713V204.826L343.93 202.046C343.905 202.021 343.876 202.001 343.843 201.987C343.81 201.974 343.775 201.967 343.74 201.967C343.705 201.967 343.67 201.974 343.637 201.987C343.604 202.001 343.575 202.021 343.55 202.046C343.5 202.097 343.473 202.165 343.473 202.237C343.473 202.308 343.5 202.376 343.55 202.427L346.31 205.185H343.201C343.131 205.186 343.063 205.215 343.013 205.265C342.963 205.315 342.935 205.383 342.933 205.453C342.933 205.525 342.962 205.593 343.012 205.643C343.062 205.693 343.13 205.722 343.201 205.722H346.31L343.55 208.485C343.5 208.536 343.473 208.604 343.473 208.676C343.473 208.747 343.5 208.815 343.55 208.866C343.601 208.914 343.669 208.941 343.74 208.941C343.811 208.941 343.879 208.914 343.93 208.866L346.685 206.103V209.209C346.685 209.281 346.713 209.349 346.764 209.399C346.814 209.449 346.882 209.478 346.953 209.478C347.024 209.478 347.092 209.449 347.142 209.399C347.193 209.349 347.221 209.281 347.221 209.209V206.103L349.981 208.866C350.033 208.914 350.101 208.941 350.171 208.941C350.242 208.941 350.31 208.914 350.362 208.866C350.411 208.815 350.439 208.747 350.439 208.676C350.439 208.604 350.411 208.536 350.362 208.485L347.602 205.722H350.705C350.776 205.722 350.844 205.693 350.894 205.643C350.944 205.593 350.973 205.525 350.973 205.453C350.968 205.385 350.938 205.321 350.889 205.274C350.839 205.227 350.773 205.201 350.705 205.201Z" fill="#2C85FB"/>
<path d="M361.959 205.201H358.856L361.616 202.443C361.666 202.392 361.693 202.324 361.693 202.253C361.693 202.182 361.666 202.113 361.616 202.062C361.591 202.037 361.562 202.017 361.529 202.003C361.497 201.99 361.461 201.983 361.426 201.983C361.391 201.983 361.356 201.99 361.323 202.003C361.29 202.017 361.261 202.037 361.236 202.062L358.476 204.826V201.713C358.476 201.642 358.448 201.574 358.397 201.524C358.347 201.473 358.279 201.445 358.208 201.445C358.137 201.446 358.07 201.475 358.02 201.525C357.97 201.575 357.941 201.643 357.94 201.713V204.826L355.185 202.046C355.16 202.021 355.131 202.001 355.098 201.987C355.065 201.974 355.03 201.967 354.995 201.967C354.959 201.967 354.924 201.974 354.892 201.987C354.859 202.001 354.829 202.021 354.805 202.046C354.755 202.097 354.727 202.165 354.727 202.237C354.727 202.308 354.755 202.376 354.805 202.427L357.565 205.185H354.456C354.386 205.186 354.318 205.215 354.268 205.265C354.218 205.315 354.19 205.383 354.188 205.453C354.188 205.525 354.216 205.593 354.267 205.643C354.317 205.693 354.385 205.722 354.456 205.722H357.565L354.805 208.485C354.755 208.536 354.727 208.604 354.727 208.676C354.727 208.747 354.755 208.815 354.805 208.866C354.856 208.914 354.924 208.941 354.995 208.941C355.065 208.941 355.133 208.914 355.185 208.866L357.94 206.103V209.209C357.94 209.281 357.968 209.349 358.018 209.399C358.069 209.449 358.137 209.478 358.208 209.478C358.279 209.478 358.347 209.449 358.397 209.399C358.448 209.349 358.476 209.281 358.476 209.209V206.103L361.236 208.866C361.287 208.914 361.355 208.941 361.426 208.941C361.497 208.941 361.565 208.914 361.616 208.866C361.666 208.815 361.693 208.747 361.693 208.676C361.693 208.604 361.666 208.536 361.616 208.485L358.856 205.722H361.959C362.03 205.722 362.099 205.693 362.149 205.643C362.199 205.593 362.227 205.525 362.227 205.453C362.223 205.385 362.193 205.321 362.143 205.274C362.094 205.227 362.028 205.201 361.959 205.201Z" fill="#2C85FB"/>
<path d="M373.214 205.201H370.111L372.871 202.443C372.921 202.392 372.948 202.324 372.948 202.253C372.948 202.182 372.921 202.113 372.871 202.062C372.846 202.037 372.817 202.017 372.784 202.003C372.751 201.99 372.716 201.983 372.681 201.983C372.646 201.983 372.611 201.99 372.578 202.003C372.545 202.017 372.516 202.037 372.491 202.062L369.731 204.826V201.713C369.731 201.642 369.702 201.574 369.652 201.524C369.602 201.473 369.534 201.445 369.463 201.445C369.392 201.446 369.325 201.475 369.275 201.525C369.225 201.575 369.196 201.643 369.195 201.713V204.826L366.44 202.046C366.415 202.021 366.385 202.001 366.353 201.987C366.32 201.974 366.285 201.967 366.25 201.967C366.214 201.967 366.179 201.974 366.147 201.987C366.114 202.001 366.084 202.021 366.059 202.046C366.01 202.097 365.982 202.165 365.982 202.237C365.982 202.308 366.01 202.376 366.059 202.427L368.82 205.185H365.711C365.64 205.186 365.573 205.215 365.523 205.265C365.473 205.315 365.444 205.383 365.443 205.453C365.443 205.525 365.471 205.593 365.522 205.643C365.572 205.693 365.64 205.722 365.711 205.722H368.82L366.059 208.485C366.01 208.536 365.982 208.604 365.982 208.676C365.982 208.747 366.01 208.815 366.059 208.866C366.111 208.914 366.179 208.941 366.25 208.941C366.32 208.941 366.388 208.914 366.44 208.866L369.195 206.103V209.209C369.195 209.281 369.223 209.349 369.273 209.399C369.323 209.449 369.392 209.478 369.463 209.478C369.534 209.478 369.602 209.449 369.652 209.399C369.702 209.349 369.731 209.281 369.731 209.209V206.103L372.491 208.866C372.542 208.914 372.61 208.941 372.681 208.941C372.752 208.941 372.82 208.914 372.871 208.866C372.921 208.815 372.948 208.747 372.948 208.676C372.948 208.604 372.921 208.536 372.871 208.485L370.111 205.722H373.214C373.285 205.722 373.353 205.693 373.404 205.643C373.454 205.593 373.482 205.525 373.482 205.453C373.478 205.385 373.448 205.321 373.398 205.274C373.348 205.227 373.283 205.201 373.214 205.201Z" fill="#2C85FB"/>
<path d="M384.469 205.201H381.366L384.126 202.443C384.175 202.392 384.203 202.324 384.203 202.253C384.203 202.182 384.175 202.113 384.126 202.062C384.101 202.037 384.071 202.017 384.039 202.003C384.006 201.99 383.971 201.983 383.936 201.983C383.9 201.983 383.865 201.99 383.833 202.003C383.8 202.017 383.77 202.037 383.746 202.062L380.985 204.826V201.713C380.985 201.642 380.957 201.574 380.907 201.524C380.857 201.473 380.789 201.445 380.717 201.445C380.647 201.446 380.579 201.475 380.529 201.525C380.48 201.575 380.451 201.643 380.449 201.713V204.826L377.695 202.046C377.67 202.021 377.64 202.001 377.608 201.987C377.575 201.974 377.54 201.967 377.504 201.967C377.469 201.967 377.434 201.974 377.401 201.987C377.369 202.001 377.339 202.021 377.314 202.046C377.265 202.097 377.237 202.165 377.237 202.237C377.237 202.308 377.265 202.376 377.314 202.427L380.074 205.185H376.966C376.895 205.186 376.828 205.215 376.778 205.265C376.728 205.315 376.699 205.383 376.698 205.453C376.698 205.525 376.726 205.593 376.776 205.643C376.827 205.693 376.895 205.722 376.966 205.722H380.074L377.314 208.485C377.265 208.536 377.237 208.604 377.237 208.676C377.237 208.747 377.265 208.815 377.314 208.866C377.366 208.914 377.434 208.941 377.504 208.941C377.575 208.941 377.643 208.914 377.695 208.866L380.449 206.103V209.209C380.449 209.281 380.478 209.349 380.528 209.399C380.578 209.449 380.646 209.478 380.717 209.478C380.789 209.478 380.857 209.449 380.907 209.399C380.957 209.349 380.985 209.281 380.985 209.209V206.103L383.746 208.866C383.797 208.914 383.865 208.941 383.936 208.941C384.006 208.941 384.074 208.914 384.126 208.866C384.175 208.815 384.203 208.747 384.203 208.676C384.203 208.604 384.175 208.536 384.126 208.485L381.366 205.722H384.469C384.54 205.722 384.608 205.693 384.659 205.643C384.709 205.593 384.737 205.525 384.737 205.453C384.733 205.385 384.703 205.321 384.653 205.274C384.603 205.227 384.537 205.201 384.469 205.201Z" fill="#2C85FB"/>
<path d="M395.724 205.201H392.621L395.381 202.443C395.43 202.392 395.458 202.324 395.458 202.253C395.458 202.182 395.43 202.113 395.381 202.062C395.356 202.037 395.326 202.017 395.294 202.003C395.261 201.99 395.226 201.983 395.19 201.983C395.155 201.983 395.12 201.99 395.087 202.003C395.055 202.017 395.025 202.037 395 202.062L392.24 204.826V201.713C392.24 201.642 392.212 201.574 392.162 201.524C392.111 201.473 392.043 201.445 391.972 201.445C391.902 201.446 391.834 201.475 391.784 201.525C391.734 201.575 391.706 201.643 391.704 201.713V204.826L388.949 202.046C388.925 202.021 388.895 202.001 388.862 201.987C388.83 201.974 388.795 201.967 388.759 201.967C388.724 201.967 388.689 201.974 388.656 201.987C388.624 202.001 388.594 202.021 388.569 202.046C388.52 202.097 388.492 202.165 388.492 202.237C388.492 202.308 388.52 202.376 388.569 202.427L391.329 205.185H388.221C388.15 205.186 388.083 205.215 388.033 205.265C387.983 205.315 387.954 205.383 387.953 205.453C387.953 205.525 387.981 205.593 388.031 205.643C388.081 205.693 388.15 205.722 388.221 205.722H391.329L388.569 208.485C388.52 208.536 388.492 208.604 388.492 208.676C388.492 208.747 388.52 208.815 388.569 208.866C388.621 208.914 388.689 208.941 388.759 208.941C388.83 208.941 388.898 208.914 388.949 208.866L391.704 206.103V209.209C391.704 209.281 391.732 209.349 391.783 209.399C391.833 209.449 391.901 209.478 391.972 209.478C392.043 209.478 392.111 209.449 392.162 209.399C392.212 209.349 392.24 209.281 392.24 209.209V206.103L395 208.866C395.052 208.914 395.12 208.941 395.19 208.941C395.261 208.941 395.329 208.914 395.381 208.866C395.43 208.815 395.458 208.747 395.458 208.676C395.458 208.604 395.43 208.536 395.381 208.485L392.621 205.722H395.724C395.795 205.722 395.863 205.693 395.913 205.643C395.964 205.593 395.992 205.525 395.992 205.453C395.988 205.385 395.958 205.321 395.908 205.274C395.858 205.227 395.792 205.201 395.724 205.201Z" fill="#2C85FB"/>
<path d="M406.979 205.201H403.876L406.636 202.443C406.685 202.392 406.713 202.324 406.713 202.253C406.713 202.182 406.685 202.113 406.636 202.062C406.611 202.037 406.581 202.017 406.548 202.003C406.516 201.99 406.481 201.983 406.445 201.983C406.41 201.983 406.375 201.99 406.342 202.003C406.31 202.017 406.28 202.037 406.255 202.062L403.495 204.826V201.713C403.495 201.642 403.467 201.574 403.417 201.524C403.366 201.473 403.298 201.445 403.227 201.445C403.156 201.446 403.089 201.475 403.039 201.525C402.989 201.575 402.96 201.643 402.959 201.713V204.826L400.204 202.046C400.179 202.021 400.15 202.001 400.117 201.987C400.085 201.974 400.049 201.967 400.014 201.967C399.979 201.967 399.944 201.974 399.911 201.987C399.878 202.001 399.849 202.021 399.824 202.046C399.774 202.097 399.747 202.165 399.747 202.237C399.747 202.308 399.774 202.376 399.824 202.427L402.584 205.185H399.475C399.405 205.186 399.337 205.215 399.287 205.265C399.238 205.315 399.209 205.383 399.208 205.453C399.208 205.525 399.236 205.593 399.286 205.643C399.336 205.693 399.404 205.722 399.475 205.722H402.584L399.824 208.485C399.774 208.536 399.747 208.604 399.747 208.676C399.747 208.747 399.774 208.815 399.824 208.866C399.875 208.914 399.943 208.941 400.014 208.941C400.085 208.941 400.153 208.914 400.204 208.866L402.959 206.103V209.209C402.959 209.281 402.987 209.349 403.038 209.399C403.088 209.449 403.156 209.478 403.227 209.478C403.298 209.478 403.366 209.449 403.417 209.399C403.467 209.349 403.495 209.281 403.495 209.209V206.103L406.255 208.866C406.307 208.914 406.375 208.941 406.445 208.941C406.516 208.941 406.584 208.914 406.636 208.866C406.685 208.815 406.713 208.747 406.713 208.676C406.713 208.604 406.685 208.536 406.636 208.485L403.876 205.722H406.979C407.05 205.722 407.118 205.693 407.168 205.643C407.218 205.593 407.247 205.525 407.247 205.453C407.243 205.385 407.213 205.321 407.163 205.274C407.113 205.227 407.047 205.201 406.979 205.201Z" fill="#2C85FB"/>
<path d="M493.26 270.477C493.245 269.828 493.164 269.183 493.019 268.551C492.536 266.737 491.448 264.542 489.658 263.995C487.81 263.428 486.025 262.673 484.331 261.741C484.01 255.989 485.328 250.103 483.892 244.528C483.356 242.489 482.471 240.535 482.236 238.448C481.941 235.851 482.648 233.082 481.614 230.689C480.799 228.8 479.009 227.469 477.085 226.772C475.161 226.074 473.087 225.887 471.045 225.699C468.473 225.489 460.144 224.502 457.239 226.804C457.039 226.96 456.859 227.14 456.703 227.341C456.639 227.429 456.582 227.522 456.532 227.62L456.505 227.663C456.447 227.775 456.398 227.891 456.36 228.011C456.32 228.143 456.289 228.278 456.269 228.414C456.269 228.457 456.269 228.5 456.269 228.543C456.269 228.586 456.269 228.73 456.269 228.827V228.972C456.269 229.069 456.269 229.165 456.269 229.267C456.269 229.369 456.269 229.342 456.269 229.38C456.307 229.863 456.376 230.346 456.376 230.823C456.382 231.061 456.361 231.299 456.312 231.531C456.134 232.164 455.831 232.755 455.422 233.27L455.326 233.41C455.267 233.495 455.208 233.576 455.154 233.662C455.101 233.748 455.058 233.812 455.015 233.887C454.972 233.962 454.929 234.01 454.892 234.08C454.84 234.169 454.794 234.26 454.752 234.354C454.752 234.408 454.694 234.456 454.672 234.509C454.605 234.655 454.551 234.805 454.511 234.96C454.386 235.426 454.375 235.916 454.479 236.388C454.624 236.989 454.872 237.562 455.213 238.078C455.347 238.298 455.492 238.512 455.642 238.727L456.017 239.237C455.947 239.735 455.91 240.237 455.905 240.739C455.905 242.42 456.286 244.078 457.02 245.589C457.753 247.1 458.82 248.425 460.139 249.464C460.351 251.73 460.328 254.012 460.069 256.273C460.021 256.746 459.962 257.223 459.898 257.695C459.833 258.168 459.785 258.479 459.721 258.871C458.936 258.983 458.137 258.923 457.379 258.693C457.029 258.537 456.671 258.399 456.307 258.28C454.747 257.889 453.155 259.445 451.612 258.972C451.612 259.048 451.569 259.117 451.542 259.187C451.22 258.987 450.85 258.877 450.47 258.871C449.554 258.828 448.809 258.162 448.144 257.534L446.102 255.608C445.969 255.49 445.851 255.357 445.749 255.211C445.639 255.002 445.556 254.781 445.502 254.551C445.159 253.44 444.328 252.555 443.524 251.712C443.372 251.52 443.17 251.374 442.94 251.289C442.852 251.275 442.761 251.275 442.672 251.289C442.618 251.214 442.559 251.142 442.496 251.074C442.357 250.914 442.208 250.764 442.051 250.623C441.075 249.722 440.979 248.949 440.132 247.94C439.393 246.978 438.724 245.965 438.128 244.909C438.058 244.345 437.961 243.766 437.844 243.181C437.573 241.842 437.18 240.53 436.67 239.264L435.598 236.887L435.475 237.01C434.698 235.851 433.867 235.218 433.122 235.368C431.873 235.626 431.257 238.051 431.455 241.222L431.884 244.442C431.884 244.522 431.921 244.603 431.943 244.683C431.866 245.065 431.826 245.453 431.825 245.842C431.825 246.293 432.243 246.626 432.463 247.028C432.814 247.573 433.001 248.209 432.999 248.858C432.972 249.089 432.902 249.309 432.891 249.534C432.921 250.038 433.096 250.523 433.395 250.929L436.075 255.436L436.611 256.381L436.643 256.424C436.812 256.753 437.059 257.037 437.361 257.25C437.466 258.379 437.765 259.481 438.245 260.507C438.337 260.711 438.438 260.904 438.546 261.097C439.266 262.283 440.114 263.386 441.075 264.387L442.351 265.819C443.61 267.225 444.87 268.636 446.236 269.935C446.726 270.456 447.317 270.871 447.973 271.153C448.294 271.282 448.644 271.323 448.986 271.273C449.329 271.223 449.652 271.084 449.924 270.869C449.924 271.534 449.924 272.199 449.924 272.865C450.123 272.877 450.315 272.942 450.48 273.054C450.646 273.165 450.778 273.319 450.865 273.499C450.951 273.678 450.988 273.878 450.971 274.077C450.955 274.276 450.885 274.467 450.77 274.63C449.645 277.522 448.509 280.441 446.805 283.033C448.007 283.746 449.123 284.598 450.127 285.571C450.779 286.294 451.359 287.08 451.858 287.916C451.907 288.313 451.944 288.705 451.966 289.096C452.362 295.492 449.891 301.84 447.678 307.936C447.04 309.664 446.344 311.472 446.397 313.27C445.977 313.529 445.576 313.818 445.197 314.133C445.636 315.282 445.465 316.307 445.416 317.535C445.4 318.272 445.25 319 444.972 319.682C444.739 320.155 444.481 320.615 444.2 321.061C442.812 323.513 442.506 326.427 442.228 329.228C442.061 330.918 442.715 332.984 441.949 334.497C440.625 337.094 439.451 339.863 439.269 342.75C439.263 343.399 439.18 344.046 439.023 344.676C438.856 345.213 438.562 345.669 438.412 346.194C438.257 346.899 438.221 347.624 438.304 348.341C438.406 350.913 438.025 353.481 437.179 355.912C436.509 357.828 435.769 359.877 436.295 361.847C435.002 363.207 434.203 364.962 434.028 366.832C434.014 367.31 433.956 367.786 433.856 368.254C433.692 368.732 433.477 369.191 433.213 369.622C432.134 371.589 431.629 373.82 431.755 376.061C430.147 378.245 429.343 380.938 428.866 383.616C428.39 386.294 428.18 389.019 427.57 391.665C426.755 395.163 425.281 398.699 424.992 402.284C423.255 403.395 422.505 405.546 422.173 407.58C421.84 409.614 421.787 411.749 420.935 413.627C420.495 414.604 419.863 415.478 419.445 416.477C419.151 417.271 418.936 418.092 418.802 418.929C418.544 420.238 418.319 421.698 418.635 422.953C418.181 423.435 417.65 423.839 417.065 424.15C417.151 423.817 417.22 423.484 417.279 423.146C415.897 424.402 413.388 423.962 412.284 425.47C411.953 425.956 411.824 426.552 411.924 427.132C412.024 427.712 412.345 428.23 412.82 428.577C413.166 428.787 413.539 428.948 413.93 429.054C416.609 429.913 419.364 430.777 422.119 430.32C422.445 430.285 422.76 430.185 423.046 430.025C423.404 429.761 423.699 429.42 423.909 429.027C424.322 428.373 424.734 427.718 425.142 427.063C426.129 427.358 427.133 427.593 428.148 427.766C428.25 428.625 428.325 429.483 428.363 430.342C428.899 430.449 429.617 430.481 429.869 429.982C429.945 429.794 429.976 429.59 429.96 429.387C429.96 429.006 430.013 428.501 430.046 427.986H430.153C431.788 428.052 433.415 427.723 434.896 427.026C434.322 422.272 436.214 417.625 437.854 413.128C439.585 408.396 441.07 403.577 442.565 398.758C443.637 395.367 444.821 392.083 445.872 388.687C447.194 384.394 448.521 380.101 449.854 375.809C450.433 373.92 451.017 372.053 451.682 370.175C453.081 366.374 454.741 362.675 456.65 359.105C457.186 358.091 457.722 357.087 458.161 356.035C458.697 354.753 459.078 353.412 459.506 352.086C460.441 349.367 461.565 346.717 462.872 344.155C462.91 344.086 462.936 344.021 462.974 343.957C463.408 345.733 463.842 347.536 464.131 349.323C464.523 351.514 464.554 353.754 464.223 355.955C463.965 357.452 463.478 358.933 463.537 360.452C463.617 362.55 464.737 364.455 465.289 366.477C465.645 367.991 465.846 369.537 465.889 371.092C466.039 373.507 467.347 376.216 466.425 378.454C463.558 385.542 464.946 393.548 463.312 400.991C462.47 404.811 459.892 408.401 460.096 412.307C460.239 415.08 460.482 417.845 460.825 420.603C460.907 421.473 461.134 422.324 461.495 423.119C461.708 423.538 461.954 423.94 462.229 424.321C461.993 424.413 461.795 424.654 461.623 425.164C461.184 426.505 461.623 428.169 462.813 428.92C463.298 429.18 463.821 429.361 464.362 429.457C465.091 429.664 465.845 429.769 466.602 429.768C466.838 429.755 467.072 429.726 467.304 429.682C468.133 430.03 468.979 430.335 469.839 430.594C469.839 430.814 469.882 431.034 469.909 431.254C469.91 431.369 469.936 431.482 469.984 431.587C470.032 431.691 470.101 431.785 470.188 431.86C470.321 431.923 470.469 431.949 470.616 431.936H473.527C473.527 431.694 473.527 431.447 473.527 431.206C473.86 431.241 474.196 431.205 474.515 431.102C474.833 430.998 475.126 430.829 475.376 430.605C475.633 430.276 475.816 429.895 475.912 429.489C476.705 426.795 477.493 424.1 478.275 421.402C479.213 418.421 479.604 415.294 479.427 412.173C478.393 402.284 480.665 392.362 479.926 382.446C479.481 376.486 479.787 370.494 480.837 364.61C481.078 363.279 481.373 361.927 481.48 360.602C481.716 358.101 481.426 355.574 481.603 353.09C481.662 352.22 481.78 351.356 481.887 350.493C482.622 345.131 483.006 339.726 483.04 334.314C483.023 332.521 482.912 330.73 482.707 328.949C483.266 328.806 483.773 328.509 484.17 328.09C484.647 327.468 484.524 326.593 484.519 325.799C484.519 323.899 485.317 322.107 485.96 320.315C486.786 317.843 487.462 315.324 487.986 312.771C488.54 310.713 488.842 308.596 488.887 306.466C488.887 306.251 488.876 306.036 488.855 305.822C489.056 305.682 489.225 305.498 489.348 305.285C489.487 304.971 489.574 304.635 489.605 304.292C489.798 302.924 489.996 301.551 490.189 300.177C490.332 299.193 490.473 298.211 490.612 297.231L492.317 285.324C492.461 284.289 492.611 283.258 492.756 282.228L493.201 279.148C493.249 278.783 493.303 278.418 493.34 278.075C494.648 275.886 493.399 272.967 493.26 270.477ZM479.041 315.056C478.409 313.554 477.819 312.014 477.97 310.393H477.911C478.052 309.895 478.027 309.364 477.841 308.88C477.675 308.489 477.385 308.156 477.208 307.764C477.018 307.286 476.92 306.776 476.919 306.262C476.786 302.998 477.043 299.73 477.685 296.528C477.755 296.152 477.83 295.771 477.9 295.396C478.125 295.266 478.33 295.105 478.511 294.918C478.793 294.597 479.026 294.235 479.202 293.845C479.808 292.627 480.36 291.388 480.869 290.127C481.035 289.719 481.276 289.247 481.689 289.145C481.603 292.284 481.925 295.487 480.649 298.32C480.407 298.777 480.227 299.264 480.113 299.769C479.995 300.569 480.328 301.379 480.21 302.173C480.151 302.586 479.974 302.967 479.904 303.375C479.851 303.575 479.852 303.786 479.907 303.986C479.961 304.185 480.068 304.367 480.215 304.513C480.286 304.562 480.364 304.602 480.446 304.631C480.413 304.845 480.387 305.065 480.365 305.274C480.322 305.714 480.301 306.128 480.274 306.385C480.151 307.698 480.102 309.016 480.129 310.334C480.129 311.756 480.183 313.178 480.162 314.627C480.181 315.043 480.112 315.458 479.958 315.845C479.852 316.045 479.714 316.226 479.551 316.382C479.395 315.899 479.224 315.475 479.041 315.056Z" fill="url(#paint0_linear_167_6276)"/>
<path d="M436.735 252.796C438.371 252.461 438.927 248.43 437.978 243.794C437.03 239.157 434.935 235.671 433.299 236.006C431.664 236.342 431.107 240.372 432.056 245.009C433.005 249.645 435.1 253.132 436.735 252.796Z" fill="#FBBEBE"/>
<path d="M461.709 425.266C461.27 426.597 461.709 428.26 462.899 428.984C463.381 429.242 463.9 429.423 464.437 429.521C465.164 429.727 465.916 429.83 466.672 429.827C467.599 429.784 468.489 429.419 469.416 429.29C469.523 429.263 469.636 429.279 469.732 429.333C469.779 429.383 469.813 429.443 469.834 429.508C469.854 429.573 469.86 429.641 469.85 429.709C469.86 430.236 469.899 430.763 469.968 431.286C469.969 431.401 469.994 431.515 470.042 431.62C470.09 431.724 470.16 431.817 470.247 431.893C470.38 431.955 470.528 431.981 470.675 431.968H473.58C473.646 429.413 473.367 426.861 472.75 424.38C472.709 424.191 472.637 424.009 472.535 423.844C472.289 423.574 471.965 423.386 471.608 423.307C470.898 423.011 470.131 422.878 469.362 422.916C468.424 423.039 467.642 423.645 466.843 424.15C466.045 424.654 464.957 425.1 463.987 424.842C463.017 424.584 462.208 423.774 461.709 425.266Z" fill="#3F3D56"/>
<path d="M419.059 422.91C418.242 423.786 417.241 424.468 416.127 424.906L415.634 425.142C415.566 425.168 415.508 425.215 415.468 425.277C415.459 425.318 415.458 425.362 415.468 425.403C415.477 425.445 415.495 425.484 415.522 425.518C415.932 426.153 416.538 426.637 417.248 426.896C417.958 427.154 418.733 427.174 419.455 426.951C419.774 426.871 420.07 426.716 420.318 426.5C420.727 426.015 420.961 425.406 420.983 424.772C421.145 424.118 421.117 423.431 420.902 422.792C420.157 421.113 419.884 421.875 419.059 422.91Z" fill="#FBBEBE"/>
<path d="M430.196 429.521C430.212 429.724 430.181 429.928 430.104 430.117C429.853 430.61 429.151 430.583 428.604 430.476C428.521 428.656 428.301 426.844 427.945 425.057C426.905 425.008 426.155 425.996 425.597 426.881L424.161 429.161C423.953 429.554 423.66 429.895 423.303 430.159C423.016 430.317 422.701 430.417 422.376 430.455C419.632 430.911 416.861 430.047 414.214 429.188C413.824 429.083 413.45 428.925 413.104 428.716C412.632 428.369 412.312 427.852 412.212 427.273C412.112 426.695 412.24 426.101 412.568 425.615C413.678 424.112 416.17 424.541 417.553 423.297C417.408 424.172 417.171 425.03 416.845 425.856C418.694 425.577 419.938 423.881 421.428 422.749C421.802 422.431 422.253 422.217 422.735 422.127C423.096 422.096 423.46 422.135 423.807 422.239C425.525 422.673 427.132 423.464 428.523 424.563C429.086 425.008 429.965 425.636 430.212 426.323C430.474 427.144 430.196 428.646 430.196 429.521Z" fill="#3F3D56"/>
<path d="M467.063 252.48C473.178 252.48 478.136 247.516 478.136 241.394C478.136 235.271 473.178 230.308 467.063 230.308C460.948 230.308 455.99 235.271 455.99 241.394C455.99 247.516 460.948 252.48 467.063 252.48Z" fill="#FBBEBE"/>
<path d="M488.876 306.847C488.831 308.966 488.531 311.072 487.981 313.119C487.457 315.662 486.78 318.17 485.955 320.632C485.317 322.418 484.519 324.211 484.524 326.105C484.524 326.893 484.653 327.768 484.17 328.391C483.741 328.828 483.2 329.138 482.606 329.287C482.309 329.365 482.035 329.513 481.806 329.717C481.577 329.921 481.4 330.176 481.287 330.462C480.784 329.709 480.407 328.879 480.172 328.004C479.211 325.057 478.318 322.093 477.493 319.113C477.417 318.941 477.385 318.754 477.398 318.567C477.411 318.38 477.469 318.199 477.568 318.04C477.704 317.921 477.862 317.832 478.034 317.777C478.583 317.553 479.087 317.229 479.519 316.822C479.721 316.642 479.888 316.425 480.012 316.183C480.167 315.799 480.239 315.385 480.221 314.971C480.221 313.549 480.221 312.132 480.183 310.71C480.161 309.397 480.211 308.084 480.333 306.777C480.333 306.519 480.381 306.106 480.424 305.666C480.505 304.824 480.665 303.847 481.121 303.52C481.802 303.064 483.838 303.675 484.61 303.783C485.939 303.965 487.29 304.18 488.587 304.432C488.775 305.223 488.872 306.033 488.876 306.847Z" fill="#3F3D56"/>
<path d="M444.168 253.805C443.739 254.664 442.71 255.077 441.917 255.619L439.2 257.486C439.018 257.65 438.805 257.775 438.574 257.855C438.343 257.934 438.098 257.966 437.854 257.948C437.633 257.866 437.431 257.741 437.259 257.579C437.086 257.418 436.948 257.224 436.852 257.009C436.854 256.994 436.854 256.98 436.852 256.966L436.289 256.021L433.61 251.525C433.312 251.122 433.138 250.641 433.111 250.14C433.111 249.91 433.192 249.695 433.213 249.464C433.22 248.816 433.034 248.181 432.677 247.64C432.463 247.237 432.034 246.905 432.045 246.454C432.024 245.862 432.126 245.272 432.345 244.721C432.626 244.211 433.029 243.78 433.519 243.465C433.77 243.283 434.028 243.111 434.296 242.929C434.438 242.831 434.596 242.759 434.762 242.714C435.207 242.623 435.646 242.993 436.096 243.009C438.031 244.308 438.776 246.765 440.298 248.536C441.156 249.545 441.241 250.317 442.212 251.219C442.367 251.358 442.517 251.509 442.662 251.664C442.853 251.874 443.016 252.108 443.144 252.362C443.321 252.823 444.387 253.365 444.168 253.805Z" fill="#3F3D56"/>
<path d="M463.172 252.485C463.971 254.175 464.592 256.032 464.362 257.889C464.315 258.392 464.155 258.877 463.896 259.311C463.124 260.496 461.505 260.711 460.096 260.781C459.799 260.756 459.5 260.79 459.216 260.883C458.933 260.975 458.671 261.123 458.445 261.317C458.257 261.591 458.165 261.92 458.183 262.252C458.202 262.584 458.33 262.901 458.547 263.153C459 263.637 459.562 264.005 460.187 264.226C462.416 265.208 464.823 266.018 467.245 265.793C468.371 265.685 469.464 265.358 470.584 265.192C471.805 265.059 473.033 264.991 474.261 264.988C475.719 264.934 477.171 264.789 478.623 264.644L482.471 264.263C482.682 264.266 482.886 264.192 483.045 264.054C483.329 263.721 482.964 263.233 482.611 262.981C480.569 261.468 477.969 260.427 476.806 258.152C476.271 257.078 476.104 255.801 475.708 254.642C475.311 253.483 474.679 252.437 474.432 251.256C474.301 250.221 474.242 249.177 474.255 248.133C474.269 247.081 473.886 246.062 473.184 245.279C472.417 244.565 471.308 244.383 470.268 244.34C467.706 244.227 464.978 244.839 463.161 246.647C462.674 247.135 462.256 247.72 461.752 248.16C461.248 248.6 460.562 248.729 460.894 249.309C461.227 249.888 461.881 250.248 462.234 250.757C462.592 251.307 462.906 251.885 463.172 252.485Z" fill="#FBBEBE"/>
<path d="M485.001 268.094C484.325 272.226 483.226 276.277 481.721 280.184C480.965 281.948 480.32 283.758 479.792 285.603C479.379 287.267 479.459 289.048 479.079 290.717C478.607 292.793 478.136 294.875 477.755 296.968C477.117 300.164 476.861 303.424 476.994 306.68C476.995 307.193 477.094 307.701 477.284 308.177C477.46 308.564 477.744 308.896 477.911 309.293C478.035 309.642 478.086 310.013 478.06 310.382C478.034 310.752 477.932 311.112 477.761 311.44C477.486 312.054 477.113 312.619 476.656 313.114C471.662 314.606 466.318 314.117 461.114 314.434C456.317 314.724 451.467 315.711 446.74 314.89C446.204 312.744 447.099 310.495 447.866 308.403C450.09 302.323 452.55 295.991 452.153 289.622C452.112 288.879 452.028 288.139 451.901 287.406C451.124 282.893 451.971 278.22 453.327 273.847C454.168 271.121 454.131 268.218 453.938 265.379C453.842 264.458 453.83 263.529 453.9 262.605C453.978 261.662 454.328 260.761 454.908 260.013C454.908 259.976 454.956 259.938 454.983 259.901C455.01 259.863 455.219 259.869 455.385 259.901C455.427 259.919 455.473 259.928 455.519 259.928C455.565 259.928 455.611 259.919 455.653 259.901L455.712 259.863C455.735 259.847 455.762 259.838 455.79 259.838C455.817 259.838 455.845 259.847 455.867 259.863C455.991 259.938 456.06 260.196 456.328 260.244C456.724 260.304 457.123 260.342 457.523 260.357C458.005 260.371 458.483 260.44 458.949 260.561H459.013C459.71 260.678 460.426 260.617 461.093 260.384C461.537 260.273 461.965 260.107 462.368 259.89C462.486 259.761 463.226 259.643 463.376 259.552C463.864 259.257 463.756 257.872 463.858 257.304C463.914 256.733 464.05 256.173 464.26 255.64C464.504 255.247 464.841 254.919 465.241 254.686C465.641 254.453 466.092 254.322 466.554 254.304C467.477 254.282 468.399 254.365 469.303 254.551C471.302 254.835 473.35 254.787 475.311 255.249C476.297 255.479 477.375 255.828 478.28 255.377C478.527 255.436 478.564 255.651 478.564 255.914C478.541 256.164 478.491 256.41 478.414 256.649C478.071 258.13 479.234 259.493 480.306 260.566C480.759 261.072 481.294 261.498 481.887 261.827C482.423 262.074 482.959 262.176 483.495 262.444C483.929 262.676 484.298 263.014 484.567 263.426C484.876 263.899 485.084 264.43 485.178 264.988C485.293 266.026 485.233 267.076 485.001 268.094Z" fill="#3F3D56"/>
<path opacity="0.1" d="M485.001 268.095C484.325 272.226 483.226 276.277 481.721 280.184C480.964 281.948 480.32 283.758 479.792 285.603C479.379 287.267 479.459 289.048 479.079 290.717C478.607 292.794 478.136 294.876 477.755 296.968C477.643 297.033 477.525 297.092 477.407 297.145C476.74 297.464 476.033 297.691 475.306 297.821C473.999 297.98 472.676 297.936 471.383 297.693L463.735 296.668C460.68 296.255 457.427 295.756 455.16 293.684C453.9 292.547 453.075 291.044 452.169 289.595C452.128 288.853 452.044 288.113 451.917 287.379C451.14 282.867 451.987 278.193 453.343 273.82C454.184 271.094 454.147 268.191 453.954 265.353C453.858 264.431 453.846 263.502 453.916 262.578C453.994 261.635 454.344 260.734 454.924 259.987C455.08 259.941 455.24 259.905 455.401 259.879C455.509 259.858 455.618 259.843 455.728 259.836H455.883C456.064 259.837 456.244 259.859 456.419 259.901C456.784 260.017 457.142 260.155 457.491 260.314H457.555C458.015 260.466 458.498 260.535 458.981 260.518C459.688 260.518 460.417 260.405 461.125 260.357C461.999 260.22 462.893 260.381 463.665 260.813C464.163 261.214 464.636 261.646 465.08 262.106C465.616 262.528 466.22 262.856 466.865 263.077C471.478 264.84 476.596 264.733 481.132 262.777C481.567 262.529 482.061 262.403 482.563 262.412C482.933 262.485 483.283 262.635 483.592 262.852C483.913 263.04 484.229 263.222 484.556 263.389C484.865 263.861 485.073 264.393 485.167 264.95C485.29 266 485.234 267.063 485.001 268.095Z" fill="black"/>
<path d="M489.669 264.542C487.535 263.89 485.485 262.989 483.559 261.859C483.25 261.643 482.9 261.494 482.53 261.419C482.028 261.413 481.533 261.539 481.094 261.784C476.561 263.74 471.444 263.847 466.833 262.085C466.189 261.861 465.586 261.533 465.048 261.113C464.603 260.655 464.13 260.223 463.633 259.82C461.87 258.677 459.431 260.019 457.459 259.284C457.109 259.127 456.751 258.989 456.387 258.871C454.828 258.479 453.241 260.035 451.708 259.563C451.138 261.115 450.716 262.717 450.449 264.349C450.231 266.223 450.115 268.107 450.101 269.994C450.101 271.126 450.047 272.258 450.101 273.391C450.289 273.422 450.47 273.491 450.63 273.596C450.791 273.7 450.928 273.837 451.033 273.997C451.103 274.184 451.132 274.384 451.117 274.583C451.103 274.782 451.045 274.976 450.947 275.151C449.827 278.032 448.691 280.946 446.992 283.527C448.189 284.241 449.301 285.091 450.304 286.059C452.18 288.045 453.102 290.83 455.128 292.665C457.411 294.731 460.664 295.235 463.703 295.643L471.351 296.668C472.646 296.91 473.97 296.956 475.279 296.802C476.005 296.669 476.71 296.44 477.375 296.12C477.809 295.938 478.205 295.676 478.543 295.348C478.826 295.026 479.059 294.665 479.234 294.274C479.84 293.062 480.392 291.822 480.901 290.567C481.078 290.121 481.346 289.601 481.828 289.563C484.669 286.998 487.349 284.369 490.189 281.804C491.331 280.857 492.354 279.776 493.239 278.585C494.648 276.497 493.367 273.541 493.239 271.019C493.223 270.374 493.142 269.732 492.997 269.103C492.536 267.273 491.454 265.084 489.669 264.542Z" fill="#2C85FB"/>
<path opacity="0.1" d="M444.168 253.805C443.739 254.664 442.71 255.077 441.917 255.619L439.2 257.486C439.018 257.65 438.805 257.775 438.574 257.854C438.343 257.934 438.098 257.965 437.854 257.948C437.633 257.866 437.431 257.741 437.258 257.579C437.086 257.418 436.948 257.224 436.852 257.009C436.852 256.885 436.852 256.751 436.852 256.622C436.831 256.188 436.89 255.753 437.024 255.34C437.29 254.733 437.702 254.202 438.224 253.794C439.233 252.838 440.433 252.106 441.745 251.648C441.95 251.568 442.172 251.546 442.388 251.584C442.472 251.605 442.551 251.64 442.624 251.686C442.816 251.895 442.978 252.13 443.107 252.383C443.321 252.823 444.387 253.365 444.168 253.805Z" fill="black"/>
<path d="M450.567 259.461C449.656 259.418 448.911 258.758 448.246 258.13L446.215 256.241C446.079 256.126 445.96 255.993 445.861 255.844C445.752 255.636 445.669 255.414 445.615 255.184C445.184 254.1 444.509 253.131 443.642 252.351C443.491 252.159 443.289 252.014 443.058 251.932C442.84 251.892 442.616 251.915 442.41 251.997C441.097 252.454 439.897 253.186 438.889 254.143C438.367 254.551 437.955 255.082 437.688 255.689C437.553 256.102 437.495 256.537 437.517 256.971C437.529 258.389 437.847 259.787 438.449 261.071C438.54 261.269 438.642 261.468 438.749 261.661C439.464 262.844 440.309 263.944 441.268 264.939L442.544 266.367C443.798 267.772 445.052 269.178 446.413 270.472C446.901 270.993 447.493 271.406 448.15 271.684C448.48 271.819 448.84 271.86 449.192 271.803C449.543 271.747 449.873 271.594 450.143 271.362C450.4 271.065 450.594 270.718 450.712 270.343C451.537 268.196 452.319 265.964 452.368 263.652C452.379 262.725 452.34 261.799 452.25 260.877C452.169 259.901 451.478 259.52 450.567 259.461Z" fill="#2C85FB"/>
<path d="M483.045 334.583C483.014 339.98 482.631 345.37 481.898 350.718C481.791 351.582 481.673 352.446 481.614 353.31C481.437 355.816 481.727 358.332 481.491 360.822C481.368 362.169 481.089 363.505 480.853 364.819C479.806 370.687 479.5 376.663 479.942 382.607C480.682 392.497 478.414 402.391 479.443 412.254C479.568 414.171 479.462 416.097 479.127 417.99C478.936 419.164 478.658 420.323 478.297 421.456C477.514 424.143 476.728 426.826 475.938 429.505C475.846 429.912 475.662 430.294 475.402 430.621C475.129 430.858 474.808 431.033 474.462 431.136C474.115 431.239 473.751 431.266 473.393 431.217C470.3 431.12 467.39 429.784 464.582 428.48C464.259 428.352 463.96 428.171 463.697 427.943C463.113 427.337 463.162 426.382 462.904 425.582C462.647 424.783 461.95 424.032 461.554 423.211C461.228 422.434 461.03 421.609 460.97 420.769C460.612 418.022 460.369 415.264 460.241 412.495C460.037 408.6 462.61 405.015 463.456 401.227C465.064 393.779 463.703 385.795 466.559 378.728C467.46 376.496 466.152 373.791 466.023 371.387C465.977 369.836 465.776 368.294 465.423 366.783C464.887 364.766 463.756 362.866 463.676 360.774C463.617 359.26 464.105 357.785 464.357 356.293C464.691 354.098 464.66 351.862 464.266 349.677C463.982 347.874 463.547 346.071 463.113 344.311L463.017 344.51C461.711 347.065 460.588 349.71 459.656 352.424C459.228 353.739 458.853 355.08 458.317 356.357C457.877 357.431 457.336 358.413 456.805 359.421C454.902 362.979 453.246 366.663 451.848 370.448C451.183 372.305 450.599 374.204 450.02 376.066L446.049 388.944C444.977 392.33 443.803 395.603 442.753 398.984C441.268 403.813 439.784 408.599 438.058 413.321C436.45 417.802 434.537 422.443 435.11 427.176C433.633 427.872 432.009 428.201 430.378 428.137C427.616 427.892 424.906 427.234 422.339 426.183C421.315 425.802 420.254 425.373 419.563 424.531C418.373 423.077 418.668 420.946 419.027 419.095C419.162 418.261 419.377 417.441 419.67 416.648C420.077 415.661 420.742 414.786 421.16 413.81C422.001 411.937 422.055 409.818 422.387 407.784C422.719 405.75 423.459 403.604 425.195 402.499C425.49 398.925 426.959 395.399 427.768 391.906C428.379 389.261 428.583 386.54 429.065 383.858C429.547 381.175 430.324 378.492 431.943 376.318C431.815 374.078 432.32 371.846 433.401 369.879C433.662 369.448 433.875 368.989 434.038 368.511C434.138 368.045 434.196 367.571 434.21 367.095C434.387 365.23 435.183 363.479 436.472 362.12C435.936 360.162 436.681 358.117 437.351 356.218C438.194 353.794 438.576 351.233 438.476 348.668C438.393 347.952 438.427 347.227 438.578 346.522C438.728 345.985 439.023 345.529 439.194 345.014C439.347 344.383 439.428 343.737 439.435 343.088C439.644 340.185 440.818 337.448 442.115 334.856C442.887 333.343 442.233 331.288 442.394 329.603C442.672 326.802 442.978 323.905 444.366 321.463C444.623 321.002 444.902 320.562 445.132 320.084C445.412 319.402 445.563 318.675 445.577 317.938C445.625 316.709 445.797 315.69 445.358 314.547C448.225 312.159 452.137 311.488 455.867 311.327C459.598 311.166 463.371 311.504 467.02 310.71C468.092 310.469 469.164 310.136 470.295 309.975C472.862 309.599 475.467 310.184 478.002 310.764C477.825 312.373 478.414 313.919 479.074 315.416C481.647 321.48 482.997 327.994 483.045 334.583Z" fill="#33313F"/>
<path opacity="0.1" d="M470.424 335.812L464.266 349.677C463.982 347.874 463.547 346.071 463.113 344.311L463.017 344.51V344.22L466.372 336.831L470.424 335.812Z" fill="black"/>
<path opacity="0.1" d="M488.876 306.847C488.521 307.113 488.097 307.271 487.654 307.303C486.975 307.327 486.297 307.234 485.65 307.029L480.826 305.822C480.675 305.785 480.528 305.732 480.387 305.666C480.467 304.824 480.628 303.847 481.083 303.52C481.764 303.064 483.801 303.675 484.572 303.783C485.902 303.965 487.252 304.18 488.549 304.432C488.75 305.222 488.86 306.032 488.876 306.847Z" fill="black"/>
<path d="M492.955 274.92C493.056 275.365 493.201 275.805 493.287 276.256C493.431 277.362 493.393 278.484 493.174 279.577L492.735 282.647L492.295 285.732L490.596 297.607L490.178 300.547L489.589 304.652C489.561 304.994 489.474 305.328 489.332 305.639C489.156 305.931 488.911 306.174 488.618 306.348C488.325 306.521 487.994 306.619 487.654 306.632C486.975 306.654 486.298 306.561 485.65 306.358L480.826 305.146C480.615 305.108 480.414 305.026 480.237 304.904C480.089 304.76 479.983 304.579 479.928 304.38C479.874 304.181 479.873 303.971 479.926 303.772C479.995 303.364 480.172 302.983 480.231 302.575C480.349 301.781 480.017 300.966 480.135 300.177C480.25 299.675 480.431 299.189 480.671 298.733C482.279 295.176 481.346 291.023 481.893 287.159C482.385 284.119 483.667 281.261 485.612 278.874C486.812 277.368 488.191 276.013 489.717 274.839C490.318 274.372 491.272 273.412 492.027 273.229C492.997 273.026 492.794 274.244 492.955 274.92Z" fill="#2C85FB"/>
<path d="M456.452 228.698C456.098 229.825 456.65 231.065 456.398 232.213C456.125 233.479 454.935 234.359 454.597 235.631C454.061 237.568 455.701 239.333 456.902 240.943C461.35 246.921 460.766 255.195 459.244 262.487C458.019 268.338 456.325 274.08 454.179 279.658C453.509 281.391 452.77 283.151 451.451 284.45C453.917 283.741 456.537 283.028 459.008 283.714C462.138 284.584 464.839 287.626 468.012 286.934C469.92 286.51 471.26 284.814 472.975 283.875C476.19 282.142 480.065 283.232 483.651 283.79C484.423 283.972 485.232 283.931 485.982 283.672C486.555 283.363 487.042 282.914 487.397 282.368C488.997 280.312 489.955 277.83 490.151 275.231C490.236 273.937 490.046 272.64 489.592 271.425C489.138 270.211 488.432 269.106 487.52 268.186C486.759 267.467 485.848 266.887 485.264 266.039C484.696 265.049 484.391 263.929 484.379 262.788C483.956 256.885 485.392 250.859 483.913 245.15C483.377 243.116 482.504 241.169 482.268 239.087C481.973 236.495 482.675 233.721 481.646 231.349C480.837 229.466 479.052 228.13 477.128 227.443C475.204 226.756 473.146 226.563 471.104 226.37C468.167 226.123 457.679 224.862 456.452 228.698Z" fill="#33313F"/>
<g opacity="0.1">
<path opacity="0.1" d="M459.244 262.487C458.025 268.313 456.34 274.032 454.206 279.588C454.576 278.853 454.886 278.08 455.181 277.313C457.33 271.736 459.024 265.993 460.246 260.142C461.773 252.845 462.357 244.581 457.909 238.598C456.837 237.171 455.46 235.626 455.508 233.951C455.112 234.458 454.804 235.027 454.597 235.636C454.061 237.573 455.701 239.339 456.902 240.948C461.35 246.921 460.766 255.195 459.244 262.487Z" fill="black"/>
<path opacity="0.1" d="M456.462 231.671C456.892 231.136 457.213 230.522 457.405 229.863C457.488 229.066 457.467 228.261 457.341 227.469C456.928 227.781 456.618 228.209 456.451 228.698C456.135 229.648 456.5 230.678 456.462 231.671Z" fill="black"/>
<path opacity="0.1" d="M488.404 280.007C488.05 280.552 487.563 280.998 486.989 281.305C486.24 281.57 485.43 281.611 484.658 281.423C481.073 280.887 477.155 279.781 473.982 281.514C472.262 282.448 470.927 284.144 469.014 284.573C465.847 285.281 463.145 282.239 460.016 281.353C457.797 280.736 455.46 281.246 453.225 281.89C452.781 282.838 452.181 283.705 451.451 284.455C453.917 283.747 456.537 283.033 459.008 283.72C462.138 284.589 464.839 287.631 468.012 286.939C469.92 286.515 471.26 284.82 472.975 283.881C476.19 282.148 480.065 283.237 483.651 283.795C484.423 283.977 485.232 283.936 485.982 283.677C486.555 283.368 487.042 282.92 487.397 282.373C488.368 281.09 489.118 279.654 489.616 278.123C489.257 278.779 488.853 279.409 488.404 280.007Z" fill="black"/>
</g>
</g>
<defs>
<linearGradient id="paint0_linear_167_6276" x1="411.925" y1="328.616" x2="493.925" y2="328.616" gradientUnits="userSpaceOnUse">
<stop stop-color="#808080" stop-opacity="0.25"/>
<stop offset="0.54" stop-color="#808080" stop-opacity="0.12"/>
<stop offset="1" stop-color="#808080" stop-opacity="0.1"/>
</linearGradient>
<clipPath id="clip0_167_6276">
<rect width="625" height="432" fill="white"/>
</clipPath>
</defs>
</svg>
