<svg width="498" height="346" viewBox="0 0 498 346" fill="none" xmlns="http://www.w3.org/2000/svg">
<g clip-path="url(#clip0_167_6247)">
<path d="M99.2232 346C154.023 346 198.446 342.631 198.446 338.475C198.446 334.318 154.023 330.949 99.2232 330.949C44.4237 330.949 0 334.318 0 338.475C0 342.631 44.4237 346 99.2232 346Z" fill="#E6E6E6"/>
<path d="M75.8445 76.7713C93.1123 69.437 114.62 74.084 135.624 77.3091C135.819 73.4034 138.189 68.65 135.707 65.9252C132.692 62.6148 132.969 59.1364 134.784 55.6381C139.423 46.6923 132.776 37.1734 126.064 29.2586C124.552 27.4787 122.64 26.0802 120.484 25.1767C118.328 24.2732 115.99 23.8901 113.658 24.0587L101.225 24.9455C98.1999 25.1613 95.3127 26.2946 92.95 28.1938C90.5872 30.093 88.8617 32.6675 88.0042 35.5727C85.0355 39.6046 83.4466 43.6253 84.447 47.625C80.0004 50.6595 79.2533 54.3225 81.2514 58.4518C82.9457 61.0518 82.9277 63.5826 81.1743 66.0434C78.8716 69.1807 77.108 72.679 75.9556 76.3947L75.8445 76.7713Z" fill="#2F2E41"/>
<path d="M486.199 299.111H134.26C131.13 299.111 128.128 297.87 125.915 295.66C123.702 293.45 122.459 290.453 122.459 287.327C250.037 272.521 375.217 272.521 498 287.327C498 290.453 496.757 293.45 494.544 295.66C492.331 297.87 489.329 299.111 486.199 299.111Z" fill="#2F2E41"/>
<path d="M498 288.02L122.459 287.327L165.983 214.196L166.191 213.849V52.6755C166.191 50.7192 166.577 48.782 167.326 46.9746C168.076 45.1672 169.175 43.5249 170.56 42.1416C171.945 40.7583 173.59 39.661 175.4 38.9125C177.21 38.1639 179.15 37.7787 181.109 37.7789H437.268C439.227 37.7787 441.167 38.1639 442.977 38.9125C444.787 39.661 446.431 40.7583 447.816 42.1416C449.202 43.5249 450.301 45.1672 451.05 46.9746C451.8 48.782 452.186 50.7192 452.185 52.6755V214.958L498 288.02Z" fill="#3F3D56"/>
<path d="M180.769 48.1767C179.48 48.1781 178.245 48.6898 177.334 49.5995C176.423 50.5092 175.911 51.7425 175.909 53.029V199.985C175.911 201.272 176.423 202.505 177.334 203.415C178.245 204.324 179.48 204.836 180.769 204.838H439.691C440.979 204.836 442.214 204.324 443.125 203.415C444.036 202.505 444.548 201.272 444.55 199.985V53.029C444.548 51.7426 444.036 50.5092 443.125 49.5996C442.214 48.6899 440.979 48.1782 439.691 48.1767H180.769Z" fill="white"/>
<path d="M181.854 224.247C181.456 224.248 181.066 224.362 180.731 224.576C180.395 224.791 180.129 225.097 179.962 225.457L166.551 254.571C166.405 254.888 166.341 255.237 166.365 255.584C166.389 255.932 166.5 256.269 166.689 256.562C166.877 256.856 167.137 257.098 167.443 257.265C167.749 257.432 168.093 257.52 168.442 257.52H450.47C450.825 257.52 451.174 257.429 451.484 257.257C451.794 257.084 452.055 256.835 452.241 256.534C452.428 256.232 452.534 255.888 452.55 255.534C452.566 255.18 452.491 254.827 452.332 254.51L437.754 225.396C437.583 225.05 437.317 224.759 436.988 224.556C436.659 224.353 436.279 224.246 435.892 224.247H181.854Z" fill="#2F2E41"/>
<path d="M309.188 45.7505C310.913 45.7505 312.312 44.354 312.312 42.6312C312.312 40.9084 310.913 39.5118 309.188 39.5118C307.463 39.5118 306.064 40.9084 306.064 42.6312C306.064 44.354 307.463 45.7505 309.188 45.7505Z" fill="white"/>
<path d="M281.467 263.066C281.01 263.066 280.565 263.217 280.201 263.495C279.838 263.773 279.576 264.163 279.457 264.604L276.093 277.082C276.01 277.39 275.999 277.713 276.061 278.026C276.123 278.339 276.256 278.634 276.45 278.887C276.645 279.141 276.895 279.346 277.182 279.487C277.468 279.629 277.784 279.702 278.103 279.702H342.08C342.412 279.702 342.739 279.623 343.034 279.471C343.329 279.319 343.583 279.099 343.776 278.829C343.968 278.559 344.093 278.246 344.141 277.918C344.188 277.59 344.156 277.255 344.047 276.942L339.722 264.465C339.58 264.056 339.314 263.702 338.962 263.451C338.609 263.201 338.187 263.066 337.754 263.066H281.467Z" fill="#2F2E41"/>
<path d="M452.185 211.423V214.195H165.983L166.198 213.849V211.423H452.185Z" fill="#2F2E41"/>
<path d="M444.203 97.0466C471.039 97.0466 492.794 75.322 492.794 48.5233C492.794 21.7246 471.039 0 444.203 0C417.366 0 395.611 21.7246 395.611 48.5233C395.611 75.322 417.366 97.0466 444.203 97.0466Z" fill="#2C85FB"/>
<path d="M464.333 69.6656H424.072C423.336 69.6648 422.63 69.3725 422.109 68.8526C421.589 68.3328 421.296 67.628 421.295 66.8928V42.6312C421.296 41.896 421.589 41.1912 422.109 40.6714C422.63 40.1516 423.336 39.8592 424.072 39.8584H464.333C465.069 39.8592 465.775 40.1516 466.296 40.6714C466.816 41.1912 467.109 41.896 467.11 42.6312V66.8928C467.109 67.628 466.816 68.3328 466.296 68.8526C465.775 69.3725 465.069 69.6648 464.333 69.6656ZM424.072 42.6312V66.8928H464.335L464.333 42.6312L424.072 42.6312Z" fill="white"/>
<path d="M456.697 42.6312H431.708V31.5401C431.708 23.5069 436.963 17.6763 444.202 17.6763C451.442 17.6763 456.697 23.5069 456.697 31.5401L456.697 42.6312ZM434.484 39.8584H453.921V31.5401C453.921 25.01 449.924 20.4491 444.202 20.4491C438.48 20.4491 434.484 25.01 434.484 31.5401L434.484 39.8584Z" fill="white"/>
<path d="M444.202 56.8415C445.736 56.8415 446.979 55.6001 446.979 54.0688C446.979 52.5374 445.736 51.296 444.202 51.296C442.669 51.296 441.426 52.5374 441.426 54.0688C441.426 55.6001 442.669 56.8415 444.202 56.8415Z" fill="white"/>
<path d="M410.282 154.992H210.177C209.195 154.99 208.253 154.6 207.558 153.906C206.864 153.213 206.473 152.272 206.472 151.291V101.723C206.473 100.742 206.864 99.8016 207.558 99.1079C208.253 98.4142 209.195 98.0239 210.177 98.0228H410.282C411.264 98.0239 412.206 98.4142 412.901 99.1079C413.595 99.8016 413.986 100.742 413.987 101.723V151.291C413.986 152.272 413.595 153.213 412.901 153.906C412.206 154.6 411.264 154.99 410.282 154.992ZM210.177 99.503C209.588 99.5036 209.023 99.7377 208.606 100.154C208.189 100.57 207.955 101.135 207.954 101.723V151.291C207.955 151.88 208.189 152.444 208.606 152.86C209.023 153.277 209.588 153.511 210.177 153.511H410.282C410.871 153.511 411.436 153.277 411.853 152.86C412.27 152.444 412.504 151.88 412.505 151.291V101.723C412.504 101.135 412.27 100.57 411.853 100.154C411.436 99.7377 410.871 99.5036 410.282 99.5029L210.177 99.503Z" fill="#E6E6E6"/>
<path d="M241.27 139.679C249.606 139.679 256.364 132.93 256.364 124.605C256.364 116.28 249.606 109.532 241.27 109.532C232.933 109.532 226.175 116.28 226.175 124.605C226.175 132.93 232.933 139.679 241.27 139.679Z" fill="#E6E6E6"/>
<path d="M276.131 114.556C275.801 114.556 275.473 114.62 275.167 114.746C274.862 114.872 274.584 115.057 274.35 115.291C274.116 115.524 273.93 115.801 273.803 116.106C273.677 116.411 273.612 116.738 273.612 117.068C273.612 117.399 273.677 117.726 273.803 118.031C273.93 118.336 274.116 118.613 274.35 118.846C274.584 119.08 274.862 119.265 275.167 119.391C275.473 119.517 275.801 119.581 276.131 119.581H394.733C395.4 119.581 396.04 119.316 396.512 118.845C396.984 118.374 397.249 117.735 397.249 117.068C397.249 116.402 396.984 115.763 396.512 115.292C396.04 114.821 395.4 114.556 394.733 114.556H276.131Z" fill="#E6E6E6"/>
<path d="M276.131 129.63C275.464 129.63 274.824 129.894 274.352 130.366C273.881 130.837 273.615 131.476 273.615 132.142C273.615 132.808 273.881 133.447 274.352 133.918C274.824 134.39 275.464 134.654 276.131 134.654H327.166C327.833 134.654 328.473 134.39 328.945 133.918C329.417 133.447 329.682 132.808 329.682 132.142C329.682 131.476 329.417 130.837 328.945 130.366C328.473 129.894 327.833 129.63 327.166 129.63H276.131Z" fill="#E6E6E6"/>
<path d="M165.491 130.646L128.5 150.285L128.031 133.919C140.105 131.906 151.592 128.402 162.213 122.697L166.082 113.152C166.503 112.112 167.188 111.2 168.07 110.504C168.951 109.808 169.999 109.353 171.11 109.184C172.22 109.015 173.356 109.136 174.405 109.538C175.455 109.939 176.381 110.606 177.094 111.473C178.138 112.742 178.66 114.359 178.554 115.997C178.448 117.635 177.722 119.172 176.524 120.296L165.491 130.646Z" fill="#FFB8B8"/>
<path d="M75.1071 244.032C74.8372 243.043 74.7799 242.009 74.9389 240.997C75.098 239.985 75.4697 239.018 76.0298 238.16L84.1556 225.707C86.0775 222.761 89.0266 220.634 92.4307 219.737C95.8347 218.84 99.451 219.238 102.578 220.853C99.1628 226.658 99.6389 231.751 103.757 236.176C97.3639 239.293 91.455 243.316 86.2135 248.12C85.2567 248.771 84.1578 249.185 83.0084 249.326C81.859 249.467 80.6924 249.333 79.6058 248.933C78.5192 248.533 77.544 247.879 76.7615 247.027C75.9789 246.174 75.4117 245.147 75.1071 244.032Z" fill="#2F2E41"/>
<path d="M167.175 227.749C165.946 229.795 164.21 231.492 162.135 232.676C160.059 233.859 157.714 234.491 155.325 234.509L101.342 234.917L99.0007 221.357L122.881 214.343L102.747 198.913L124.754 173.196L164.726 210.399C167.062 212.574 168.58 215.483 169.026 218.641C169.472 221.799 168.818 225.014 167.175 227.749Z" fill="#2F2E41"/>
<path d="M92.9134 320.485H80.271C68.9199 242.787 57.3656 164.871 91.5087 135.789L131.777 142.336L126.627 176.469L104.151 202.186L92.9134 320.485Z" fill="#2F2E41"/>
<path d="M104.027 338.086C103.037 338.355 102.002 338.413 100.988 338.254C99.9747 338.095 99.0064 337.724 98.1469 337.165L84.4199 335.322C81.4702 333.403 79.3395 330.458 78.4412 327.059C77.543 323.66 77.9412 320.049 79.5586 316.926C85.3718 320.336 90.4713 319.86 94.9027 315.747C98.0338 322.061 103.193 321.676 108.12 326.995C108.772 327.95 109.187 329.048 109.328 330.195C109.47 331.343 109.335 332.508 108.935 333.593C108.534 334.678 107.88 335.652 107.026 336.434C106.173 337.215 105.144 337.782 104.027 338.086Z" fill="#2F2E41"/>
<path d="M122.881 83.8877L99.4688 78.2767C103.357 70.3287 103.677 61.4849 101.81 52.092L117.73 51.6245C118.229 63.3047 119.738 74.2171 122.881 83.8877Z" fill="#FFB8B8"/>
<path d="M129.315 156.414C112.272 168.012 100.23 156.811 91.0406 139.53C92.3175 128.956 90.2499 116.301 86.4206 102.551C84.7175 96.4866 85.3534 90.0047 88.2025 84.3853C91.0516 78.7658 95.907 74.4173 101.81 72.1981L121.944 80.6146C139.041 94.5306 142.406 109.604 135.991 125.503L129.315 156.414Z" fill="#2C85FB"/>
<path d="M80.2712 95.5773L61.5416 105.397L94.7866 125.035L99.4124 136.429C99.7211 137.19 99.8715 138.005 99.8544 138.826C99.8373 139.646 99.6531 140.455 99.3129 141.202C98.9727 141.949 98.4837 142.619 97.8758 143.171C97.2678 143.723 96.5536 144.146 95.7767 144.413C94.8936 144.717 93.952 144.813 93.0256 144.693C92.0992 144.573 91.2132 144.241 90.437 143.722C89.6607 143.203 89.0154 142.511 88.5514 141.702C88.0874 140.892 87.8174 139.986 87.7626 139.055L87.2948 131.114L45.0409 117.189C43.6172 116.72 42.3192 115.934 41.245 114.889C40.1708 113.845 39.3487 112.57 38.8409 111.162C38.1007 109.109 38.063 106.868 38.7338 104.791C39.4045 102.715 40.7458 100.918 42.5477 99.684L76.5253 76.4064L80.2712 95.5773Z" fill="#FFB8B8"/>
<path d="M99.0007 97.4476C91.1893 94.0292 84.0862 97.7426 75.1205 100.721L73.7158 75.9388C82.6184 71.2005 91.1063 69.923 99.0007 73.6009L99.0007 97.4476Z" fill="#2C85FB"/>
<path d="M108.345 63.8998C116.6 63.8998 123.292 57.2169 123.292 48.9731C123.292 40.7293 116.6 34.0464 108.345 34.0464C100.089 34.0464 93.3972 40.7293 93.3972 48.9731C93.3972 57.2169 100.089 63.8998 108.345 63.8998Z" fill="#FFB8B8"/>
<path d="M126.227 47.0897C111.428 48.5372 100.151 46.1202 92.9434 39.2382V33.6959H124.971L126.227 47.0897Z" fill="#2F2E41"/>
</g>
<defs>
<clipPath id="clip0_167_6247">
<rect width="498" height="346" fill="white"/>
</clipPath>
</defs>
</svg>
