<svg width="415" height="431" viewBox="0 0 415 431" fill="none" xmlns="http://www.w3.org/2000/svg">
<path d="M267.726 403.242C269.444 403.812 268.183 405.852 267.973 407.669C267.763 409.486 266.319 410.901 264.517 411.055L202.901 416.326C197.107 416.823 191.278 415.977 185.856 413.855L156.701 402.447C151.164 400.281 146.356 394.378 147.557 388.497L156.133 346.493L225.819 344.018L233.966 384.336C235.146 390.174 239.329 394.924 244.925 396.781L267.726 403.241V403.242Z" fill="#97A6B7"/>
<path d="M266.051 401.03C267.767 401.592 268.849 403.285 268.639 405.078C268.429 406.871 266.987 408.271 265.188 408.423L203.634 413.627C197.847 414.117 192.023 413.281 186.606 411.187L157.479 399.924C151.947 397.785 148.772 391.959 149.973 386.151L158.541 344.676L226.528 342.23L234.667 382.042C235.845 387.807 240.025 392.497 245.615 394.33L266.051 401.03Z" fill="url(#paint0_linear_166_6139)"/>
<path d="M13.7387 370.817C6.18096 371.267 0 366.365 0 359.886V126.376C0 119.898 6.18256 114.895 13.7387 115.222L363.218 130.364C368.767 130.604 373.259 135.282 373.259 140.792V339.392C373.259 344.902 368.767 349.653 363.218 349.983L13.7387 370.817Z" fill="url(#paint1_linear_166_6139)"/>
<path d="M16.8797 370.817C9.32195 371.267 3.14099 366.365 3.14099 359.886V126.376C3.14099 119.898 9.32355 114.895 16.8797 115.222L366.359 130.364C371.908 130.604 376.4 135.282 376.4 140.792V339.392C376.4 344.902 371.908 349.653 366.359 349.983L16.8797 370.817Z" fill="url(#paint2_linear_166_6139)"/>
<g style="mix-blend-mode:multiply" opacity="0.3">
<path d="M371.738 140.611V294.247V339.646C371.738 342.603 369.334 345.137 366.359 345.308L16.8796 365.377C12.839 365.609 9.55566 362.993 9.55566 359.534V308.234V126.625C9.55566 123.165 12.8407 120.495 16.8796 120.661L366.359 135.039C369.334 135.16 371.738 137.656 371.738 140.613V140.611Z" fill="#D8DEE8"/>
</g>
<path d="M16.8796 345.54C15.3076 345.619 14.0253 344.586 14.0253 343.242V126.797C14.0253 125.453 15.306 124.407 16.8796 124.47L366.359 138.311C367.518 138.357 368.461 139.334 368.461 140.487V326.067C368.461 327.222 367.518 328.206 366.359 328.264L16.8796 345.54Z" fill="url(#paint3_linear_166_6139)"/>
<g style="mix-blend-mode:soft-light" opacity="0.6">
<path d="M376.4 335.86V339.392C376.4 344.902 371.908 349.653 366.359 349.983L16.8797 370.817C9.32195 371.267 3.14099 366.365 3.14099 359.886V126.376C3.14099 119.898 9.32355 114.895 16.8797 115.222L36.572 116.075C39.0645 126.216 43.4461 132.538 47.7877 136.705C78.3643 166.052 144.919 125.083 170.917 154.872C187.496 173.868 167.179 198.257 184.542 218.455C207.86 245.582 254.702 213.456 287.99 239.649C321.008 265.631 300.472 317.341 329.874 335.529C339.007 341.178 353.194 343.735 376.398 335.86H376.4Z" fill="white"/>
</g>
<path d="M191.656 316.799C184.537 320.793 177.263 324.513 169.817 327.845C161.641 329.473 153.631 332.37 145.641 335.125C137.355 328.927 122.444 327.054 113.457 324.981C105.821 323.218 102.894 319.967 100.192 318.87C71.5925 307.249 59.9638 313.115 52.984 303.623C45.2806 293.146 57.2471 282.999 49.4684 271.158C40.6845 257.787 19.5274 261.748 14.0428 247.236C13.1031 244.748 12.2034 242.166 12.3538 238.622C12.722 229.873 19.553 224.981 14.9329 217.082C5.6478 201.204 7.4744 180.873 25.1784 174.097C42.6503 167.41 64.9409 189.532 74.8935 229.908C85.2447 257.814 90.5516 259.907 104.383 262.42C114.072 264.181 141.504 262.539 146.422 279.013C151.34 295.488 158.144 309.058 170.417 307.269C179.855 305.892 186.895 311.319 191.656 316.799Z" fill="url(#paint4_linear_166_6139)"/>
<g style="mix-blend-mode:soft-light" opacity="0.5">
<g style="mix-blend-mode:soft-light" opacity="0.5">
<path d="M190.643 344.06L190.331 344.7C186.78 343.008 183.22 341.253 179.754 339.486C154.084 326.402 130.676 311.21 110.178 294.333C92.8104 280.033 77.2868 264.327 64.0364 247.649C53.381 234.237 44.1296 220.127 36.543 205.711C31.2105 195.577 26.7473 185.397 23.2798 175.456C22.6747 173.724 22.1528 171.91 21.6469 170.155C20.973 167.818 20.2766 165.403 19.3817 163.16L20.0061 162.856C20.9138 165.129 21.6149 167.562 22.2937 169.914C22.7964 171.659 23.3167 173.463 23.9154 175.177C27.3717 185.088 31.8221 195.238 37.1402 205.343C44.7075 219.723 53.9365 233.798 64.5679 247.18C77.7911 263.822 93.2843 279.498 110.619 293.77C131.081 310.618 154.452 325.784 180.082 338.849C183.545 340.613 187.099 342.366 190.644 344.057L190.643 344.06Z" fill="#FCFDFE"/>
</g>
<g style="mix-blend-mode:soft-light" opacity="0.5">
<path d="M81.5355 266.72L81.0536 267.242C60.8779 247.138 11.8544 243.326 11.3613 243.29L11.4526 242.59C11.9472 242.627 61.1964 246.455 81.5355 266.72Z" fill="#FCFDFE"/>
</g>
<g style="mix-blend-mode:soft-light" opacity="0.5">
<path d="M143.047 317.472L142.623 318.044C127.268 306.161 126.045 266.824 126.035 266.429L126.707 266.363C126.718 266.755 127.93 305.775 143.047 317.472Z" fill="#FCFDFE"/>
</g>
<g style="mix-blend-mode:soft-light" opacity="0.5">
<path d="M152.369 323.391L152.044 324.025C140.742 318.329 122.002 317.061 99.2795 320.455C98.1365 320.626 98.1365 320.626 98.0244 320.57L98.3414 319.931L98.1829 320.25L98.2181 319.901C98.295 319.899 98.7256 319.834 99.2267 319.76C122.079 316.347 140.952 317.636 152.368 323.389L152.369 323.391Z" fill="#FCFDFE"/>
</g>
<g style="mix-blend-mode:soft-light" opacity="0.5">
<path d="M184.211 340.872L183.73 341.396C173.763 331.55 176.185 309.633 176.211 309.414L176.879 309.452C176.853 309.67 174.471 331.253 184.211 340.872Z" fill="#FCFDFE"/>
</g>
<g style="mix-blend-mode:soft-light" opacity="0.5">
<path d="M41.7442 213.75L41.2368 214.245C30.6598 202.375 16.7386 192.643 12.1634 189.444C11.0556 188.67 10.6665 188.396 10.5497 188.276L11.0379 187.762C11.1292 187.853 11.7615 188.295 12.5636 188.855C17.1533 192.063 31.1193 201.827 41.7442 213.752V213.75Z" fill="#FCFDFE"/>
</g>
<g style="mix-blend-mode:soft-light" opacity="0.5">
<path d="M56.0272 235.892L55.4124 236.219C49.2811 222.318 60.1926 192.358 60.66 191.09L61.286 191.303C61.1723 191.61 50.0095 222.253 56.0272 235.892Z" fill="#FCFDFE"/>
</g>
</g>
<path d="M209.927 286.038C208.493 288.042 198.759 279.516 181.169 278.104C176.774 277.752 152.938 274.166 143.773 289.8C141.994 292.835 140.214 295.869 138.434 298.904C130.047 297.815 122.343 295.236 124.746 284.411C128.479 267.601 104.153 254.457 93.3131 253.945C79.8962 253.311 48.7208 251.179 54.095 225.12C58.5694 203.426 65.7605 190.118 43.478 176.814C21.1955 163.509 13.9659 142.851 27.1523 121.675C41.0302 99.389 22.0215 65.2633 41.9812 51.4862C76.7601 27.4795 111.34 83.7005 104.423 131.35C97.5074 179 123.621 163.219 143.019 171.953C144.773 172.866 147.423 174.417 150.203 176.841C167.321 191.764 159.698 213.927 167.806 237.094C178.864 268.691 212.341 282.66 209.927 286.036V286.038Z" fill="#2C85FB"/>
<g style="mix-blend-mode:soft-light" opacity="0.5">
<g style="mix-blend-mode:soft-light" opacity="0.5">
<path d="M151.926 269.632L151.143 270.589C85.5666 215.913 48.1094 127.547 53.389 39.9759L54.5785 39.9839C49.3212 127.187 86.6231 215.182 151.927 269.632H151.926Z" fill="#FCFDFE"/>
</g>
<g style="mix-blend-mode:soft-light" opacity="0.5">
<path d="M118.849 236.555L118.258 237.64C88.5489 222.006 50.8564 236.528 50.4786 236.676L50.104 235.546C50.4866 235.396 88.6706 220.674 118.849 236.555Z" fill="#FCFDFE"/>
</g>
<g style="mix-blend-mode:soft-light" opacity="0.5">
<path d="M140.15 259.223L139.138 259.921C120.803 230.952 148.325 171.507 148.606 170.909L149.675 171.385C149.398 171.976 122.162 230.806 140.15 259.225V259.223Z" fill="#FCFDFE"/>
</g>
<g style="mix-blend-mode:soft-light" opacity="0.5">
<path d="M75.4794 164.123L74.5253 164.903C58.0396 143.381 16.132 140.655 15.7109 140.631L15.8438 139.419C16.2696 139.444 58.6879 142.204 75.4778 164.123H75.4794Z" fill="#FCFDFE"/>
</g>
<g style="mix-blend-mode:soft-light" opacity="0.5">
<path d="M59.4404 111.127L58.2493 111.232C57.2488 79.3717 85.6546 45.7886 85.9412 45.454L86.8201 46.2241C86.5351 46.5554 58.4526 79.7639 59.4388 111.128L59.4404 111.127Z" fill="#FCFDFE"/>
</g>
</g>
<path d="M300.245 331.48L87.4283 342.23C92.8521 341.343 96.8335 336.657 96.8335 331.162V69.2847L311.795 80.0345V319.142C311.795 325.655 306.743 331.051 300.245 331.479V331.48Z" fill="white"/>
<path d="M311.795 128.378C311.528 128.378 311.312 128.161 311.312 127.894V80.4939L97.3153 69.792V118.58C97.3153 118.848 97.0992 119.064 96.8319 119.064C96.5645 119.064 96.3484 118.848 96.3484 118.58V68.7771L96.8559 68.8027L312.276 79.5766V127.896C312.276 128.163 312.059 128.379 311.792 128.379L311.795 128.378Z" fill="#D8DEE8"/>
<path d="M298.021 116.584L117.907 112.217V88.6503L298.021 94.2566V116.584Z" fill="#D8DEE8"/>
<path fill-rule="evenodd" clip-rule="evenodd" d="M298.021 190.4L117.907 190.13V130.012L298.021 133.443V190.398V190.4ZM121.135 186.773L294.259 187.203V136.574L121.135 133.444V186.773Z" fill="#D8DEE8"/>
<path d="M159.846 188.117H156.082V132.17L159.846 132.232V188.117Z" fill="#D8DEE8"/>
<path d="M295.872 154.837L157.696 153.109V149.783L295.872 151.645V154.837Z" fill="#D8DEE8"/>
<path d="M295.872 172.161L157.696 171.172V167.845L295.872 168.971V172.163V172.161Z" fill="#D8DEE8"/>
<path d="M260.923 189.878L257.159 189.874V134.048L260.923 134.109V189.878Z" fill="#D8DEE8"/>
<path fill-rule="evenodd" clip-rule="evenodd" d="M298.021 297.478L117.907 303.149V243.032L298.021 240.522V297.478ZM121.135 299.676L294.259 294.391V243.762L121.135 246.347V299.676Z" fill="#D8DEE8"/>
<path d="M159.846 299.924L156.082 300.049V243.93L159.846 243.867V299.924Z" fill="#D8DEE8"/>
<path d="M295.872 261.977L157.696 264.812V261.485L295.872 258.786V261.978V261.977Z" fill="#D8DEE8"/>
<path d="M295.872 279.301L157.696 282.874V279.548L295.872 276.111V279.303V279.301Z" fill="#D8DEE8"/>
<path d="M260.923 298.191L257.159 298.297V242.472L260.923 242.422V298.191Z" fill="#D8DEE8"/>
<path d="M298.021 209.537L117.907 210.328V202.632L298.021 202.245V209.535V209.537Z" fill="#D8DEE8"/>
<path d="M298.021 226.852L117.907 228.603V220.908L298.021 219.56V226.85V226.852Z" fill="#D8DEE8"/>
<path d="M298.021 316.614L117.907 323.347V315.652L298.021 309.324V316.614Z" fill="#D8DEE8"/>
<path d="M334.163 421.364C335.219 423.517 334.921 424.443 334.659 424.849C333.889 426.043 332.033 424.916 327.191 425.49C326.623 425.557 325.539 425.704 324.186 425.386C323.027 425.112 321.661 424.495 321.719 424.185C321.74 424.071 321.946 424.026 322.025 424.01C322.921 423.82 326.173 422.864 331.781 421.142L334.161 421.364H334.163Z" fill="url(#paint5_linear_166_6139)"/>
<path d="M334.809 416.63L334.059 421.444C332.68 422.419 331.809 422.314 331.448 421.132C331.187 420.282 331.06 418.708 331.068 416.416L334.809 416.63Z" fill="url(#paint6_linear_166_6139)"/>
<path d="M314.691 418.953L315.375 424.086L312.424 424.556L310.394 419.014L314.69 418.955L314.691 418.953Z" fill="url(#paint7_linear_166_6139)"/>
<path d="M311.542 430.175C310.822 430.625 310.073 430.635 308.576 430.657C307.327 430.675 306.015 430.694 305.816 430.145C305.643 429.669 306.38 428.979 306.677 428.701C307.377 428.045 308.041 427.836 308.461 427.641C310.543 426.668 309.941 424.423 312.149 422.987C312.474 422.776 313.913 421.841 315.101 422.44C315.946 422.866 316.507 423.988 316.305 424.904C316.047 426.067 314.773 425.914 313.345 427.609C312.244 428.917 312.541 429.554 311.544 430.177L311.542 430.175Z" fill="url(#paint8_linear_166_6139)"/>
<path d="M350.592 301.489C350.046 312.686 348.444 322.243 346.621 330.034C344.659 338.417 343.59 339.849 342.91 345.659C341.429 358.303 345.474 360.204 345.916 374.54C346.404 390.371 341.93 402.848 340.175 407.608C338.64 411.769 337.055 415.121 335.867 417.447C334.39 418.679 332.184 418.146 329.858 417.621C329.304 403.26 328.521 389.739 327.967 375.378C325.654 353.742 323.339 332.106 321.026 310.47C330.882 307.477 340.739 304.483 350.595 301.488L350.592 301.489Z" fill="url(#paint9_linear_166_6139)"/>
<path style="mix-blend-mode:multiply" opacity="0.3" d="M329.855 417.623C329.301 403.262 328.518 389.741 327.964 375.379C325.651 353.743 323.336 332.108 321.023 310.472C330.879 307.478 340.736 304.485 350.592 301.489C350.556 302.231 350.504 302.946 350.458 303.673C336.47 315.303 333.58 324.692 333.575 331.139C333.57 338.958 337.761 342.923 336.682 354.236C335.911 362.326 333.445 363.701 333.29 371.012C333.09 380.427 337.017 385.806 338.868 391.289C340.657 396.587 341.174 404.049 337.273 414.562C336.767 415.646 336.29 416.614 335.866 417.447C334.388 418.68 332.182 418.146 329.856 417.621L329.855 417.623Z" fill="url(#paint10_linear_166_6139)"/>
<path d="M333.032 311.909C325.576 323.905 321.373 333.383 319.078 339.243C317.677 342.817 316.396 346.544 316.012 351.459C315.54 357.481 316.633 362.46 317.605 365.655C319.031 369.752 320.296 374.521 321.039 379.894C323.448 397.318 319.07 411.762 315.708 420.05C313.955 420.657 312.2 421.263 310.447 421.87C306.745 410.763 302.252 395.023 299.201 375.667C297.535 365.095 296.265 356.804 296.477 346.312C296.699 335.245 298.649 317.777 308.152 297.058C316.446 302.008 324.738 306.96 333.032 311.909Z" fill="url(#paint11_linear_166_6139)"/>
<path d="M346.963 215.958C352.507 216.608 359.837 217.536 361.131 221.582C361.469 222.64 361.336 223.564 361.179 224.14C359.295 231.089 359.093 238.495 356.61 245.254C352.81 255.603 353.439 273.138 361.701 280.519C369.868 287.816 379.405 279.749 388.957 288.146C395.607 293.991 394.062 300.606 402.307 305.653C408.702 309.569 413.26 307.745 414.626 310.853C416.905 316.041 408.489 327.889 397.123 332.098C385.877 336.262 382.334 329.023 357.679 327.082C342.606 325.896 337.023 328.059 325.891 323.893C318.24 321.031 312.644 316.931 309.131 313.939C307.567 310.699 305.312 305.254 304.316 298.255C301.359 277.484 313.343 270.059 311.155 249.447C309.725 235.983 303.511 231.241 307.614 225.206C311.498 219.493 319.963 217.696 331.065 216.033C331.977 215.895 338.509 214.964 346.963 215.955V215.958Z" fill="#2C85FB"/>
<path style="mix-blend-mode:multiply" opacity="0.3" d="M413.263 318.404C410.431 323.602 404.388 329.409 397.123 332.098C385.877 336.262 382.334 329.023 357.679 327.083C342.606 325.896 337.023 328.059 325.891 323.894C318.24 321.031 312.644 316.931 309.131 313.939C307.567 310.699 305.312 305.255 304.316 298.256C302.729 287.107 305.446 279.804 307.966 272.241C308.827 276.176 310.473 280.448 313.497 284.483C320.611 293.981 332.086 297.867 340.901 297.886C349.731 297.907 351.662 294.039 357.739 296.133C366.191 299.045 365.543 307.584 374.365 310.497C381.244 312.769 384.997 308.687 389.626 311.969C394.615 315.505 392.625 321.921 395.995 324.273C398.439 325.979 403.354 325.29 413.262 318.403L413.263 318.404Z" fill="url(#paint12_linear_166_6139)"/>
<path d="M331.529 210.161L331.617 211.248C331.827 213.853 333.844 215.95 336.439 216.26L338.272 216.48C333.959 219.39 327.929 219.93 320.184 218.097L321.986 217.477C324.037 216.773 325.481 214.929 325.671 212.769L325.896 210.24C322.87 210.369 321.45 209.097 321.636 206.423C321.821 203.748 322.971 200.526 325.086 196.754C330.91 197.377 333.056 201.846 331.527 210.161H331.529Z" fill="url(#paint13_linear_166_6139)"/>
<path d="M305.678 261.772L283.21 267.328C282.757 267.44 282.288 267.221 282.083 266.802L265.066 231.996C264.768 231.386 265.159 230.664 265.831 230.579L291.067 227.396C291.5 227.342 291.917 227.576 292.095 227.974L306.529 260.187L305.678 261.773V261.772Z" fill="url(#paint14_linear_166_6139)"/>
<path d="M301.868 257.569L283.676 262.068C283.309 262.159 282.928 261.981 282.763 261.642L268.985 233.46C268.743 232.966 269.06 232.381 269.604 232.312L290.038 229.737C290.388 229.692 290.726 229.882 290.87 230.204L302.557 256.286L301.868 257.569Z" fill="#F4F7FA"/>
<path d="M286.069 231.057L275.676 232.479C275.359 232.522 275.05 232.352 274.919 232.061L273.885 229.785C273.682 229.338 273.973 228.823 274.46 228.765L284.961 227.529C285.277 227.492 285.579 227.665 285.709 227.955L286.634 230.046C286.83 230.487 286.548 230.992 286.069 231.057Z" fill="url(#paint15_linear_166_6139)"/>
<path d="M271.89 236.732C271.862 236.504 272.023 236.294 272.252 236.265L290.762 233.891C290.982 233.864 291.2 234.022 291.229 234.253C291.258 234.482 291.096 234.691 290.867 234.72L272.358 237.094C272.342 237.096 272.326 237.097 272.31 237.099C272.102 237.102 271.918 236.947 271.89 236.734V236.732Z" fill="#D8DEE8"/>
<path d="M272.841 238.607C272.809 238.377 272.969 238.165 273.198 238.135L291.613 235.58C291.845 235.549 292.053 235.708 292.084 235.935C292.116 236.166 291.956 236.377 291.727 236.407L273.312 238.962C273.294 238.964 273.277 238.966 273.259 238.967C273.051 238.97 272.868 238.817 272.84 238.607H272.841Z" fill="#D8DEE8"/>
<path d="M282.109 241.556C282.07 241.327 282.224 241.111 282.453 241.074L292.495 239.401C292.719 239.363 292.938 239.518 292.975 239.744C293.014 239.973 292.86 240.187 292.631 240.226L282.589 241.899C282.568 241.902 282.547 241.903 282.525 241.905C282.321 241.908 282.141 241.763 282.107 241.556H282.109Z" fill="#D8DEE8"/>
<path d="M277.916 258.283C275.174 256.418 273.643 254.829 273.325 253.514C273.005 252.2 272.885 250.306 272.966 247.833L275.363 253.06C276.134 252.839 276.687 252.154 277.02 251.006C277.519 249.283 278.361 250.862 278.022 252.162C277.795 253.029 277.759 255.07 277.916 258.283Z" fill="url(#paint16_linear_166_6139)"/>
<path d="M317.203 251.459C311.273 266.256 302.357 273.471 290.454 273.104C278.552 272.738 273.565 267.653 275.491 257.851L277.857 256.593C284.031 258.776 287.451 257.843 289.399 256.695C296.212 252.679 293.001 241.319 301.238 230.657C304.132 226.91 307.407 224.587 309.58 223.264L317.202 251.46L317.203 251.459Z" fill="#2C85FB"/>
<path d="M323.107 192.121C325.308 187.576 335.205 186.443 340.281 190.406C345.201 194.252 341.951 200.042 347.038 204.47C352.2 208.964 358.056 205.189 362.869 210.259C365.327 212.846 363.884 213.915 367.264 219.142C369.102 221.984 372.063 226.562 376.999 228.085C380.604 229.196 381.595 227.545 386.336 227.689C395.289 227.961 401.772 234.725 402.867 235.87C409.765 243.082 410.271 251.749 410.367 254.032C410.739 262.708 407.156 272.474 399.683 277.969C389.695 285.314 375.792 282.798 366.619 281.138C366.271 281.075 366.047 281.033 365.712 280.966C364.866 280.798 344.429 276.492 341.043 263.419C338.816 254.821 345.399 247.98 340.873 241.53C338.549 238.217 336.642 239.782 332.717 235.702C327.887 230.681 323.598 220.855 326.621 214.762C327.292 213.411 328.883 211.111 328.399 208.199C328.18 206.881 327.609 205.866 327.157 205.213C327.44 205.05 327.953 204.697 328.276 204.064C328.67 203.289 328.742 202.175 328.313 201.926C327.905 201.689 327.389 202.445 326.786 202.482C324.934 202.596 321.213 196.026 323.105 192.121H323.107Z" fill="url(#paint17_linear_166_6139)"/>
<path d="M347.479 55.8181C347.479 82.4934 326.619 103.479 299.96 102.66C272.215 101.808 248.879 77.846 248.879 49.1696C248.879 20.4948 272.214 -0.32129 299.96 2.56828C326.621 5.34419 347.479 29.1411 347.479 55.8181Z" fill="url(#paint18_linear_166_6139)"/>
<path d="M354.684 53.5176C354.684 80.1929 333.825 101.179 307.166 100.359C279.421 99.5074 256.085 75.5456 256.085 46.8692C256.085 18.1944 279.419 -2.6217 307.166 0.267867C333.826 3.04378 354.684 26.8407 354.684 53.5176Z" fill="url(#paint19_linear_166_6139)"/>
<path d="M352.59 53.3768C352.59 78.8787 332.632 98.904 307.164 98.0796C280.706 97.2231 258.494 74.3547 258.494 47.0326C258.494 19.7105 280.708 -0.162724 307.164 2.54755C332.632 5.15697 352.59 27.8749 352.59 53.3752V53.3768Z" fill="url(#paint20_linear_166_6139)"/>
<path d="M351.092 53.2759C351.092 77.9357 331.78 97.2774 307.164 96.4514C281.625 95.5933 260.21 73.5077 260.21 47.1494C260.21 20.791 281.627 1.59178 307.164 4.17719C331.78 6.66974 351.092 28.6161 351.092 53.2759Z" fill="url(#paint21_linear_166_6139)"/>
<path fill-rule="evenodd" clip-rule="evenodd" d="M306.912 12.5658C308.222 12.6907 309.283 13.8689 309.283 15.1992V19.7393C311.902 20.0323 314.526 20.4869 317.152 21.1048C319.089 21.5595 321.013 22.1022 322.923 22.7297C324.067 23.1059 324.849 24.2618 324.732 25.4544L324.175 31.1471C324.027 32.6583 322.534 33.5452 321.128 32.9177C319.87 32.3558 318.579 31.8755 317.257 31.4753C314.949 30.7773 312.515 30.321 309.954 30.1113L309.285 30.0569V43.0592C316.119 44.9706 321.136 47.5432 324.379 50.7786C327.607 53.9979 329.216 58.0097 329.216 62.8267C329.216 68.036 327.437 72.2062 323.869 75.3519C320.28 78.5153 315.248 80.2938 308.742 80.678V85.6888C308.742 87.0191 307.681 88.0565 306.37 88.0036L306.328 88.002C305.014 87.9492 303.948 86.8254 303.948 85.4887V80.5452L302.891 80.4971C299.841 80.3595 296.918 80.0489 294.128 79.5622C292.061 79.202 290.041 78.7378 288.072 78.1695C286.881 77.8253 286.063 76.6903 286.171 75.472L286.828 68.1528C286.97 66.5712 288.558 65.6507 290.063 66.243C291.816 66.9346 293.593 67.5173 295.389 67.9911C298.189 68.7291 301.029 69.203 303.904 69.4143L303.946 54.9505C297.387 53.3272 292.476 50.9243 289.25 47.7385C286.008 44.54 284.382 40.445 284.382 35.4679C284.382 30.3163 286.146 26.3397 289.66 23.5494C293.156 20.7735 298.125 19.3919 304.537 19.3951V14.7542C304.537 13.4191 305.603 12.4377 306.916 12.5626L306.912 12.5658ZM304.533 29.9224C302.507 30.0697 300.925 30.6268 299.795 31.5937C298.661 32.5623 298.095 33.8638 298.095 35.4967C298.095 37.0447 298.62 38.3382 299.668 39.3756C300.715 40.4129 302.339 41.2406 304.535 41.8585V29.9224H304.533ZM308.737 56.1127V69.3759C310.942 69.3807 312.631 68.854 313.811 67.799C314.989 66.7457 315.576 65.2585 315.576 63.3342C315.576 61.5797 315.03 60.1261 313.935 58.9686C312.839 57.8096 311.108 56.8587 308.737 56.1127Z" fill="url(#paint22_linear_166_6139)"/>
<path style="mix-blend-mode:multiply" opacity="0.3" d="M314.421 96.0961C312.066 96.4051 309.644 96.5332 307.164 96.4499C281.625 95.5919 260.21 73.5062 260.21 47.1463C260.21 24.0649 276.691 6.41688 298.004 4.18207C305.03 9.65065 311.329 16.6545 312.413 24.9646C314.171 38.4487 300.7 44.6537 299.216 59.3129C297.941 71.907 304.279 86.0026 314.421 96.0961Z" fill="url(#paint23_linear_166_6139)"/>
<path d="M391.346 143.595C391.346 163.992 375.396 180.038 355.011 179.412C333.796 178.76 315.954 160.438 315.954 138.513C315.954 116.587 333.796 100.671 355.011 102.881C375.396 105.003 391.346 123.199 391.346 143.595Z" fill="url(#paint24_linear_166_6139)"/>
<path d="M396.854 141.836C396.854 162.233 380.905 178.278 360.519 177.652C339.304 177.001 321.463 158.679 321.463 136.753C321.463 114.828 339.304 98.912 360.519 101.121C380.905 103.244 396.854 121.439 396.854 141.836Z" fill="url(#paint25_linear_166_6139)"/>
<path d="M395.255 141.729C395.255 161.228 379.994 176.541 360.521 175.911C340.291 175.256 323.307 157.77 323.307 136.878C323.307 115.987 340.292 100.791 360.521 102.865C379.995 104.859 395.255 122.23 395.255 141.729Z" fill="url(#paint26_linear_166_6139)"/>
<path d="M394.109 141.65C394.109 160.505 379.342 175.296 360.521 174.664C340.993 174.007 324.618 157.12 324.618 136.965C324.618 116.81 340.993 102.13 360.521 104.107C379.342 106.013 394.109 122.794 394.109 141.649V141.65Z" fill="url(#paint27_linear_166_6139)"/>
<path fill-rule="evenodd" clip-rule="evenodd" d="M360.327 110.523C361.329 110.619 362.139 111.52 362.139 112.537V116.009C364.142 116.233 366.148 116.581 368.155 117.053C369.636 117.4 371.107 117.815 372.569 118.295C373.445 118.583 374.04 119.467 373.952 120.378L373.526 124.731C373.413 125.885 372.271 126.564 371.197 126.085C370.235 125.656 369.247 125.288 368.237 124.982C366.473 124.447 364.611 124.1 362.653 123.938L362.141 123.897V133.84C367.366 135.301 371.203 137.269 373.683 139.742C376.152 142.204 377.381 145.272 377.381 148.955C377.381 152.938 376.022 156.127 373.293 158.533C370.549 160.952 366.702 162.311 361.726 162.606V166.438C361.726 167.456 360.915 168.249 359.913 168.209L359.881 168.207C358.877 168.167 358.06 167.308 358.06 166.286V162.507L357.253 162.47C354.921 162.364 352.688 162.127 350.552 161.756C348.972 161.48 347.427 161.127 345.921 160.691C345.01 160.429 344.384 159.561 344.469 158.628L344.97 153.031C345.079 151.821 346.294 151.118 347.443 151.571C348.785 152.099 350.142 152.546 351.516 152.908C353.658 153.473 355.829 153.835 358.027 153.996L358.059 142.938C353.043 141.697 349.289 139.859 346.822 137.424C344.344 134.978 343.1 131.847 343.1 128.041C343.1 124.102 344.448 121.062 347.136 118.928C349.809 116.805 353.61 115.748 358.512 115.752V112.202C358.512 111.181 359.327 110.432 360.33 110.526L360.327 110.523ZM358.509 123.794C356.959 123.906 355.75 124.332 354.884 125.072C354.018 125.813 353.584 126.807 353.584 128.056C353.584 129.239 353.986 130.228 354.787 131.022C355.587 131.815 356.828 132.447 358.509 132.921V123.794ZM361.723 143.821V153.963C363.409 153.966 364.701 153.564 365.602 152.757C366.502 151.952 366.952 150.814 366.952 149.343C366.952 148.001 366.534 146.888 365.696 146.005C364.858 145.12 363.535 144.391 361.722 143.821H361.723Z" fill="url(#paint28_linear_166_6139)"/>
<path style="mix-blend-mode:multiply" opacity="0.3" d="M366.068 174.393C364.267 174.628 362.416 174.728 360.519 174.663C340.992 174.007 324.617 157.12 324.617 136.965C324.617 119.315 337.219 105.821 353.514 104.113C358.886 108.295 363.703 113.65 364.531 120.003C365.876 130.313 355.574 135.058 354.439 146.267C353.464 155.896 358.31 166.675 366.066 174.393H366.068Z" fill="url(#paint29_linear_166_6139)"/>
<defs>
<linearGradient id="paint0_linear_166_6139" x1="141.794" y1="465.497" x2="150.439" y2="381.915" gradientUnits="userSpaceOnUse">
<stop stop-color="#444B8C"/>
<stop offset="1" stop-color="#26264F"/>
</linearGradient>
<linearGradient id="paint1_linear_166_6139" x1="156.842" y1="374.071" x2="65.1122" y2="384.685" gradientUnits="userSpaceOnUse">
<stop stop-color="#444B8C"/>
<stop offset="0.4" stop-color="#383C74"/>
<stop offset="1" stop-color="#26264F"/>
</linearGradient>
<linearGradient id="paint2_linear_166_6139" x1="3.14259" y1="114.89" x2="376.402" y2="114.89" gradientUnits="userSpaceOnUse">
<stop stop-color="#444B8C"/>
<stop offset="1" stop-color="#26264F"/>
</linearGradient>
<linearGradient id="paint3_linear_166_6139" x1="461.088" y1="191.732" x2="-71.8101" y2="973.213" gradientUnits="userSpaceOnUse">
<stop stop-color="#AA80F9"/>
<stop offset="1" stop-color="#6165D7"/>
</linearGradient>
<linearGradient id="paint4_linear_166_6139" x1="124.825" y1="141.753" x2="210.471" y2="366.755" gradientUnits="userSpaceOnUse">
<stop stop-color="#FFC444"/>
<stop offset="1" stop-color="#F36F56"/>
</linearGradient>
<linearGradient id="paint5_linear_166_6139" x1="330.985" y1="438.09" x2="339.902" y2="407.161" gradientUnits="userSpaceOnUse">
<stop stop-color="#444B8C"/>
<stop offset="1" stop-color="#26264F"/>
</linearGradient>
<linearGradient id="paint6_linear_166_6139" x1="335.291" y1="429.381" x2="334.619" y2="381.499" gradientUnits="userSpaceOnUse">
<stop stop-color="#FFC444"/>
<stop offset="1" stop-color="#F36F56"/>
</linearGradient>
<linearGradient id="paint7_linear_166_6139" x1="315.793" y1="431.479" x2="315.04" y2="376.841" gradientUnits="userSpaceOnUse">
<stop stop-color="#FFC444"/>
<stop offset="1" stop-color="#F36F56"/>
</linearGradient>
<linearGradient id="paint8_linear_166_6139" x1="313.84" y1="434.712" x2="323.205" y2="402.231" gradientUnits="userSpaceOnUse">
<stop stop-color="#444B8C"/>
<stop offset="1" stop-color="#26264F"/>
</linearGradient>
<linearGradient id="paint9_linear_166_6139" x1="320.931" y1="314.119" x2="327.479" y2="426.484" gradientUnits="userSpaceOnUse">
<stop stop-color="#311944"/>
<stop offset="1" stop-color="#893976"/>
</linearGradient>
<linearGradient id="paint10_linear_166_6139" x1="320.931" y1="314.119" x2="327.479" y2="426.484" gradientUnits="userSpaceOnUse">
<stop stop-color="#311944"/>
<stop offset="1" stop-color="#893976"/>
</linearGradient>
<linearGradient id="paint11_linear_166_6139" x1="264.469" y1="424.931" x2="355.926" y2="419.504" gradientUnits="userSpaceOnUse">
<stop stop-color="#311944"/>
<stop offset="1" stop-color="#893976"/>
</linearGradient>
<linearGradient id="paint12_linear_166_6139" x1="331.417" y1="208.477" x2="397.965" y2="297.63" gradientUnits="userSpaceOnUse">
<stop stop-color="#FF9085"/>
<stop offset="1" stop-color="#FB6FBB"/>
</linearGradient>
<linearGradient id="paint13_linear_166_6139" x1="314.96" y1="208.925" x2="326.15" y2="226.471" gradientUnits="userSpaceOnUse">
<stop stop-color="#FFC444"/>
<stop offset="1" stop-color="#F36F56"/>
</linearGradient>
<linearGradient id="paint14_linear_166_6139" x1="266.582" y1="242.912" x2="290.755" y2="280.836" gradientUnits="userSpaceOnUse">
<stop stop-color="#444B8C"/>
<stop offset="1" stop-color="#26264F"/>
</linearGradient>
<linearGradient id="paint15_linear_166_6139" x1="286.801" y1="229.625" x2="281.07" y2="218.162" gradientUnits="userSpaceOnUse">
<stop stop-color="#AA80F9"/>
<stop offset="1" stop-color="#6165D7"/>
</linearGradient>
<linearGradient id="paint16_linear_166_6139" x1="271.417" y1="252.325" x2="276.859" y2="260.858" gradientUnits="userSpaceOnUse">
<stop stop-color="#FFC444"/>
<stop offset="1" stop-color="#F36F56"/>
</linearGradient>
<linearGradient id="paint17_linear_166_6139" x1="420.938" y1="265.9" x2="373.904" y2="168.904" gradientUnits="userSpaceOnUse">
<stop stop-color="#444B8C"/>
<stop offset="1" stop-color="#26264F"/>
</linearGradient>
<linearGradient id="paint18_linear_166_6139" x1="298.871" y1="111.304" x2="241.368" y2="129.762" gradientUnits="userSpaceOnUse">
<stop stop-color="#FCB148"/>
<stop offset="0.3" stop-color="#FFC444"/>
<stop offset="0.9" stop-color="#F8924F"/>
<stop offset="1" stop-color="#F8924F"/>
</linearGradient>
<linearGradient id="paint19_linear_166_6139" x1="379.443" y1="26.202" x2="329.816" y2="135.718" gradientUnits="userSpaceOnUse">
<stop stop-color="#FFDB44"/>
<stop offset="1" stop-color="#FEEF06"/>
</linearGradient>
<linearGradient id="paint20_linear_166_6139" x1="268.087" y1="127.617" x2="258.513" y2="75.2848" gradientUnits="userSpaceOnUse">
<stop stop-color="#FCB148"/>
<stop offset="0.3" stop-color="#FFC444"/>
<stop offset="0.9" stop-color="#F8924F"/>
<stop offset="1" stop-color="#F8924F"/>
</linearGradient>
<linearGradient id="paint21_linear_166_6139" x1="343.856" y1="13.1229" x2="383.333" y2="96.9124" gradientUnits="userSpaceOnUse">
<stop stop-color="#FCB148"/>
<stop offset="0.3" stop-color="#FFC444"/>
<stop offset="0.9" stop-color="#F8924F"/>
<stop offset="1" stop-color="#F8924F"/>
</linearGradient>
<linearGradient id="paint22_linear_166_6139" x1="320.691" y1="7.48783" x2="341.166" y2="84.2496" gradientUnits="userSpaceOnUse">
<stop stop-color="#FFDB44"/>
<stop offset="1" stop-color="#FEEF06"/>
</linearGradient>
<linearGradient id="paint23_linear_166_6139" x1="315.248" y1="24.185" x2="355.958" y2="110.6" gradientUnits="userSpaceOnUse">
<stop stop-color="#FCB148"/>
<stop offset="0.3" stop-color="#FFC444"/>
<stop offset="0.9" stop-color="#F8924F"/>
<stop offset="1" stop-color="#F8924F"/>
</linearGradient>
<linearGradient id="paint24_linear_166_6139" x1="354.198" y1="186.097" x2="310.238" y2="200.201" gradientUnits="userSpaceOnUse">
<stop stop-color="#FCB148"/>
<stop offset="0.3" stop-color="#FFC444"/>
<stop offset="0.9" stop-color="#F8924F"/>
<stop offset="1" stop-color="#F8924F"/>
</linearGradient>
<linearGradient id="paint25_linear_166_6139" x1="415.863" y1="120.974" x2="377.906" y2="204.715" gradientUnits="userSpaceOnUse">
<stop stop-color="#FFDB44"/>
<stop offset="1" stop-color="#FEEF06"/>
</linearGradient>
<linearGradient id="paint26_linear_166_6139" x1="330.569" y1="198.504" x2="323.237" y2="158.498" gradientUnits="userSpaceOnUse">
<stop stop-color="#FCB148"/>
<stop offset="0.3" stop-color="#FFC444"/>
<stop offset="0.9" stop-color="#F8924F"/>
<stop offset="1" stop-color="#F8924F"/>
</linearGradient>
<linearGradient id="paint27_linear_166_6139" x1="388.648" y1="110.92" x2="418.825" y2="174.987" gradientUnits="userSpaceOnUse">
<stop stop-color="#FCB148"/>
<stop offset="0.3" stop-color="#FFC444"/>
<stop offset="0.9" stop-color="#F8924F"/>
<stop offset="1" stop-color="#F8924F"/>
</linearGradient>
<linearGradient id="paint28_linear_166_6139" x1="370.943" y1="106.614" x2="386.599" y2="165.318" gradientUnits="userSpaceOnUse">
<stop stop-color="#FFDB44"/>
<stop offset="1" stop-color="#FEEF06"/>
</linearGradient>
<linearGradient id="paint29_linear_166_6139" x1="366.764" y1="119.373" x2="397.901" y2="185.457" gradientUnits="userSpaceOnUse">
<stop stop-color="#FCB148"/>
<stop offset="0.3" stop-color="#FFC444"/>
<stop offset="0.9" stop-color="#F8924F"/>
<stop offset="1" stop-color="#F8924F"/>
</linearGradient>
</defs>
</svg>
