<svg width="311" height="439" viewBox="0 0 311 439" fill="none" xmlns="http://www.w3.org/2000/svg">
<g clip-path="url(#clip0_171_6446)">
<g opacity="0.2" filter="url(#filter0_f_171_6446)">
<path opacity="0.2" d="M7.4551 324.578C1.6555 327.943 1.65549 333.428 7.33167 336.794L171.323 433.153C177 436.519 186.501 436.519 192.301 433.153L265.968 390.272C271.767 386.906 271.767 381.421 266.091 378.055L102.099 281.695C96.2992 278.33 86.9212 278.33 81.1215 281.695L7.4551 324.578Z" fill="black"/>
</g>
<g opacity="0.1">
<g opacity="0.1">
<g opacity="0.1">
<path opacity="0.1" d="M257.093 86.1541C255.45 83.2969 255.454 80.1959 257.105 79.2269C258.754 78.258 261.424 79.7894 263.068 82.6466C264.712 85.5038 264.707 88.6048 263.057 89.5738C261.407 90.5419 258.737 89.0113 257.093 86.1541Z" fill="black"/>
</g>
<g opacity="0.1">
<g opacity="0.1">
<path opacity="0.1" d="M295.699 100.332C293.355 98.9605 291.504 100.082 291.504 102.701C291.504 105.443 293.355 108.684 295.699 110.055C298.044 111.426 299.895 110.304 299.895 107.687C299.895 104.945 297.92 101.703 295.699 100.332Z" fill="black"/>
</g>
<g opacity="0.1">
<path opacity="0.1" d="M311 108.559V126.759L132.324 22.5464L132.077 123.519C132.077 127.382 134.791 132.245 138.124 134.239L304.46 231.222C307.792 233.216 310.63 231.596 310.63 227.732L311 108.559Z" fill="black"/>
</g>
<g opacity="0.1">
<path opacity="0.1" d="M138.493 0.856628C135.162 -1.13788 132.323 0.482661 132.323 4.34703V22.5469L311 126.76V108.56C311 104.696 308.285 99.8341 304.83 97.8394L138.493 0.856628ZM278.793 100.208C276.449 98.8371 274.598 95.5956 274.598 92.8537C274.598 90.2359 276.449 89.1133 278.793 90.485C281.138 91.8559 282.989 95.0975 282.989 97.8394C282.989 100.457 281.138 101.58 278.793 100.208ZM260.037 89.2382C257.693 87.8673 255.842 84.6257 255.842 81.8838C255.842 79.2661 257.693 78.1442 260.037 79.5152C262.382 80.8861 264.233 84.1276 264.233 86.8695C264.233 89.6122 262.382 90.6099 260.037 89.2382ZM295.576 110.056C293.231 108.685 291.38 105.444 291.38 102.702C291.38 100.083 293.231 98.9612 295.576 100.333C297.92 101.704 299.771 104.945 299.771 107.687C299.771 110.305 297.92 111.427 295.576 110.056Z" fill="black"/>
</g>
</g>
<g opacity="0.1">
<path opacity="0.1" d="M275.835 97.1032C274.191 94.246 274.195 91.1449 275.846 90.176C277.495 89.2071 280.165 90.7385 281.809 93.5957C283.453 96.4529 283.448 99.5539 281.798 100.523C280.148 101.491 277.478 99.9604 275.835 97.1032Z" fill="black"/>
</g>
</g>
</g>
<path d="M4.04858 319.721V324.832C4.04858 327.076 5.52932 329.195 8.3674 330.94V325.829C5.40593 324.209 4.04858 321.965 4.04858 319.721Z" fill="#2C85FB"/>
<path d="M271.322 378.06V372.95C271.322 375.193 269.842 377.437 267.003 379.182V384.294C269.842 382.549 271.322 380.304 271.322 378.06Z" fill="#2C85FB"/>
<path d="M8.24414 325.829L8.36751 330.94L172.36 427.3V422.189L8.24414 325.829Z" fill="#2C85FB"/>
<path d="M193.337 422.189V427.299L267.003 384.293L266.88 379.182L193.337 422.189Z" fill="#2C85FB"/>
<path d="M172.359 422.189V427.3C178.035 430.666 187.537 430.666 193.336 427.3V422.189C187.537 425.554 178.035 425.554 172.359 422.189Z" fill="#2C85FB"/>
<path d="M8.36767 313.612C2.56809 316.979 2.5681 322.463 8.2443 325.829L172.236 422.189C177.913 425.554 187.414 425.554 193.213 422.189L266.88 379.182C272.68 375.817 272.68 370.331 267.004 366.966L103.012 270.606C97.3357 267.24 87.8343 267.24 82.0346 270.606L8.36767 313.612Z" fill="url(#paint0_radial_171_6446)"/>
<path d="M212.508 293.108V294.146L179.71 313.34V312.173L212.508 293.108Z" fill="#2C85FB"/>
<path d="M179.71 312.173V313.34L175.562 310.876V309.839L179.71 312.173Z" fill="#2C85FB"/>
<path d="M212.508 293.108L179.71 312.173L175.562 309.839L208.36 290.774L212.508 293.108Z" fill="url(#paint1_radial_171_6446)"/>
<path d="M224.045 286.364V287.532L217.434 291.293V290.255L224.045 286.364Z" fill="#2C85FB"/>
<path d="M217.434 290.255V291.293L213.285 288.958V287.79L217.434 290.255Z" fill="#2C85FB"/>
<path d="M224.045 286.364L217.434 290.255L213.285 287.79L219.897 284.029L224.045 286.364Z" fill="url(#paint2_radial_171_6446)"/>
<path d="M174.784 315.026V316.064L168.173 319.955V318.917L174.784 315.026Z" fill="#2C85FB"/>
<path d="M168.173 318.917V319.955L164.025 317.491V316.453L168.173 318.917Z" fill="#EB5757"/>
<path d="M174.784 315.026L168.173 318.917L164.025 316.453L170.636 312.692L174.784 315.026Z" fill="#2C85FB"/>
<path d="M151.58 328.644V329.682L118.782 348.747V347.709L151.58 328.644Z" fill="#EB5757"/>
<path d="M118.782 347.709V348.747L114.634 346.412V345.245L118.782 347.709Z" fill="#EB5757"/>
<path d="M151.58 328.644L118.782 347.709L114.634 345.245L147.432 326.18L151.58 328.644Z" fill="#EB5757"/>
<path d="M163.117 321.9V322.938L156.506 326.699V325.661L163.117 321.9Z" fill="#EB5757"/>
<path d="M156.506 325.661V326.699L152.358 324.364V323.327L156.506 325.661Z" fill="#EB5757"/>
<path d="M163.117 321.9L156.506 325.661L152.358 323.327L158.969 319.436L163.117 321.9Z" fill="#EB5757"/>
<path d="M113.856 350.562V351.6L107.245 355.361V354.323L113.856 350.562Z" fill="#EB5757"/>
<path d="M107.245 354.324V355.361L103.097 353.027V351.989L107.245 354.324Z" fill="#EB5757"/>
<path d="M113.856 350.562L107.245 354.323L103.097 351.989L109.708 348.098L113.856 350.562Z" fill="#EB5757"/>
<path d="M14.7842 314.859C11.3291 316.854 11.3291 320.095 14.7842 322.089L175.445 416.33C178.776 418.324 184.452 418.324 187.784 416.33L259.97 374.196C263.425 372.202 263.425 368.96 259.97 366.966L99.3101 272.725C95.8544 270.731 90.3022 270.731 86.9706 272.725L14.7842 314.859Z" fill="white"/>
<path d="M224.175 202.063L225.082 201.545V163.544L224.175 164.063V202.063Z" fill="url(#paint3_radial_171_6446)"/>
<path d="M224.175 164.063L225.082 163.544L221.063 161.21L220.026 161.728L224.175 164.063Z" fill="url(#paint4_radial_171_6446)"/>
<path d="M220.027 161.729V199.729L224.175 202.063V164.063L220.027 161.729Z" fill="url(#paint5_radial_171_6446)"/>
<path d="M224.304 158.356L225.212 157.837V150.185L224.304 150.834V158.356Z" fill="url(#paint6_radial_171_6446)"/>
<path d="M224.304 150.834L225.212 150.185L221.063 147.851L220.156 148.369L224.304 150.834Z" fill="url(#paint7_radial_171_6446)"/>
<path d="M220.156 148.369V156.022L224.305 158.356V150.834L220.156 148.369Z" fill="url(#paint8_radial_171_6446)"/>
<path d="M224.175 215.421L225.082 214.903V207.251L224.175 207.77V215.421Z" fill="url(#paint9_radial_171_6446)"/>
<path d="M224.175 207.77L225.082 207.251L220.934 204.916L220.026 205.435L224.175 207.77Z" fill="url(#paint10_radial_171_6446)"/>
<path d="M220.027 205.435V212.957L224.175 215.421V207.77L220.027 205.435Z" fill="url(#paint11_radial_171_6446)"/>
<path d="M223.916 272.617L224.823 272.098L224.953 234.097L224.046 234.616L223.916 272.617Z" fill="url(#paint12_radial_171_6446)"/>
<path d="M224.046 234.616L224.953 234.097L220.805 231.763L219.897 232.281L224.046 234.616Z" fill="url(#paint13_radial_171_6446)"/>
<path d="M219.897 232.282L219.768 270.282L223.915 272.617L224.046 234.616L219.897 232.282Z" fill="url(#paint14_radial_171_6446)"/>
<path d="M224.045 228.91L224.953 228.391V220.739L224.045 221.257V228.91Z" fill="url(#paint15_radial_171_6446)"/>
<path d="M224.046 221.257L224.953 220.739L220.934 218.405L219.897 218.923L224.046 221.257Z" fill="url(#paint16_radial_171_6446)"/>
<path d="M219.897 218.923V226.575L224.046 228.91V221.257L219.897 218.923Z" fill="url(#paint17_radial_171_6446)"/>
<path d="M223.916 285.975L224.823 285.456V277.804L223.916 278.323V285.975Z" fill="url(#paint18_radial_171_6446)"/>
<path d="M223.916 278.323L224.823 277.804L220.675 275.469L219.767 275.988L223.916 278.323Z" fill="url(#paint19_radial_171_6446)"/>
<path d="M219.767 275.988V283.51L223.916 285.975V278.323L219.767 275.988Z" fill="url(#paint20_radial_171_6446)"/>
<g filter="url(#filter1_f_171_6446)">
<path d="M107.839 365.519C106.439 363.499 106.964 360.722 109 359.345C116.655 354.169 121.91 350.559 122.432 350.253L150.435 333.578C150.788 333.363 156.173 330.285 160.331 328.202C163.375 326.678 166.478 327.82 168.826 330.284C169.679 331.179 169.961 332.225 169.225 333.217C168.41 334.315 167.166 335.827 165.964 337.25C163.633 340.006 160.911 342.399 157.945 344.454L149.575 350.253L137.485 357.505C135.841 358.491 134.109 359.322 132.312 359.988L112.993 367.143C111.106 367.842 108.986 367.174 107.839 365.519Z" fill="#E6E3E3" fill-opacity="0.5"/>
</g>
<path d="M39.463 298.903C36.625 300.524 36.625 303.266 39.463 304.887C42.3011 306.507 46.8668 306.507 49.7048 304.887L75.7414 289.679C78.5795 288.058 78.5795 285.315 75.7414 283.695C72.9031 282.074 68.3374 282.074 65.4993 283.695L39.463 298.903Z" fill="#2C85FB"/>
<g opacity="0.2">
<g opacity="0.2">
<g opacity="0.2">
<path opacity="0.2" d="M145.089 287.061C142.004 288.806 139.66 293.169 139.66 296.66V301.77C139.66 305.261 142.128 306.757 145.213 304.887C148.297 303.141 150.642 298.779 150.642 295.288V294.415L150.766 294.291L166.19 285.316C166.93 284.817 167.547 283.82 167.547 282.822C167.547 281.95 166.93 281.576 166.19 281.95L150.766 290.925L150.642 291.05V290.053C150.642 286.687 148.174 285.316 145.089 287.061ZM142.498 300.15V295.039C142.498 293.293 143.732 291.174 145.213 290.427C146.694 289.554 147.927 290.302 147.927 291.922V297.034C147.927 298.779 146.694 300.898 145.213 301.645C143.609 302.518 142.498 301.895 142.498 300.15Z" fill="#020A0A"/>
</g>
<g opacity="0.2">
<path opacity="0.2" d="M158.169 291.673V295.787C158.169 296.66 158.786 297.034 159.527 296.535L161.254 295.538V293.792C161.254 293.293 161.624 292.795 161.994 292.545C162.364 292.296 162.735 292.545 162.735 292.919V294.665L164.462 293.667C165.202 293.169 165.819 292.171 165.819 291.299V287.186L158.169 291.673Z" fill="#020A0A"/>
</g>
</g>
</g>
<path d="M90.9811 275.019C90.3642 275.393 89.9941 278.384 89.9941 281.875V334.231C89.9941 337.721 91.4745 339.591 93.2024 338.594C94.9295 337.596 98.7553 335.352 101.717 333.607L158.602 300.324C161.563 298.579 163.908 294.341 163.908 290.975V238.619C163.908 235.128 161.563 233.757 158.602 235.502L106.652 265.794C103.691 267.539 101.346 268.91 101.346 268.91C101.346 268.91 101.223 269.035 100.976 269.159C100.853 269.284 98.7553 270.531 96.2873 271.902C93.9426 273.274 91.4745 274.645 90.9811 275.019Z" fill="#C3C3C3"/>
<path opacity="0.1" d="M96.2874 287.359V336.723L163.908 297.207V241.61L101.593 278.01C98.7547 279.631 96.2874 283.869 96.2874 287.359Z" fill="black"/>
<path d="M82.7134 283.371C82.7134 287.609 84.9347 290.102 88.1429 289.853C88.513 289.853 89.0065 289.728 89.3766 289.603C89.5 289.603 89.6241 289.479 89.8708 289.479C90.611 289.229 91.2278 288.98 92.0914 288.481C97.1509 285.49 101.346 278.384 101.223 272.526C101.223 271.653 101.099 270.905 100.976 270.282C100.853 269.908 100.729 269.534 100.606 269.16L100.359 268.786C98.878 265.919 95.6697 265.171 91.8447 267.29C86.9093 270.406 82.7134 277.636 82.7134 283.371Z" fill="#FFE22A"/>
<path opacity="0.1" d="M87.4028 286.113C87.4028 287.609 87.6496 288.98 88.143 289.977C88.5131 289.977 89.0073 289.853 89.3774 289.728C89.5008 290.227 89.6242 290.601 89.8709 290.975V291.847C90.1176 291.972 90.3644 292.097 90.6111 292.221C92.2156 292.845 94.4362 292.595 96.7808 291.349C101.84 288.357 106.035 281.251 105.912 275.393C105.912 273.398 105.295 271.777 104.432 270.655C103.444 270.281 102.21 270.157 100.853 270.406C100.729 270.032 100.606 269.658 100.483 269.284L100.236 268.91C99.1255 268.91 97.7678 269.409 96.4107 270.157C94.6829 271.154 93.0791 272.65 91.7221 274.396C90.9812 275.393 90.241 276.39 89.7475 277.512C88.3898 280.254 87.4028 283.371 87.4028 286.113Z" fill="black"/>
<path d="M162.304 309.798L153.789 314.784L159.219 328.122L162.304 309.798Z" fill="#6489FF"/>
<path d="M172.545 297.955C172.545 301.446 170.201 305.56 167.24 307.305L103.938 344.203C100.976 345.948 98.6321 344.577 98.6321 341.087V288.731C98.6321 285.241 100.976 281.127 103.938 279.382L167.24 242.483C170.201 240.738 172.545 242.109 172.545 245.6V297.955Z" fill="#579BEB"/>
<path d="M89.2542 287.484C89.2542 288.357 89.3775 289.105 89.5009 289.728C89.6242 290.227 89.7476 290.601 89.9943 290.975C90.2411 291.474 90.4878 291.848 90.7345 292.222C92.339 294.216 95.3006 294.59 98.6322 292.596C103.691 289.603 107.887 282.498 107.763 276.639C107.763 273.523 106.529 271.404 104.554 270.531C103.568 270.157 102.334 270.032 100.976 270.282C100.113 270.531 99.249 270.78 98.3854 271.279C94.5596 273.523 91.228 278.135 89.871 282.748C89.5009 284.493 89.2542 285.989 89.2542 287.484Z" fill="#FFE22A"/>
<g opacity="0.2">
<g opacity="0.2">
<g opacity="0.2">
<path opacity="0.2" d="M149.841 261.93C149.841 263.052 149.964 264.922 150.334 267.664L148.977 267.539C147.99 267.539 147.126 267.415 146.386 267.539L145.522 272.027C146.756 271.653 148.114 271.279 149.594 270.78L146.756 276.888L149.224 277.761L151.322 271.528C151.939 272.775 152.679 274.022 153.542 275.393L155.887 271.404C155.394 270.905 154.9 270.406 154.407 270.032L152.926 268.785C153.172 268.536 153.913 267.913 155.147 266.667C156.011 265.794 156.627 265.296 156.874 264.922L155.887 261.556C154.53 263.052 153.296 264.672 152.185 266.293C152.432 263.8 152.556 261.68 152.556 260.184L149.841 261.93Z" fill="#4A84C8"/>
</g>
<g opacity="0.2">
<path opacity="0.2" d="M137.255 269.284C137.255 270.406 137.378 272.276 137.748 275.019L136.391 274.894C135.403 274.894 134.54 274.77 133.8 274.894L132.936 279.381C134.17 279.007 135.527 278.633 137.008 278.135L134.17 284.244L136.638 285.116L138.735 278.883C139.353 280.129 140.093 281.376 140.956 282.747L143.301 278.758C142.808 278.259 142.314 277.761 141.82 277.387L140.339 276.141C140.586 275.892 141.326 275.268 142.561 274.022C143.424 273.149 144.041 272.65 144.288 272.276L143.301 268.91C141.944 270.406 140.71 272.027 139.599 273.648C139.846 271.154 139.969 269.035 139.969 267.539L137.255 269.284Z" fill="#4A84C8"/>
</g>
<g opacity="0.2">
<path opacity="0.2" d="M124.668 276.639C124.668 277.761 124.792 279.631 125.162 282.373L123.805 282.249C122.818 282.249 121.953 282.124 121.213 282.249L120.35 286.736C121.583 286.363 122.941 285.989 124.421 285.49L121.583 291.598L124.051 292.471L126.149 286.238C126.766 287.484 127.506 288.731 128.37 290.102L130.715 286.113C130.221 285.615 129.728 285.116 129.234 284.742L127.753 283.495C128 283.246 128.74 282.623 129.974 281.376C130.838 280.503 131.455 280.005 131.701 279.631L130.715 276.266C129.358 277.761 128.123 279.381 127.013 281.002C127.26 278.509 127.383 276.39 127.383 274.894L124.668 276.639Z" fill="#4A84C8"/>
</g>
<g opacity="0.2">
<path opacity="0.2" d="M112.082 283.994C112.082 285.116 112.205 286.986 112.575 289.728L111.218 289.603C110.231 289.603 109.367 289.479 108.627 289.603L107.763 294.091C108.997 293.717 110.355 293.343 111.835 292.845L108.997 298.953L111.465 299.825L113.563 293.593C114.18 294.839 114.92 296.086 115.784 297.457L118.128 293.468C117.635 292.969 117.141 292.471 116.648 292.097L115.167 290.85C115.414 290.601 116.154 289.977 117.388 288.731C118.252 287.858 118.869 287.359 119.115 286.986L118.128 283.62C116.771 285.116 115.537 286.736 114.427 288.357C114.673 285.864 114.797 283.745 114.797 282.249L112.082 283.994Z" fill="#4A84C8"/>
</g>
</g>
</g>
<path d="M151.075 263.176C151.075 264.298 151.199 266.168 151.569 268.91L150.211 268.786C149.224 268.786 148.36 268.661 147.62 268.786L146.756 273.274C147.99 272.899 149.347 272.525 150.828 272.027L147.99 278.135L150.458 279.007L152.556 272.775C153.172 274.022 153.913 275.268 154.777 276.639L157.122 272.65C156.628 272.151 156.134 271.653 155.64 271.279L154.16 270.032C154.407 269.783 155.147 269.159 156.381 267.913C157.245 267.041 157.862 266.542 158.108 266.168L157.122 262.802C155.764 264.298 154.53 265.919 153.42 267.539C153.667 265.046 153.79 262.927 153.79 261.431L151.075 263.176Z" fill="#4A84C8"/>
<path d="M138.489 270.531C138.489 271.653 138.612 273.523 138.982 276.266L137.624 276.141C136.637 276.141 135.774 276.016 135.034 276.141L134.169 280.628C135.404 280.254 136.761 279.88 138.242 279.381L135.404 285.49L137.871 286.362L139.969 280.129C140.586 281.376 141.327 282.623 142.19 283.994L144.535 280.005C144.041 279.506 143.547 279.007 143.054 278.633L141.574 277.387C141.82 277.138 142.561 276.515 143.794 275.268C144.658 274.396 145.275 273.897 145.522 273.523L144.535 270.157C143.177 271.653 141.944 273.274 140.833 274.894C141.08 272.401 141.203 270.281 141.203 268.786L138.489 270.531Z" fill="#4A84C8"/>
<path d="M125.903 277.886C125.903 279.007 126.026 280.877 126.396 283.62L125.038 283.495C124.051 283.495 123.188 283.371 122.447 283.495L121.583 287.983C122.818 287.609 124.175 287.235 125.656 286.737L122.818 292.845L125.285 293.717L127.383 287.484C128 288.73 128.74 289.977 129.604 291.349L131.949 287.36C131.455 286.861 130.961 286.363 130.468 285.989L128.987 284.742C129.234 284.493 129.974 283.869 131.208 282.623C132.072 281.75 132.689 281.251 132.936 280.877L131.949 277.512C130.591 279.132 129.358 280.628 128.246 282.249C128.493 279.755 128.617 277.636 128.617 276.141L125.903 277.886Z" fill="#4A84C8"/>
<path d="M113.316 285.241C113.316 286.363 113.439 288.232 113.81 290.975L112.452 290.85C111.465 290.85 110.602 290.725 109.861 290.85L108.997 295.338C110.231 294.964 111.588 294.59 113.069 294.091L110.231 300.199L112.699 301.072L114.797 294.839C115.414 296.086 116.154 297.332 117.018 298.703L119.362 294.715C118.869 294.216 118.375 293.717 117.882 293.343L116.4 292.097C116.648 291.847 117.388 291.224 118.622 289.977C119.485 289.105 120.103 288.606 120.35 288.232L119.362 284.867C118.005 286.487 116.771 287.983 115.66 289.603C115.907 287.11 116.03 284.991 116.03 283.495L113.316 285.241Z" fill="#4A84C8"/>
<g opacity="0.2">
<g opacity="0.2">
<g opacity="0.2">
<path opacity="0.2" d="M153.029 262.43C153.029 263.551 153.152 265.421 153.522 268.164L152.165 268.039C151.178 268.039 150.314 267.915 149.574 268.039L148.71 272.527C149.944 272.153 151.301 271.779 152.782 271.281L149.944 277.389L152.412 278.261L154.51 272.028C155.127 273.275 155.867 274.521 156.731 275.893L159.075 271.904C158.582 271.405 158.088 270.907 157.594 270.533L156.114 269.286C156.361 269.037 157.101 268.413 158.335 267.167C159.199 266.294 159.816 265.795 160.062 265.421L159.075 262.056C157.718 263.551 156.484 265.172 155.374 266.793C155.62 264.299 155.744 262.181 155.744 260.685L153.029 262.43Z" fill="black"/>
</g>
<g opacity="0.2">
<path opacity="0.2" d="M140.443 269.785C140.443 270.907 140.566 272.776 140.936 275.519L139.579 275.394C138.592 275.394 137.728 275.269 136.988 275.394L136.124 279.882C137.358 279.508 138.715 279.134 140.196 278.635L137.358 284.743L139.826 285.616L141.923 279.383C142.541 280.63 143.281 281.876 144.145 283.247L146.489 279.259C145.996 278.76 145.502 278.261 145.008 277.887L143.528 276.641C143.774 276.391 144.515 275.768 145.749 274.521C146.613 273.649 147.229 273.15 147.476 272.776L146.489 269.411C145.131 270.907 143.898 272.527 142.788 274.147C143.034 271.655 143.158 269.536 143.158 268.039L140.443 269.785Z" fill="black"/>
</g>
<g opacity="0.2">
<path opacity="0.2" d="M127.856 277.139C127.856 278.261 127.98 280.131 128.35 282.873L126.993 282.749C126.005 282.749 125.142 282.624 124.401 282.749L123.537 287.236C124.772 286.862 126.129 286.488 127.61 285.99L124.772 292.098L127.24 292.97L129.337 286.738C129.954 287.984 130.695 289.231 131.558 290.603L133.903 286.613C133.409 286.114 132.915 285.616 132.422 285.242L130.941 283.995C131.188 283.746 131.928 283.122 133.163 281.876C134.026 281.004 134.643 280.505 134.89 280.131L133.903 276.765C132.545 278.261 131.311 279.882 130.201 281.502C130.448 279.009 130.571 276.89 130.571 275.394L127.856 277.139Z" fill="black"/>
</g>
<g opacity="0.2">
<path opacity="0.2" d="M115.27 284.494C115.27 285.616 115.394 287.486 115.764 290.229L114.407 290.104C113.42 290.104 112.555 289.979 111.815 290.104L110.952 294.591C112.185 294.217 113.543 293.843 115.023 293.345L112.185 299.453L114.653 300.326L116.751 294.093C117.368 295.339 118.108 296.586 118.972 297.957L121.317 293.968C120.823 293.469 120.33 292.971 119.836 292.596L118.355 291.35C118.602 291.101 119.343 290.478 120.576 289.231C121.44 288.359 122.057 287.86 122.304 287.486L121.317 284.12C119.96 285.616 118.725 287.237 117.615 288.857C117.862 286.364 117.985 284.245 117.985 282.749L115.27 284.494Z" fill="black"/>
</g>
</g>
</g>
<path d="M154.263 263.676C154.263 264.798 154.386 266.668 154.757 269.411L153.399 269.286C152.412 269.286 151.549 269.161 150.808 269.286L149.944 273.773C151.178 273.399 152.536 273.026 154.016 272.527L151.178 278.635L153.646 279.508L155.744 273.275C156.361 274.521 157.101 275.768 157.965 277.139L160.309 273.15C159.816 272.652 159.322 272.153 158.829 271.779L157.348 270.533C157.595 270.283 158.335 269.66 159.569 268.413C160.432 267.541 161.05 267.042 161.297 266.668L160.309 263.302C158.952 264.798 157.718 266.419 156.607 268.039C156.854 265.546 156.977 263.427 156.977 261.932L154.263 263.676Z" fill="#EDF9F9"/>
<path d="M141.676 271.032C141.676 272.153 141.8 274.023 142.17 276.765L140.813 276.641C139.825 276.641 138.962 276.516 138.221 276.641L137.358 281.129C138.592 280.755 139.949 280.381 141.43 279.882L138.592 285.99L141.06 286.863L143.158 280.63C143.774 281.876 144.515 283.123 145.378 284.494L147.723 280.506C147.229 280.007 146.736 279.508 146.242 279.134L144.761 277.888C145.008 277.638 145.748 277.015 146.983 275.768C147.846 274.895 148.463 274.397 148.71 274.023L147.723 270.658C146.366 272.153 145.131 273.773 144.021 275.394C144.268 272.901 144.391 270.782 144.391 269.286L141.676 271.032Z" fill="#EDF9F9"/>
<path d="M129.09 278.386C129.09 279.508 129.213 281.378 129.583 284.12L128.226 283.995C127.239 283.995 126.375 283.87 125.635 283.995L124.771 288.483C126.005 288.109 127.362 287.735 128.843 287.236L126.005 293.344L128.473 294.217L130.57 287.984C131.188 289.231 131.928 290.478 132.792 291.849L135.136 287.86C134.643 287.361 134.149 286.862 133.655 286.488L132.175 285.242C132.422 284.992 133.162 284.369 134.396 283.122C135.26 282.25 135.877 281.752 136.123 281.378L135.136 278.012C133.779 279.632 132.545 281.128 131.435 282.748C131.681 280.256 131.805 278.136 131.805 276.64L129.09 278.386Z" fill="#EDF9F9"/>
<path d="M116.504 285.741C116.504 286.863 116.627 288.733 116.997 291.475L115.64 291.35C114.653 291.35 113.789 291.225 113.049 291.35L112.185 295.838C113.419 295.464 114.776 295.09 116.257 294.591L113.419 300.699L115.887 301.572L117.984 295.339C118.602 296.586 119.342 297.833 120.206 299.204L122.55 295.215C122.057 294.716 121.563 294.217 121.069 293.843L119.589 292.596C119.835 292.347 120.576 291.724 121.81 290.478C122.674 289.605 123.29 289.107 123.537 288.733L122.55 285.367C121.192 286.987 119.959 288.483 118.849 290.104C119.095 287.611 119.219 285.491 119.219 283.995L116.504 285.741Z" fill="#EDF9F9"/>
<g opacity="0.2">
<g opacity="0.2">
<g opacity="0.2">
<g opacity="0.2">
<path opacity="0.2" d="M143.918 300.573V304.687C143.918 305.56 144.535 305.933 145.275 305.435L147.002 304.438V302.693C147.002 302.194 147.373 301.695 147.743 301.446C148.113 301.197 148.483 301.446 148.483 301.82V303.565L150.211 302.568C150.952 302.069 151.568 301.072 151.568 300.199V296.086L143.918 300.573Z" fill="#020202"/>
</g>
<g opacity="0.2">
<path opacity="0.2" d="M130.714 296.086C127.63 297.831 125.286 302.194 125.286 305.684V310.795C125.286 314.286 127.753 315.781 130.838 313.912C133.923 312.167 136.267 307.803 136.267 304.313V303.441L136.391 303.316L151.815 294.341C152.555 293.842 153.173 292.845 153.173 291.847C153.173 290.975 152.555 290.601 151.815 291.099L136.391 300.075L136.267 300.199V299.202C136.267 295.712 133.799 294.341 130.714 296.086ZM128.124 309.174V304.064C128.124 302.319 129.357 300.324 130.838 299.451C132.319 298.579 133.553 299.327 133.553 300.947V306.058C133.553 307.803 132.319 309.798 130.838 310.671C129.357 311.543 128.124 310.795 128.124 309.174Z" fill="#020202"/>
</g>
</g>
</g>
</g>
<path d="M293.601 241.518L297.92 239.025L298.29 130.948L293.848 133.44L293.601 241.518Z" fill="#C3C3C3"/>
<path d="M293.848 134.737L298.29 132.245L119.49 28.0313L115.172 30.5244L293.848 134.737Z" fill="#2C85FB"/>
<path d="M115.172 30.5244L114.925 138.602L293.601 242.815L293.848 134.738L115.172 30.5244Z" fill="white"/>
<path d="M120.972 5.34379L116.652 7.8369C117.763 7.21365 119.367 7.21365 120.972 8.21094L125.29 5.71777C123.686 4.72051 122.082 4.59585 120.972 5.34379Z" fill="#EB5757"/>
<path d="M243.133 87.4926C242.021 88.1156 240.911 88.7393 239.8 89.4873C239.43 89.7363 239.06 89.8612 238.813 90.1103C238.813 92.728 240.664 96.0937 243.008 97.4654L247.328 94.9718C244.983 93.3518 243.133 90.1103 243.133 87.4926Z" fill="#4A9EF4"/>
<path d="M243.133 87.4925C243.133 86.1216 243.626 85.2487 244.366 84.7499L240.048 87.2435C239.307 87.7423 238.813 88.6144 238.813 89.9861C240.294 89.1133 241.651 88.2405 243.133 87.4925Z" fill="#4A9EF4"/>
<path d="M250.289 95.0967C249.549 95.5956 248.439 95.4707 247.328 94.8477L243.009 97.3405C244.12 97.9635 245.231 98.0884 245.971 97.5896C247.204 96.8416 249.056 95.8446 250.289 95.0967Z" fill="#4A9EF4"/>
<path d="M244.366 84.7499L240.047 87.2435C240.788 86.7446 241.898 86.8696 243.008 87.4926L247.328 84.999C246.217 84.376 245.106 84.2511 244.366 84.7499Z" fill="white"/>
<path d="M245.97 97.5895L250.289 95.0967C251.03 94.5978 251.523 93.7257 251.523 92.354C251.523 89.6121 249.673 86.3706 247.328 84.9997L243.009 87.4925C245.353 88.8642 247.204 92.105 247.204 94.8476C247.204 96.2186 246.711 97.0914 245.97 97.5895Z" fill="white"/>
<path d="M243.008 87.6175C240.664 86.2458 238.813 87.3677 238.813 89.9861C238.813 92.6039 240.664 95.9695 243.008 97.3405C245.353 98.7114 247.204 97.5896 247.204 94.9718C247.204 92.2299 245.353 88.8642 243.008 87.6175Z" fill="white"/>
<path d="M261.889 98.3375C261.889 96.9665 262.382 96.0937 263.122 95.5956L258.804 98.0884C258.064 98.5873 257.569 99.4594 257.569 100.831C257.569 103.449 259.421 106.814 261.765 108.185L266.084 105.693C263.739 104.321 261.889 101.08 261.889 98.3375Z" fill="#4A9EF4"/>
<path d="M269.045 105.942C268.305 106.44 267.194 106.316 266.084 105.693L261.764 108.185C262.875 108.809 263.986 108.933 264.726 108.435C266.084 107.811 267.811 106.69 269.045 105.942Z" fill="#4A9EF4"/>
<path d="M263.122 95.7197L258.804 98.2133C259.544 97.7144 260.654 97.8393 261.765 98.4624L266.084 95.9695C264.973 95.3458 263.862 95.2216 263.122 95.7197Z" fill="white"/>
<path d="M264.726 108.559L269.045 105.942C269.785 105.443 270.279 104.571 270.279 103.199C270.279 100.457 268.428 97.2156 266.084 95.8446L261.764 98.3374C264.109 99.7091 265.96 102.95 265.96 105.693C265.96 107.188 265.467 108.06 264.726 108.559Z" fill="white"/>
<path d="M261.765 98.4624C259.421 97.0914 257.569 98.2133 257.569 100.831C257.569 103.449 259.421 106.814 261.765 108.185C264.109 109.557 265.96 108.435 265.96 105.817C265.96 103.199 264.109 99.8333 261.765 98.4624Z" fill="white"/>
<path d="M278.793 108.185C278.793 106.814 279.288 105.942 280.028 105.443L275.709 107.936C274.968 108.435 274.475 109.307 274.475 110.679C274.475 113.297 276.326 116.662 278.67 118.033L282.989 115.54C280.645 114.17 278.793 110.928 278.793 108.185Z" fill="#4A9EF4"/>
<path d="M285.951 115.79C285.21 116.288 284.1 116.164 282.989 115.541L278.67 118.033C279.781 118.656 280.891 118.781 281.631 118.282C282.866 117.535 284.593 116.538 285.951 115.79Z" fill="#4A9EF4"/>
<path d="M280.028 105.444L275.708 107.936C276.449 107.438 277.56 107.562 278.67 108.185L282.989 105.693C281.755 105.07 280.768 105.07 280.028 105.444Z" fill="white"/>
<path d="M281.508 118.407L285.827 115.914C286.568 115.416 287.061 114.543 287.061 113.172C287.061 110.429 285.21 107.188 282.865 105.817L278.547 108.31C280.891 109.681 282.742 112.923 282.742 115.665C282.742 117.036 282.248 117.908 281.508 118.407Z" fill="white"/>
<path d="M278.547 108.31C276.203 106.939 274.352 108.06 274.352 110.678C274.352 113.297 276.203 116.662 278.547 118.033C280.891 119.404 282.743 118.282 282.743 115.665C282.743 112.923 280.891 109.681 278.547 108.31Z" fill="white"/>
<path d="M293.478 134.239L297.796 131.621L297.919 113.546L293.601 116.039L293.478 134.239Z" fill="#2C85FB"/>
<path d="M287.431 105.319L291.75 102.825L125.29 5.71765L120.972 8.33543L287.431 105.319Z" fill="#2C85FB"/>
<path d="M114.783 30.0577L114.765 30.047V30.0258V11.8258C114.765 9.88527 115.478 8.49895 116.619 7.85139C117.76 7.20388 119.317 7.30218 120.99 8.30377L287.326 105.286C289.061 106.287 290.608 107.976 291.72 109.913C292.833 111.849 293.515 114.037 293.515 116.039V134.239V134.303L293.459 134.27L114.783 30.0577ZM274.388 110.679C274.388 112.042 274.849 113.532 275.602 114.852C276.356 116.172 277.4 117.32 278.565 118.002C279.731 118.683 280.765 118.741 281.505 118.313C282.245 117.886 282.706 116.966 282.706 115.665C282.706 114.302 282.245 112.812 281.492 111.492C280.738 110.171 279.694 109.024 278.528 108.342C277.362 107.66 276.328 107.572 275.588 107.984C274.849 108.396 274.388 109.315 274.388 110.679ZM238.85 89.9854C238.85 91.349 239.311 92.8389 240.064 94.1589C240.817 95.4788 241.862 96.6266 243.028 97.3087C244.131 97.9273 245.166 97.9857 245.922 97.5726C246.678 97.1602 247.167 96.2718 247.167 94.9718C247.167 93.6083 246.707 92.1191 245.954 90.7984C245.2 89.4784 244.156 88.3307 242.991 87.6492C241.824 86.9671 240.79 86.8792 240.05 87.2908C239.31 87.7025 238.85 88.6218 238.85 89.9854ZM257.606 100.831C257.606 102.195 258.067 103.684 258.82 105.004C259.573 106.324 260.618 107.472 261.784 108.154C262.95 108.836 263.984 108.924 264.724 108.511C265.463 108.1 265.923 107.181 265.923 105.817C265.923 104.454 265.463 102.964 264.71 101.644C263.956 100.323 262.912 99.1756 261.747 98.4942C260.58 97.812 259.546 97.7241 258.806 98.1365C258.066 98.5481 257.606 99.4668 257.606 100.831Z" fill="url(#paint21_radial_171_6446)" stroke="#2C85FB" stroke-width="0.1"/>
<path d="M293.601 116.039L297.919 113.546C297.919 109.557 295.205 104.82 291.75 102.826L287.431 105.319C290.886 107.313 293.601 112.175 293.601 116.039Z" fill="#2C85FB"/>
<path d="M147.502 75.5257C144.417 73.6556 141.826 75.1518 141.826 78.7665C141.826 82.3812 144.417 86.8695 147.502 88.7394L187.481 112.05C190.566 113.92 193.158 112.424 193.158 108.684C193.158 105.069 190.566 100.581 187.481 98.7115L147.502 75.5257Z" fill="#579BEB"/>
<path d="M145.896 96.5423C143.551 95.1706 141.577 96.2925 141.577 99.0352C141.577 101.778 143.551 105.268 145.896 106.639L171.809 121.723C174.153 123.094 176.128 121.972 176.128 119.229C176.128 116.487 174.153 112.997 171.809 111.626L145.896 96.5423Z" fill="#579BEB"/>
<path opacity="0.2" d="M233.385 151.691C229.93 149.696 227.091 151.317 227.091 155.305L226.968 181.484C226.968 185.473 229.806 190.459 233.261 192.453L263.369 210.03C266.825 212.024 269.662 210.404 269.662 206.415L269.786 180.237C269.786 176.248 266.948 171.262 263.492 169.267L233.385 151.691ZM245.477 181.359C243.379 178.866 242.022 175.625 242.022 172.882C242.022 168.893 244.86 167.148 248.315 169.267C251.77 171.262 254.609 176.123 254.609 180.237C254.609 182.979 253.251 184.724 251.153 184.724L252.141 193.201C252.264 194.074 251.77 194.448 251.03 194.198L250.906 194.074L245.847 191.207C245.107 190.833 244.613 189.836 244.613 189.088V188.839L245.477 181.359Z" fill="black"/>
<path d="M241.035 182.356L236.716 184.849C236.593 184.849 236.469 184.974 236.346 184.974C236.223 184.974 236.099 185.099 235.976 185.099C235.976 185.099 235.976 185.099 235.852 185.099C235.852 185.099 235.852 185.099 235.729 185.099C235.606 185.099 235.606 185.099 235.482 185.099C235.359 185.099 235.235 185.099 235.111 185.099C234.988 185.099 234.865 185.099 234.865 185.099L239.184 182.606C239.431 182.606 239.801 182.606 240.048 182.481C240.048 182.481 240.048 182.481 240.171 182.481C240.541 182.606 240.788 182.481 241.035 182.356Z" fill="#CC9A06"/>
<path d="M225.858 173.505C225.858 171.511 226.598 170.015 227.708 169.392L232.027 166.899C230.916 167.522 230.176 169.018 230.176 171.013C230.176 171.387 230.176 171.761 230.3 172.135C230.3 172.508 230.423 172.758 230.423 173.132V173.256C230.546 173.505 230.546 173.879 230.67 174.129V174.253C230.793 174.627 230.916 174.877 231.04 175.251V175.375C231.163 175.749 231.286 175.999 231.533 176.373C231.533 176.373 231.533 176.497 231.657 176.497C231.781 176.871 232.027 177.121 232.151 177.37C232.151 177.37 232.151 177.495 232.274 177.495C232.398 177.744 232.644 178.118 232.891 178.367L233.014 178.492C233.261 178.741 233.508 179.115 233.755 179.365L232.768 186.719V186.969C232.768 187.218 232.768 187.343 232.891 187.592C233.014 187.841 233.014 187.966 233.138 188.215C233.261 188.465 233.384 188.589 233.508 188.714C233.631 188.839 233.878 188.963 234.001 189.088L239.061 191.955L239.184 192.079C239.307 192.079 239.431 192.204 239.554 192.204C239.678 192.204 239.801 192.204 239.924 192.079L235.606 194.572C235.606 194.572 235.606 194.572 235.482 194.572C235.482 194.572 235.482 194.572 235.359 194.572C235.359 194.572 235.359 194.572 235.236 194.572C235.236 194.572 235.236 194.572 235.112 194.572H234.989H234.866H234.742L234.618 194.448L229.559 191.581C229.436 191.456 229.313 191.332 229.189 191.207C229.189 191.207 229.189 191.207 229.066 191.082L228.943 190.958C228.943 190.958 228.943 190.833 228.819 190.833C228.819 190.833 228.819 190.709 228.696 190.709C228.696 190.709 228.696 190.584 228.572 190.584V190.459V190.335V190.21V190.085V189.961C228.572 189.961 228.572 189.961 228.572 189.836V189.711V189.587C228.572 189.462 228.572 189.462 228.572 189.337V189.088L229.559 181.733C229.436 181.484 229.189 181.359 229.066 181.11C228.943 180.985 228.943 180.861 228.819 180.861L228.696 180.736L228.572 180.611C228.448 180.487 228.325 180.237 228.202 180.113C228.202 179.988 228.078 179.988 228.078 179.863C228.078 179.863 228.078 179.739 227.955 179.739C227.955 179.614 227.832 179.614 227.832 179.489C227.708 179.365 227.585 179.115 227.585 178.991C227.585 178.866 227.461 178.866 227.461 178.741C227.461 178.741 227.461 178.617 227.338 178.617C227.338 178.492 227.215 178.492 227.215 178.367C227.091 178.243 227.091 177.993 226.968 177.869C226.968 177.744 226.968 177.744 226.845 177.619V177.495C226.845 177.37 226.845 177.37 226.721 177.245C226.598 176.996 226.598 176.871 226.474 176.622V176.497V176.373C226.474 176.248 226.351 176.123 226.351 175.999C226.351 175.749 226.228 175.625 226.228 175.375V175.251C226.104 175.001 226.104 174.627 226.104 174.378C225.981 174.253 225.858 173.879 225.858 173.505Z" fill="#CC9A06"/>
<path d="M217.22 152.439C213.765 150.444 210.927 152.065 210.927 156.053L210.803 182.232C210.803 186.22 213.641 191.207 217.096 193.201L247.204 210.778C250.659 212.772 253.497 211.152 253.497 207.163L253.621 180.985C253.621 176.996 250.783 172.01 247.328 170.015L217.22 152.439ZM229.313 182.107C227.215 179.614 225.857 176.373 225.857 173.63C225.857 169.641 228.695 167.896 232.15 170.015C235.606 172.01 238.444 176.871 238.444 180.985C238.444 183.727 237.086 185.472 234.988 185.472L235.976 193.949C236.099 194.822 235.606 195.196 234.865 194.946L234.741 194.822L229.683 191.955C228.942 191.581 228.448 190.584 228.448 189.836V189.587L229.313 182.107Z" fill="#FFE22A"/>
<path d="M216.109 151.94C215.985 151.94 215.862 151.815 215.615 151.815C215.492 151.815 215.369 151.815 215.369 151.691C215.245 151.691 215.245 151.691 215.122 151.691C214.999 151.691 214.875 151.691 214.752 151.691C214.628 151.691 214.628 151.691 214.505 151.691C214.382 151.691 214.258 151.691 214.135 151.691H214.012C213.888 151.691 213.642 151.691 213.518 151.691H213.394C213.271 151.691 213.147 151.691 213.024 151.815H212.901C212.777 151.815 212.654 151.94 212.531 152.065L216.85 149.571C216.973 149.571 217.097 149.447 217.22 149.447C217.22 149.447 217.22 149.447 217.343 149.447H217.467H217.59H217.713H217.837C217.96 149.447 218.083 149.447 218.207 149.447H218.33C218.454 149.447 218.577 149.447 218.577 149.447H218.7C218.824 149.447 218.824 149.447 218.947 149.447H219.07H219.194C219.317 149.447 219.317 149.447 219.44 149.447H219.564H219.687C219.811 149.447 219.935 149.571 220.181 149.571H220.305C220.305 149.571 220.305 149.571 220.428 149.571C220.675 149.696 220.922 149.821 221.168 149.945L251.277 167.522C251.647 167.771 252.017 168.02 252.511 168.395C252.634 168.519 252.757 168.644 252.881 168.768C253.004 168.893 253.251 169.018 253.374 169.267C253.498 169.392 253.498 169.392 253.621 169.517C253.744 169.641 253.744 169.641 253.868 169.766C253.991 169.891 253.991 169.891 254.115 170.015C254.238 170.265 254.485 170.389 254.609 170.639C254.609 170.763 254.732 170.763 254.732 170.888C254.732 170.888 254.732 171.013 254.855 171.013C254.855 171.137 254.979 171.137 254.979 171.262C255.102 171.387 255.225 171.636 255.349 171.761C255.472 171.885 255.596 172.135 255.719 172.259C255.842 172.384 255.842 172.509 255.966 172.758C256.089 172.883 256.089 173.132 256.212 173.256C256.336 173.381 256.336 173.63 256.459 173.755C256.582 174.004 256.582 174.129 256.706 174.378C256.829 174.627 256.829 174.752 256.953 175.001C256.953 175.126 256.953 175.25 257.076 175.25V175.375C257.076 175.5 257.076 175.5 257.2 175.624C257.323 175.874 257.323 176.123 257.323 176.372C257.323 176.497 257.323 176.622 257.447 176.871C257.447 176.996 257.447 176.996 257.447 177.12C257.447 177.245 257.447 177.245 257.447 177.37C257.447 177.744 257.57 178.242 257.57 178.616L257.447 204.794C257.447 206.789 256.706 208.16 255.596 208.908L251.277 211.401C252.387 210.778 253.127 209.282 253.127 207.288L253.251 181.11C253.251 180.611 253.251 180.112 253.127 179.614C253.127 179.489 253.127 179.489 253.127 179.364C253.004 178.866 253.004 178.492 252.757 177.993V177.868C252.634 177.37 252.387 176.871 252.264 176.372C252.017 175.874 251.77 175.375 251.524 174.877C251.277 174.378 250.906 174.004 250.659 173.506C250.659 173.506 250.659 173.381 250.536 173.381C250.289 173.007 249.919 172.633 249.672 172.259C249.549 172.135 249.549 172.135 249.426 172.01C249.179 171.761 248.932 171.511 248.686 171.262C248.562 171.137 248.439 171.013 248.315 170.888C247.945 170.639 247.575 170.265 247.081 170.015L217.22 152.439C216.973 152.314 216.726 152.189 216.479 152.065C216.356 151.94 216.232 151.94 216.109 151.94Z" fill="#CC9A06"/>
<g opacity="0.2">
<g opacity="0.2">
<g opacity="0.2">
<path opacity="0.2" d="M248.438 123.893C239.43 118.656 232.027 122.771 232.027 133.242V144.959C232.027 145.707 232.52 146.704 233.26 147.203L238.32 150.07C239.06 150.444 239.553 150.195 239.553 149.322V137.604C239.553 131.995 243.503 129.751 248.315 132.494C253.127 135.361 257.076 142.217 257.076 147.826V159.544C257.076 160.292 257.569 161.29 258.309 161.788L263.369 164.655C264.109 165.029 264.603 164.779 264.603 163.907V152.19C264.726 141.843 257.446 129.128 248.438 123.893Z" fill="black"/>
</g>
</g>
</g>
<path d="M249.296 124.156C240.288 118.92 233.008 123.159 232.884 133.63V145.223C232.884 145.971 233.378 146.968 234.118 147.467L239.177 150.459C239.918 150.833 240.411 150.583 240.411 149.711V138.117C240.411 132.508 244.36 130.264 249.172 133.007C253.985 135.873 257.933 142.73 257.933 148.339V159.933C257.933 160.681 258.427 161.678 259.167 162.177L264.227 165.043C264.967 165.417 265.46 165.168 265.46 164.295V152.703C265.584 142.107 258.304 129.391 249.296 124.156Z" fill="#BEC7C7"/>
<path d="M223.883 153.935L228.202 151.442C228.448 151.317 228.572 151.068 228.572 150.569L224.253 153.062C224.253 153.436 224.13 153.81 223.883 153.935Z" fill="#579BEB" stroke="#4A9EF4" stroke-miterlimit="10"/>
<path d="M224.253 153.062L228.695 150.569V138.851L224.377 141.469L224.253 153.062Z" fill="#579BEB" stroke="#4A9EF4" stroke-miterlimit="10"/>
<path d="M231.286 133.117L226.968 135.61C225.363 136.482 224.376 138.477 224.376 141.344L228.695 138.851C228.695 136.108 229.683 134.114 231.286 133.117Z" fill="#579BEB" stroke="#4A9EF4" stroke-miterlimit="10"/>
<path d="M249.056 168.52L253.374 166.026C253.621 165.901 253.744 165.652 253.744 165.153L249.426 167.647C249.426 168.146 249.302 168.395 249.056 168.52Z" fill="#579BEB" stroke="#4A9EF4" stroke-miterlimit="10"/>
<path d="M249.426 167.647L253.744 165.153V153.561L249.426 156.053V167.647Z" fill="#579BEB" stroke="#4A9EF4" stroke-miterlimit="10"/>
<path d="M225.858 123.892L221.538 126.385C224.5 124.64 228.572 124.89 233.138 127.507L237.456 125.014C233.014 122.396 228.943 122.147 225.858 123.892Z" fill="#579BEB" stroke="#4A9EF4" stroke-miterlimit="10"/>
<path d="M249.426 156.053L253.744 153.561C253.744 143.09 246.464 130.374 237.456 125.139L233.137 127.632C242.145 132.868 249.426 145.582 249.426 156.053Z" fill="#579BEB" stroke="#4A9EF4" stroke-miterlimit="10"/>
<path d="M233.137 127.632C224.13 122.396 216.849 126.635 216.726 137.106V148.699C216.726 149.447 217.219 150.444 217.96 150.943L223.019 153.935C223.759 154.309 224.253 154.059 224.253 153.187V141.594C224.253 135.984 228.202 133.74 233.014 136.482C237.826 139.35 241.775 146.205 241.775 151.816V163.409C241.775 164.156 242.268 165.153 243.009 165.652L248.068 168.519C248.808 168.893 249.302 168.644 249.302 167.771V156.178C249.426 145.582 242.145 132.868 233.137 127.632Z" fill="#579BEB" stroke="#4A9EF4" stroke-miterlimit="10"/>
<path d="M146.27 300.212V304.325C146.27 305.197 146.887 305.571 147.627 305.073L149.355 304.076V302.331C149.355 301.832 149.725 301.334 150.095 301.084C150.465 300.835 150.835 301.084 150.835 301.458V303.203L152.563 302.206C153.303 301.708 153.92 300.71 153.92 299.838V295.723L146.27 300.212Z" fill="black" fill-opacity="0.15"/>
<path d="M133.066 295.724C129.981 297.469 127.637 301.832 127.637 305.322V310.434C127.637 313.923 130.104 315.419 133.189 313.549C136.274 311.805 138.619 307.441 138.619 303.951V303.079L138.742 302.954L154.167 293.979C154.907 293.48 155.524 292.483 155.524 291.486C155.524 290.613 154.907 290.239 154.167 290.738L138.742 299.713L138.619 299.838V298.84C138.619 295.35 136.151 293.979 133.066 295.724ZM130.475 308.813V303.702C130.475 301.957 131.709 299.838 133.189 299.09C134.67 298.217 135.904 298.965 135.904 300.586V305.696C135.904 307.442 134.67 309.436 133.189 310.309C131.709 311.182 130.475 310.434 130.475 308.813Z" fill="black" fill-opacity="0.15"/>
<path d="M161.672 300.212V304.325C161.672 305.197 162.289 305.571 163.029 305.073L164.757 304.076V302.331C164.757 301.832 165.127 301.334 165.497 301.084C165.867 300.835 166.237 301.084 166.237 301.458V303.203L167.965 302.206C168.705 301.708 169.322 300.71 169.322 299.838V295.723L161.672 300.212Z" fill="#FFE22A"/>
<path d="M148.468 295.724C145.383 297.469 143.039 301.832 143.039 305.322V310.434C143.039 313.923 145.507 315.419 148.592 313.549C151.676 311.805 154.021 307.441 154.021 303.951V303.079L154.144 302.954L169.569 293.979C170.309 293.48 170.926 292.483 170.926 291.486C170.926 290.613 170.309 290.239 169.569 290.738L154.144 299.713L154.021 299.838V298.84C154.021 295.35 151.553 293.979 148.468 295.724ZM145.877 308.813V303.702C145.877 301.957 147.11 299.838 148.592 299.09C150.072 298.217 151.306 298.965 151.306 300.586V305.696C151.306 307.442 150.072 309.436 148.592 310.309C147.11 311.182 145.877 310.434 145.877 308.813Z" fill="#FFE22A"/>
<path opacity="0.1" d="M146.174 124.753C143.818 123.368 141.834 124.501 141.834 127.27C141.834 130.039 143.818 133.563 146.174 134.947L172.214 150.176C174.569 151.561 176.553 150.428 176.553 147.659C176.553 144.891 174.569 141.366 172.214 139.982L146.174 124.753Z" fill="#C3C3C3"/>
</g>
<defs>
<filter id="filter0_f_171_6446" x="-0.910156" y="275.171" width="275.243" height="164.506" filterUnits="userSpaceOnUse" color-interpolation-filters="sRGB">
<feFlood flood-opacity="0" result="BackgroundImageFix"/>
<feBlend mode="normal" in="SourceGraphic" in2="BackgroundImageFix" result="shape"/>
<feGaussianBlur stdDeviation="2" result="effect1_foregroundBlur_171_6446"/>
</filter>
<filter id="filter1_f_171_6446" x="103.054" y="323.513" width="70.5938" height="47.9045" filterUnits="userSpaceOnUse" color-interpolation-filters="sRGB">
<feFlood flood-opacity="0" result="BackgroundImageFix"/>
<feBlend mode="normal" in="SourceGraphic" in2="BackgroundImageFix" result="shape"/>
<feGaussianBlur stdDeviation="2" result="effect1_foregroundBlur_171_6446"/>
</filter>
<radialGradient id="paint0_radial_171_6446" cx="0" cy="0" r="1" gradientUnits="userSpaceOnUse" gradientTransform="translate(137.98 314.955) rotate(90) scale(114.773 195.825)">
<stop stop-color="#2F3C9E"/>
<stop offset="0.166667" stop-color="#253084"/>
<stop offset="0.3125" stop-color="#192264"/>
<stop offset="0.453125" stop-color="#10194D"/>
<stop offset="0.614583" stop-color="#0B133F"/>
<stop offset="0.755208" stop-color="#0A113B"/>
<stop offset="1" stop-color="#000020"/>
</radialGradient>
<radialGradient id="paint1_radial_171_6446" cx="0" cy="0" r="1" gradientUnits="userSpaceOnUse" gradientTransform="translate(194.084 297.178) rotate(90) scale(15.6806 27.0721)">
<stop stop-color="#2F3C9E"/>
<stop offset="0.166667" stop-color="#253084"/>
<stop offset="0.3125" stop-color="#192264"/>
<stop offset="0.453125" stop-color="#10194D"/>
<stop offset="0.614583" stop-color="#0B133F"/>
<stop offset="0.755208" stop-color="#0A113B"/>
<stop offset="1" stop-color="#000020"/>
</radialGradient>
<radialGradient id="paint2_radial_171_6446" cx="0" cy="0" r="1" gradientUnits="userSpaceOnUse" gradientTransform="translate(218.679 285.892) rotate(90) scale(4.56203 7.88405)">
<stop stop-color="#2F3C9E"/>
<stop offset="0.166667" stop-color="#253084"/>
<stop offset="0.3125" stop-color="#192264"/>
<stop offset="0.453125" stop-color="#10194D"/>
<stop offset="0.614583" stop-color="#0B133F"/>
<stop offset="0.755208" stop-color="#0A113B"/>
<stop offset="1" stop-color="#000020"/>
</radialGradient>
<radialGradient id="paint3_radial_171_6446" cx="0" cy="0" r="1" gradientUnits="userSpaceOnUse" gradientTransform="translate(224.63 175.071) rotate(90) scale(28.2256 0.664722)">
<stop stop-color="#2F3C9E"/>
<stop offset="0.166667" stop-color="#253084"/>
<stop offset="0.3125" stop-color="#192264"/>
<stop offset="0.453125" stop-color="#10194D"/>
<stop offset="0.614583" stop-color="#0B133F"/>
<stop offset="0.755208" stop-color="#0A113B"/>
<stop offset="1" stop-color="#000020"/>
</radialGradient>
<radialGradient id="paint4_radial_171_6446" cx="0" cy="0" r="1" gradientUnits="userSpaceOnUse" gradientTransform="translate(222.561 162.063) rotate(90) scale(2.09038 3.70466)">
<stop stop-color="#2F3C9E"/>
<stop offset="0.166667" stop-color="#253084"/>
<stop offset="0.3125" stop-color="#192264"/>
<stop offset="0.453125" stop-color="#10194D"/>
<stop offset="0.614583" stop-color="#0B133F"/>
<stop offset="0.755208" stop-color="#0A113B"/>
<stop offset="1" stop-color="#000020"/>
</radialGradient>
<radialGradient id="paint5_radial_171_6446" cx="0" cy="0" r="1" gradientUnits="userSpaceOnUse" gradientTransform="translate(222.106 173.799) rotate(90) scale(29.5557 3.03939)">
<stop stop-color="#2F3C9E"/>
<stop offset="0.166667" stop-color="#253084"/>
<stop offset="0.3125" stop-color="#192264"/>
<stop offset="0.453125" stop-color="#10194D"/>
<stop offset="0.614583" stop-color="#0B133F"/>
<stop offset="0.755208" stop-color="#0A113B"/>
<stop offset="1" stop-color="#000020"/>
</radialGradient>
<radialGradient id="paint6_radial_171_6446" cx="0" cy="0" r="1" gradientUnits="userSpaceOnUse" gradientTransform="translate(224.759 152.631) rotate(90) scale(5.98739 0.665236)">
<stop stop-color="#2F3C9E"/>
<stop offset="0.166667" stop-color="#253084"/>
<stop offset="0.3125" stop-color="#192264"/>
<stop offset="0.453125" stop-color="#10194D"/>
<stop offset="0.614583" stop-color="#0B133F"/>
<stop offset="0.755208" stop-color="#0A113B"/>
<stop offset="1" stop-color="#000020"/>
</radialGradient>
<radialGradient id="paint7_radial_171_6446" cx="0" cy="0" r="1" gradientUnits="userSpaceOnUse" gradientTransform="translate(222.691 148.743) rotate(90) scale(2.18623 3.70466)">
<stop stop-color="#2F3C9E"/>
<stop offset="0.166667" stop-color="#253084"/>
<stop offset="0.3125" stop-color="#192264"/>
<stop offset="0.453125" stop-color="#10194D"/>
<stop offset="0.614583" stop-color="#0B133F"/>
<stop offset="0.755208" stop-color="#0A113B"/>
<stop offset="1" stop-color="#000020"/>
</radialGradient>
<radialGradient id="paint8_radial_171_6446" cx="0" cy="0" r="1" gradientUnits="userSpaceOnUse" gradientTransform="translate(222.236 151.358) rotate(90) scale(7.31797 3.03994)">
<stop stop-color="#2F3C9E"/>
<stop offset="0.166667" stop-color="#253084"/>
<stop offset="0.3125" stop-color="#192264"/>
<stop offset="0.453125" stop-color="#10194D"/>
<stop offset="0.614583" stop-color="#0B133F"/>
<stop offset="0.755208" stop-color="#0A113B"/>
<stop offset="1" stop-color="#000020"/>
</radialGradient>
<radialGradient id="paint9_radial_171_6446" cx="0" cy="0" r="1" gradientUnits="userSpaceOnUse" gradientTransform="translate(224.63 209.696) rotate(90) scale(5.98685 0.664722)">
<stop stop-color="#2F3C9E"/>
<stop offset="0.166667" stop-color="#253084"/>
<stop offset="0.3125" stop-color="#192264"/>
<stop offset="0.453125" stop-color="#10194D"/>
<stop offset="0.614583" stop-color="#0B133F"/>
<stop offset="0.755208" stop-color="#0A113B"/>
<stop offset="1" stop-color="#000020"/>
</radialGradient>
<radialGradient id="paint10_radial_171_6446" cx="0" cy="0" r="1" gradientUnits="userSpaceOnUse" gradientTransform="translate(222.561 205.77) rotate(90) scale(2.09093 3.70466)">
<stop stop-color="#2F3C9E"/>
<stop offset="0.166667" stop-color="#253084"/>
<stop offset="0.3125" stop-color="#192264"/>
<stop offset="0.453125" stop-color="#10194D"/>
<stop offset="0.614583" stop-color="#0B133F"/>
<stop offset="0.755208" stop-color="#0A113B"/>
<stop offset="1" stop-color="#000020"/>
</radialGradient>
<radialGradient id="paint11_radial_171_6446" cx="0" cy="0" r="1" gradientUnits="userSpaceOnUse" gradientTransform="translate(222.106 208.423) rotate(90) scale(7.31743 3.03939)">
<stop stop-color="#2F3C9E"/>
<stop offset="0.166667" stop-color="#253084"/>
<stop offset="0.3125" stop-color="#192264"/>
<stop offset="0.453125" stop-color="#10194D"/>
<stop offset="0.614583" stop-color="#0B133F"/>
<stop offset="0.755208" stop-color="#0A113B"/>
<stop offset="1" stop-color="#000020"/>
</radialGradient>
<radialGradient id="paint12_radial_171_6446" cx="0" cy="0" r="1" gradientUnits="userSpaceOnUse" gradientTransform="translate(224.435 245.625) rotate(90) scale(28.2256 0.759984)">
<stop stop-color="#2F3C9E"/>
<stop offset="0.166667" stop-color="#253084"/>
<stop offset="0.3125" stop-color="#192264"/>
<stop offset="0.453125" stop-color="#10194D"/>
<stop offset="0.614583" stop-color="#0B133F"/>
<stop offset="0.755208" stop-color="#0A113B"/>
<stop offset="1" stop-color="#000020"/>
</radialGradient>
<radialGradient id="paint13_radial_171_6446" cx="0" cy="0" r="1" gradientUnits="userSpaceOnUse" gradientTransform="translate(222.432 232.617) rotate(90) scale(2.09039 3.70466)">
<stop stop-color="#2F3C9E"/>
<stop offset="0.166667" stop-color="#253084"/>
<stop offset="0.3125" stop-color="#192264"/>
<stop offset="0.453125" stop-color="#10194D"/>
<stop offset="0.614583" stop-color="#0B133F"/>
<stop offset="0.755208" stop-color="#0A113B"/>
<stop offset="1" stop-color="#000020"/>
</radialGradient>
<radialGradient id="paint14_radial_171_6446" cx="0" cy="0" r="1" gradientUnits="userSpaceOnUse" gradientTransform="translate(221.912 244.353) rotate(90) scale(29.5557 3.13469)">
<stop stop-color="#2F3C9E"/>
<stop offset="0.166667" stop-color="#253084"/>
<stop offset="0.3125" stop-color="#192264"/>
<stop offset="0.453125" stop-color="#10194D"/>
<stop offset="0.614583" stop-color="#0B133F"/>
<stop offset="0.755208" stop-color="#0A113B"/>
<stop offset="1" stop-color="#000020"/>
</radialGradient>
<radialGradient id="paint15_radial_171_6446" cx="0" cy="0" r="1" gradientUnits="userSpaceOnUse" gradientTransform="translate(224.5 223.184) rotate(90) scale(5.9874 0.664711)">
<stop stop-color="#2F3C9E"/>
<stop offset="0.166667" stop-color="#253084"/>
<stop offset="0.3125" stop-color="#192264"/>
<stop offset="0.453125" stop-color="#10194D"/>
<stop offset="0.614583" stop-color="#0B133F"/>
<stop offset="0.755208" stop-color="#0A113B"/>
<stop offset="1" stop-color="#000020"/>
</radialGradient>
<radialGradient id="paint16_radial_171_6446" cx="0" cy="0" r="1" gradientUnits="userSpaceOnUse" gradientTransform="translate(222.432 219.258) rotate(90) scale(2.09037 3.70466)">
<stop stop-color="#2F3C9E"/>
<stop offset="0.166667" stop-color="#253084"/>
<stop offset="0.3125" stop-color="#192264"/>
<stop offset="0.453125" stop-color="#10194D"/>
<stop offset="0.614583" stop-color="#0B133F"/>
<stop offset="0.755208" stop-color="#0A113B"/>
<stop offset="1" stop-color="#000020"/>
</radialGradient>
<radialGradient id="paint17_radial_171_6446" cx="0" cy="0" r="1" gradientUnits="userSpaceOnUse" gradientTransform="translate(221.977 221.911) rotate(90) scale(7.31799 3.03995)">
<stop stop-color="#2F3C9E"/>
<stop offset="0.166667" stop-color="#253084"/>
<stop offset="0.3125" stop-color="#192264"/>
<stop offset="0.453125" stop-color="#10194D"/>
<stop offset="0.614583" stop-color="#0B133F"/>
<stop offset="0.755208" stop-color="#0A113B"/>
<stop offset="1" stop-color="#000020"/>
</radialGradient>
<radialGradient id="paint18_radial_171_6446" cx="0" cy="0" r="1" gradientUnits="userSpaceOnUse" gradientTransform="translate(224.37 280.249) rotate(90) scale(5.98739 0.664722)">
<stop stop-color="#2F3C9E"/>
<stop offset="0.166667" stop-color="#253084"/>
<stop offset="0.3125" stop-color="#192264"/>
<stop offset="0.453125" stop-color="#10194D"/>
<stop offset="0.614583" stop-color="#0B133F"/>
<stop offset="0.755208" stop-color="#0A113B"/>
<stop offset="1" stop-color="#000020"/>
</radialGradient>
<radialGradient id="paint19_radial_171_6446" cx="0" cy="0" r="1" gradientUnits="userSpaceOnUse" gradientTransform="translate(222.301 276.323) rotate(90) scale(2.09094 3.70469)">
<stop stop-color="#2F3C9E"/>
<stop offset="0.166667" stop-color="#253084"/>
<stop offset="0.3125" stop-color="#192264"/>
<stop offset="0.453125" stop-color="#10194D"/>
<stop offset="0.614583" stop-color="#0B133F"/>
<stop offset="0.755208" stop-color="#0A113B"/>
<stop offset="1" stop-color="#000020"/>
</radialGradient>
<radialGradient id="paint20_radial_171_6446" cx="0" cy="0" r="1" gradientUnits="userSpaceOnUse" gradientTransform="translate(221.847 278.977) rotate(90) scale(7.31797 3.03997)">
<stop stop-color="#2F3C9E"/>
<stop offset="0.166667" stop-color="#253084"/>
<stop offset="0.3125" stop-color="#192264"/>
<stop offset="0.453125" stop-color="#10194D"/>
<stop offset="0.614583" stop-color="#0B133F"/>
<stop offset="0.755208" stop-color="#0A113B"/>
<stop offset="1" stop-color="#000020"/>
</radialGradient>
<radialGradient id="paint21_radial_171_6446" cx="0" cy="0" r="1" gradientUnits="userSpaceOnUse" gradientTransform="translate(204.378 45.4064) rotate(90) scale(92.9586 130.98)">
<stop stop-color="#2F3C9E"/>
<stop offset="0.166667" stop-color="#253084"/>
<stop offset="0.3125" stop-color="#192264"/>
<stop offset="0.453125" stop-color="#10194D"/>
<stop offset="0.614583" stop-color="#0B133F"/>
<stop offset="0.755208" stop-color="#0A113B"/>
<stop offset="1" stop-color="#000020"/>
</radialGradient>
<clipPath id="clip0_171_6446">
<rect width="311" height="439" fill="white"/>
</clipPath>
</defs>
</svg>
